<svg id="Layer_1" data-name="Layer 1" xmlns="http://www.w3.org/2000/svg" viewBox="0 0 311.8 387.9"><defs><style>.cls-1{fill:#e6e7e8;}.cls-2{fill:#72bf44;}.cls-3,.cls-4{fill:none;stroke:#72bf44;stroke-miterlimit:10;}.cls-3{stroke-width:0.28px;}.cls-4{stroke-width:1.13px;}.cls-5{fill:#231f20;}.cls-6{fill:#4fb963;}</style></defs><title>anti_program_m</title><rect class="cls-1" x="238.1" y="65.3" width="73.7" height="22.68"/><path class="cls-2" d="M429.7,607.3H424v-1.2l2.9-3.3,0.6-.8a1.8,1.8,0,0,0,.2-0.9,0.9,0.9,0,0,0-.4-0.8l-0.8-.2-1.1.2-1,.4-0.4-1.3,1.2-.4,1.4-.2a3,3,0,0,1,2.1.6,2.4,2.4,0,0,1,.6,1.8,2.9,2.9,0,0,1-.3,1.4l-0.9,1.2-2.1,2.3h3.5v1.4Z" transform="translate(-164.1 -527)"/><path class="cls-2" d="M436.6,607.3h-5.3V606h1.8v-5.5a0.4,0.4,0,0,0-.1-0.3h-1.5v-1.4h2.4a0.9,0.9,0,0,1,.7.2,1.1,1.1,0,0,1,.2.7V606h1.7v1.4Z" transform="translate(-164.1 -527)"/><path class="cls-2" d="M443,606.8a3.6,3.6,0,0,1-2.2.6h-1.5l-1.2-.3,0.4-1.3h2.6l0.5-.2,0.3-.4a1.6,1.6,0,0,0,.1-0.7,1.1,1.1,0,0,0-.1-0.6l-0.4-.4-0.5-.2h-1.8v-1.4h1.3a2,2,0,0,0,1.1-.3,1,1,0,0,0,.4-1,0.8,0.8,0,0,0-.4-0.8l-1-.2h-1.1l-0.5.2-0.5.2-0.4-1.3,1.3-.4,1.3-.2a3.8,3.8,0,0,1,2.3.6,1.9,1.9,0,0,1,.8,1.6,2.3,2.3,0,0,1-.4,1.4,1.7,1.7,0,0,1-1,.7,2,2,0,0,1,1,.5,1.8,1.8,0,0,1,.4,1.3A2.4,2.4,0,0,1,443,606.8Z" transform="translate(-164.1 -527)"/><path class="cls-2" d="M452,604a2.9,2.9,0,0,1-1.6.8v1.2h4.1v1.3h-9.6v-1.3h3.8v-1.2a2.8,2.8,0,0,1-1.5-.8,2.3,2.3,0,0,1-.6-1.6,2.6,2.6,0,0,1,.1-0.7l0.3-.6h-1.2v-1.3h2.8a1,1,0,0,0,.1-0.4,1.5,1.5,0,0,0,0-.4v-0.4l1.7-.4a3,3,0,0,1,.1.9,1.5,1.5,0,0,1-.2.8h3.1v1.3h-1.2l0.3,0.6a2.5,2.5,0,0,1,.1.7A2.2,2.2,0,0,1,452,604Zm-1.4-2.5a1.2,1.2,0,0,0-1-.4,1.2,1.2,0,0,0-1,.4,1.4,1.4,0,0,0-.3.9,1.3,1.3,0,0,0,.3.9,1.2,1.2,0,0,0,1,.4,1.2,1.2,0,0,0,1-.4,1.3,1.3,0,0,0,.3-0.9A1.4,1.4,0,0,0,450.6,601.5Z" transform="translate(-164.1 -527)"/><path class="cls-2" d="M193.5,547.1H179.1v-2.5h5.2a3,3,0,0,0,.3-0.9,3.2,3.2,0,0,0,0-1.1v-0.5l-0.2-.5,3.1-.9,0.3,0.9a4,4,0,0,1,.1.8,4.6,4.6,0,0,1-.1,1.1,4.7,4.7,0,0,1-.4,1h6.2v2.5Zm-1.6,7.5a4.7,4.7,0,0,1-1.3,1.5,6.2,6.2,0,0,1-1.9.9,8.3,8.3,0,0,1-2.3.3,8.8,8.8,0,0,1-2.4-.3,5.6,5.6,0,0,1-1.9-.9,4.5,4.5,0,0,1-1.3-1.5A4.5,4.5,0,0,1,182,549a5.8,5.8,0,0,1,1.9-.9,8.5,8.5,0,0,1,2.4-.3,7.1,7.1,0,0,1,4.4,1.3,4.2,4.2,0,0,1,1.7,3.5A4.3,4.3,0,0,1,191.9,554.6Zm-8.3,11.1a3.1,3.1,0,0,1-.6-1.9v-5h3.2v4.4a0.9,0.9,0,0,0,.1.6l0.5,0.2h6.7l3-.2,2.9-.6,0.6,2.4-3.2.8-3,.2h-8A2.8,2.8,0,0,1,183.6,565.8Zm4.8-15a3.9,3.9,0,0,0-2.1-.5,3.8,3.8,0,0,0-2.1.5,1.9,1.9,0,0,0-.9,1.8,1.9,1.9,0,0,0,.9,1.8,3.9,3.9,0,0,0,2.1.5,3.9,3.9,0,0,0,2.1-.5,1.9,1.9,0,0,0,.9-1.8A1.9,1.9,0,0,0,188.4,550.8Zm14.4,1.4H199v7.4h-3.2V542.5H199v7.1h3.9v2.6Z" transform="translate(-164.1 -527)"/><path class="cls-2" d="M225.9,554.1h-9.4v3.7h4.6a2,2,0,0,1,1.6.6,2.3,2.3,0,0,1,.4,1.6l-0.3,6.9h-3v-5.5a1.7,1.7,0,0,0-.1-0.8,0.7,0.7,0,0,0-.6-0.2H206.7v-2.6h6.7v-3.7h-9v-2.6h14.8q0.2-1.5.4-3.1t0.2-2.5a1,1,0,0,0-.2-0.7l-0.7-.2H207.1v-2.5h13.7a2.5,2.5,0,0,1,1.5.4,1.7,1.7,0,0,1,.6,1.5,31.5,31.5,0,0,1-.2,3.4q-0.2,2-.6,3.8h3.8v2.6Z" transform="translate(-164.1 -527)"/><path class="cls-2" d="M242.2,546.9h-2a5.4,5.4,0,0,1,.7,1.3,4.6,4.6,0,0,1,.2,1.5,4.9,4.9,0,0,1-.4,2.1,5.1,5.1,0,0,1-1.2,1.7,6,6,0,0,1-1.9,1.1,7.3,7.3,0,0,1-2.5.4,7.6,7.6,0,0,1-2.5-.4,5.6,5.6,0,0,1-1.9-1.1,4.6,4.6,0,0,1-1.2-1.7,5.1,5.1,0,0,1-.4-2.1,4.9,4.9,0,0,1,.2-1.5,5,5,0,0,1,.6-1.3h-2v-2.5h5.3a2.4,2.4,0,0,0,.2-0.8,4.3,4.3,0,0,0,0-1v-0.5l-0.2-.5,3.1-.9,0.3,0.9a4,4,0,0,1,.1.8,4.3,4.3,0,0,1-.1,1l-0.3.9h6.1v2.5Zm-5,.9a2.8,2.8,0,0,0-2.2-.8,2.9,2.9,0,0,0-2.2.8,2.8,2.8,0,0,0,0,3.8,2.9,2.9,0,0,0,2.2.8,2.9,2.9,0,0,0,2.2-.8A2.8,2.8,0,0,0,237.3,547.8Zm9.1,16.3a5.6,5.6,0,0,1-1.4,1.8,6.6,6.6,0,0,1-2.1,1.1,8.5,8.5,0,0,1-2.5.4,8.7,8.7,0,0,1-2.6-.4,6.6,6.6,0,0,1-2.1-1.1,5.4,5.4,0,0,1-1.4-6.5,5.4,5.4,0,0,1,1.4-1.8,6.8,6.8,0,0,1,2.1-1.1,8.4,8.4,0,0,1,2.6-.4l1.7,0.2,1.6,0.4a3,3,0,0,0,.8-1.2,5.3,5.3,0,0,0,.3-1.8V542.5h3.2v5.8h3.9v2.5h-3.9v3a4.8,4.8,0,0,1-.6,2.5,5.8,5.8,0,0,1-1.7,1.8,5.5,5.5,0,0,1,1.1,1.6,5.1,5.1,0,0,1,.4,2.1A5,5,0,0,1,246.3,564.2Zm-3.7-4.6a3.5,3.5,0,0,0-2.5-.8,3.7,3.7,0,0,0-2.5.8,2.9,2.9,0,0,0-1,2.3,2.8,2.8,0,0,0,1,2.3,3.8,3.8,0,0,0,2.5.8,3.7,3.7,0,0,0,2.5-.8,2.8,2.8,0,0,0,.9-2.3A2.9,2.9,0,0,0,242.7,559.6Z" transform="translate(-164.1 -527)"/><path class="cls-2" d="M258.9,543.3v8.3a1,1,0,0,0,.2.7,0.8,0.8,0,0,0,.6.2H265l3.3-.2,3-.6,0.7,2.5a14,14,0,0,1-3,.7l-3.7.2V560h9.3v2.6H253V560h9v-4.9H259a5.5,5.5,0,0,1-2.5-.5,2.2,2.2,0,0,1-.9-2.2v-9.2h3.2Z" transform="translate(-164.1 -527)"/><path class="cls-2" d="M289,554.3a5.8,5.8,0,0,1-3.3,1.9v3.4h0.4a16.2,16.2,0,0,0,3.9-.4,12.4,12.4,0,0,0,3.5-1.5V542.7h3.2v8.8h3.9v2.7h-3.9V565h-3.2v-4.6a11.2,11.2,0,0,1-3.2,1.3,18,18,0,0,1-4.2.4h-9.6v-2.6h6v-3.3a6,6,0,0,1-3.4-1.9,5.3,5.3,0,0,1-1-5.1,5.4,5.4,0,0,1,.7-1.4h-2.6v-2.6h6a2.1,2.1,0,0,0,.3-0.8,3.7,3.7,0,0,0,.1-0.8,4.2,4.2,0,0,0-.1-0.7l-0.2-.8,3.2-.9v1.3a4.3,4.3,0,0,1-.1,1.5,3.3,3.3,0,0,1-.5,1.1h6.5v2.6h-2.5a6.4,6.4,0,0,1,.7,1.4,4.8,4.8,0,0,1,.3,1.6A5.1,5.1,0,0,1,289,554.3Zm-2.7-5.5a2.9,2.9,0,0,0-2.2-.9,3,3,0,0,0-2.3.9,3.1,3.1,0,0,0,0,4.2,3.1,3.1,0,0,0,2.3.8,3,3,0,0,0,2.2-.8A3.2,3.2,0,0,0,286.3,548.8Z" transform="translate(-164.1 -527)"/><path class="cls-2" d="M315.6,546.9h-1.5a6.1,6.1,0,0,1,.7,1.4,4.7,4.7,0,0,1,.3,1.5,5.1,5.1,0,0,1-.4,2.1,5.2,5.2,0,0,1-1.2,1.7,5.9,5.9,0,0,1-1.9,1.1,7.2,7.2,0,0,1-2.5.4,7.6,7.6,0,0,1-2.6-.4,5.5,5.5,0,0,1-1.9-1.1,4.8,4.8,0,0,1-1.2-1.7,5.4,5.4,0,0,1-.4-2.1,5.3,5.3,0,0,1,.2-1.5,4.9,4.9,0,0,1,.7-1.4h-2v-2.5H307a2.4,2.4,0,0,0,.2-0.8,4.3,4.3,0,0,0,0-1v-0.5l-0.2-.5,3.1-.9,0.3,0.9a3.9,3.9,0,0,1,.1.8,4.3,4.3,0,0,1-.1,1l-0.3.9h6.1v2.1h2.9v-4.1h3.2v13.3h-3.2v-1.9h-3.5v-2.5h3.5V549h-3.5v-2.1Zm-4.4,1a2.7,2.7,0,0,0-2.2-.9,2.8,2.8,0,0,0-2.2.9,2.9,2.9,0,0,0,0,3.9,2.8,2.8,0,0,0,2.2.8,2.8,2.8,0,0,0,2.2-.8A2.9,2.9,0,0,0,311.2,547.9Zm11.1,8.9v9a1,1,0,0,1-.3.8,1.3,1.3,0,0,1-.8.2H309.6a4.2,4.2,0,0,1-2.6-.7,3.1,3.1,0,0,1-.8-2.5v-6.8h3.2v2.3h9.7v-2.3h3.2Zm-3.2,7.4v-2.6h-9.7v1.7a1,1,0,0,0,.2.7l0.6,0.2h8.9Z" transform="translate(-164.1 -527)"/><path class="cls-2" d="M338.6,554.3a5.8,5.8,0,0,1-3.3,1.9v3.1h0.4a15.9,15.9,0,0,0,4-.5,12.5,12.5,0,0,0,3.6-1.6V542.7h3.2V565h-3.2v-5a10.5,10.5,0,0,1-3.3,1.4,18.3,18.3,0,0,1-4.3.4h-9.6v-2.6h6v-3.1a6,6,0,0,1-3.4-1.9,5.3,5.3,0,0,1-1-5.1,5.4,5.4,0,0,1,.7-1.4h-2.6v-2.6h6a2.1,2.1,0,0,0,.3-0.8,3.7,3.7,0,0,0,.1-0.8,4.2,4.2,0,0,0-.1-0.7l-0.2-.8,3.2-.9v1.3a4.3,4.3,0,0,1-.1,1.5,3.3,3.3,0,0,1-.5,1.1h6.5v2.6h-2.5a6.4,6.4,0,0,1,.7,1.4,4.8,4.8,0,0,1,.3,1.6A5.1,5.1,0,0,1,338.6,554.3Zm-2.7-5.5a2.9,2.9,0,0,0-2.2-.9,3,3,0,0,0-2.3.9,3.1,3.1,0,0,0,0,4.2,3.1,3.1,0,0,0,2.3.8,3,3,0,0,0,2.2-.8A3.2,3.2,0,0,0,335.9,548.8Z" transform="translate(-164.1 -527)"/><path class="cls-2" d="M187.3,575.7a7.8,7.8,0,0,1,.6,1.6,7.8,7.8,0,0,1,.1,2.8,8.6,8.6,0,0,1-.3,1.2,4.1,4.1,0,0,1,3.6,1.6l1.4,1.9,1.4,2-2.2,1.9-1.5-2.1-1.1-1.6-1-1a2.9,2.9,0,0,0-1.6-.5,13.5,13.5,0,0,1-2.3,3,19.4,19.4,0,0,1-3.3,2.5l-1.7-2.4a13.5,13.5,0,0,0,4.1-3.8,7.2,7.2,0,0,0,1.3-4,4.9,4.9,0,0,0-.1-1.1,6.7,6.7,0,0,0-.4-1.1Zm12.3,0.4v11.1a3.9,3.9,0,0,1-.5,2,5.2,5.2,0,0,1-1.1,1.4,1.6,1.6,0,0,1,1.2.7,2.6,2.6,0,0,1,.3,1.6l-0.4,6.7a0.8,0.8,0,0,1-.4.7l-0.9.2H186.7a4.1,4.1,0,0,1-2.3-.5,2.4,2.4,0,0,1-.8-2.1v-7.3h11.7a2.9,2.9,0,0,0,.9-1.5,7.2,7.2,0,0,0,.3-1.9V576h3.2Zm-3.4,21.8V593h-9.4v3.8a1.2,1.2,0,0,0,.2.8,1.2,1.2,0,0,0,.9.2h8.4Z" transform="translate(-164.1 -527)"/><path class="cls-2" d="M219.7,580.6V584a7.9,7.9,0,0,1-.1,1.5,5.4,5.4,0,0,1-.5,1.4h3.2v2.6h-6.8v4.1h9.2v2.6H203.2v-2.6h9.1v-4.1h-7v-2.6h3.3a5.7,5.7,0,0,1-.5-1.3,6.7,6.7,0,0,1-.2-1.6v-3.4H211v3.7a11.7,11.7,0,0,0,.1,1.3,3.9,3.9,0,0,0,.4,1.3h4.8a4.6,4.6,0,0,0,.3-1.3q0.1-.7.1-1.3v-3.7h3.1Zm-14.4-1.1v-2.6h16.9v2.6H205.4Z" transform="translate(-164.1 -527)"/><path class="cls-2" d="M226.5,591.3l3.2-2.4a24.6,24.6,0,0,0,2.7-2.6,17,17,0,0,0,2.1-2.8,9.8,9.8,0,0,0,1.1-2.8,0.6,0.6,0,0,0-.1-0.5l-0.5-.2h-7.6v-2.7h9.5a1.7,1.7,0,0,1,1.6.8,3.2,3.2,0,0,1,.3,1.9,10,10,0,0,1-.8,2.9,18.4,18.4,0,0,1-1.7,3,4.7,4.7,0,0,1,1.6.5,5,5,0,0,1,1.2,1l1.5,2.1,1.6,2.4-2.2,1.7-1.7-2.5-1.4-2a3.2,3.2,0,0,0-1-.8l-1.2-.4a31.3,31.3,0,0,1-3.1,3.1,37.9,37.9,0,0,1-3.6,2.7Zm17.8,7.4V576.3h3.2v22.3h-3.2Z" transform="translate(-164.1 -527)"/><path class="cls-2" d="M272.3,590h-9.4v1.6h5a1.7,1.7,0,0,1,1.4.5,2.5,2.5,0,0,1,.4,1.8l-0.4,5.5a1,1,0,0,1-.4.7l-0.8.2H256.8a4.9,4.9,0,0,1-2.4-.6,2.2,2.2,0,0,1-1-2.2v-6.1h6.3V590h-8.9v-2.5h21.6V590Zm-4.9-7.1a5.1,5.1,0,0,1-1.4,1.7,6.6,6.6,0,0,1-2.1,1,9.4,9.4,0,0,1-2.5.3,9.7,9.7,0,0,1-2.6-.3,6.6,6.6,0,0,1-2.1-1,4.8,4.8,0,0,1-1.5-1.7,5.5,5.5,0,0,1,0-4.7,4.8,4.8,0,0,1,1.5-1.7,6.8,6.8,0,0,1,2.1-1,9.4,9.4,0,0,1,2.6-.3,9.2,9.2,0,0,1,2.6.3,6.8,6.8,0,0,1,2.1,1,4.8,4.8,0,0,1,2,4A4.9,4.9,0,0,1,267.5,582.9Zm-1.1,15v-3.7h-9.8V597a1,1,0,0,0,.2.7l0.6,0.2h9Zm-2.6-19.4a3.9,3.9,0,0,0-2.5-.8,4,4,0,0,0-2.5.8,2.7,2.7,0,0,0,0,4.2,4.1,4.1,0,0,0,2.5.8,3.9,3.9,0,0,0,2.5-.8A2.8,2.8,0,0,0,263.8,578.5Z" transform="translate(-164.1 -527)"/><line class="cls-3" y1="0.1" x2="311.8" y2="0.1"/><line class="cls-4" y1="88" x2="311.8" y2="88"/><path class="cls-5" d="M332,657.1l-0.3.5a4.5,4.5,0,0,1-2.1-2.8,5.2,5.2,0,0,1-2.2,3l-0.4-.5a4.7,4.7,0,0,0,2.2-4.4v-1.2h0.6v1.2A4.4,4.4,0,0,0,332,657.1Zm2.6-2h-1.2v4.1h-0.6v-7.9h0.6v3.3h1.2v0.6Z" transform="translate(-164.1 -527)"/><path class="cls-5" d="M340.3,657.8h-5.5v-0.5h2.4v-0.9h0.6v0.9h2.5v0.5Zm-0.6-4.6h-4.5v-0.5h4.5v0.5Zm-0.3,1.7c0,0.7-.8,1.3-1.9,1.3s-1.9-.5-1.9-1.3a1.6,1.6,0,0,1,1.9-1.3A1.7,1.7,0,0,1,339.5,654.9Zm-0.6,0a1.5,1.5,0,1,0-1.3.8C338.3,655.7,338.9,655.4,338.9,654.9Zm-0.2-2.9h-2.2v-0.5h2.2V652Zm2.6,7.1h-0.6v-7.9h0.6v7.9Z" transform="translate(-164.1 -527)"/><path class="cls-5" d="M346.6,653.8h-0.9v-0.9h0.9v0.9Zm0,4h-0.9v-0.9h0.9v0.9Z" transform="translate(-164.1 -527)"/><path class="cls-5" d="M355.3,654.4c0,2.4-1.1,3.2-2.1,3.2s-2.1-.9-2.1-3.2,1.2-3.2,2.1-3.2S355.3,652,355.3,654.4Zm-0.9,0c0-1.3-.4-2.4-1.2-2.4s-1.2,1-1.2,2.4,0.5,2.4,1.2,2.4S354.4,655.7,354.4,654.4Zm3.5,4.9H357v-8.8h0.9v8.8Z" transform="translate(-164.1 -527)"/><path class="cls-5" d="M367.1,656.3H365v3h-0.9v-3h-2.1v2.9H361v-2.9h-2.1v-0.8h8.2v0.8Zm-1-3.8c0,1.2-1.2,1.9-3.1,1.9s-3.1-.8-3.1-1.9,1.2-1.9,3.1-1.9S366.1,651.4,366.1,652.5Zm-1,0c0-.7-0.9-1.2-2.1-1.2s-2.2.4-2.2,1.2,0.9,1.2,2.2,1.2S365.1,653.2,365.1,652.5Z" transform="translate(-164.1 -527)"/><path class="cls-5" d="M372,655.3H368V651H372v4.2Zm-0.9-.8v-2.6h-2.2v2.6h2.2Zm3.8,4.6H369v-2.8h0.9v2h5v0.8Zm-0.2-2.2h-0.9v-6.4h0.9v6.4Z" transform="translate(-164.1 -527)"/><path class="cls-5" d="M380.1,659.4h-0.4a6.6,6.6,0,0,1,0-8.6h0.4A7.7,7.7,0,0,0,380.1,659.4Z" transform="translate(-164.1 -527)"/><path class="cls-5" d="M385.3,653h-4.6v-0.5h4.6V653Zm-0.4,1.9c0,0.8-.8,1.4-2,1.4s-2-.6-2-1.4,0.8-1.4,2-1.4S384.9,654.1,384.9,654.9Zm-0.6,0a1.4,1.4,0,1,0-1.3.9A1.1,1.1,0,0,0,384.3,654.9ZM387,659h-5.2v-2.2h0.6v1.7H387V659Zm-2.9-7.2h-2.3v-0.5h2.3v0.5Zm3.8,2.5h-1.1v2.8h-0.6v-5.9h0.6v2.5h1.1v0.5Z" transform="translate(-164.1 -527)"/><path class="cls-5" d="M395.3,655h-3.5v1.7h2.5v2.5h-0.6v-1.9h-4.8v-0.5h2.4V655h-3.2v-0.5h5.6a19,19,0,0,0,.2-2.3h-4.9v-0.5h5.6a23.1,23.1,0,0,1-.3,2.9h1.1V655Z" transform="translate(-164.1 -527)"/><path class="cls-5" d="M400.5,652.9h-4.6v-0.5h4.6v0.5Zm-0.3,1.7c0,0.8-.8,1.3-2,1.3s-2-.5-2-1.3,0.8-1.3,2-1.3S400.1,653.9,400.1,654.6Zm2,3.2c0,0.8-.9,1.4-2.7,1.4s-2.7-.6-2.7-1.5,0.9-1.4,2.7-1.4S402.1,657,402.1,657.9Zm-2.6-3.2c0-.5-0.5-0.8-1.3-0.8s-1.3.3-1.3,0.8,0.5,0.8,1.3.8S399.5,655.1,399.5,654.6Zm-0.2-2.9H397v-0.5h2.3v0.5Zm2.2,6.1c0-.6-0.8-0.9-2-0.9s-2,.4-2,0.9,0.7,1,2,1S401.4,658.4,401.4,657.9Zm1.6-4h-1.1v2.3h-0.6v-5h0.6v2.2H403v0.5Z" transform="translate(-164.1 -527)"/><path class="cls-5" d="M410.4,658.1h-7.3v-0.5h3.3v-1.8h0.6v1.8h3.4v0.5Zm-0.9-2.7h-5.5v-3.7h0.6v3.2h4.8v0.5Z" transform="translate(-164.1 -527)"/><path class="cls-5" d="M416.1,657.8h-5.3v-0.5h2.3v-0.9h0.6v0.9h2.4v0.5Zm-0.5-4.6h-4.4v-0.5h4.4v0.5Zm-0.3,1.7c0,0.7-.8,1.3-1.9,1.3s-1.8-.5-1.8-1.3a1.6,1.6,0,0,1,1.8-1.3A1.7,1.7,0,0,1,415.3,654.9Zm-0.6,0a1.4,1.4,0,1,0-1.3.8C414.2,655.7,414.7,655.4,414.7,654.9Zm-0.2-2.9h-2.2v-0.5h2.2V652Zm3.7,3.3h-1.1v3.8h-0.6v-7.9h0.6v3.6h1.1v0.6Z" transform="translate(-164.1 -527)"/><path class="cls-5" d="M423.1,652.9h-4.5v-0.5h4.5v0.5Zm-0.3,1.7c0,0.7-.7,1.2-1.9,1.2s-1.9-.5-1.9-1.2,0.7-1.2,1.9-1.2S422.8,653.9,422.8,654.5Zm-0.6,0c0-.4-0.4-0.7-1.3-0.7s-1.3.3-1.3,0.7,0.5,0.7,1.3.7S422.1,655,422.1,654.5Zm-0.2-2.8h-2.2v-0.5h2.2v0.5Zm3,7.3h-5.2v-2.9h0.6V657h4v-0.9H425v2.9Zm-0.6-.5v-1h-4v1h4Zm0.6-2.9h-0.6v-0.8H423v-0.5h1.3v-0.8h-1.3V653h1.3v-1.8H425v4.5Z" transform="translate(-164.1 -527)"/><path class="cls-5" d="M431.5,657.8h-5.5v-0.5h2.4v-0.9h0.6v0.9h2.5v0.5Zm-0.6-4.6h-4.5v-0.5H431v0.5Zm-0.3,1.7c0,0.7-.8,1.3-1.9,1.3s-1.9-.5-1.9-1.3a1.6,1.6,0,0,1,1.9-1.3A1.7,1.7,0,0,1,430.7,654.9Zm-0.6,0a1.5,1.5,0,1,0-1.3.8C429.5,655.7,430.1,655.4,430.1,654.9Zm-0.2-2.9h-2.2v-0.5h2.2V652Zm2.6,7.1h-0.6v-7.9h0.6v7.9Z" transform="translate(-164.1 -527)"/><path class="cls-5" d="M440.1,652.1a6.6,6.6,0,0,1-1,3.4,6.1,6.1,0,0,1-2.5,2.2l-0.3-.5a6,6,0,0,0,2.4-2.2,5.4,5.4,0,0,0,.7-2.4h-2.8v-0.5h3.5Zm2.4,7h-0.6v-7.9h0.6v7.9Z" transform="translate(-164.1 -527)"/><path class="cls-5" d="M449.2,656.3h-5.6v-0.5h2.4v-0.6c-0.9-.1-1.6-0.4-1.6-1s0.8-1.1,1.9-1.1,1.9,0.5,1.9,1.1-0.7.9-1.6,1v0.6h2.5v0.5Zm-0.6-3.6h-4.5v-0.5h4.5v0.5Zm1.5,6.4h-0.6v-1.6h-4.7v-0.5h5.4v2.1Zm-2.4-4.9c0-.4-0.5-0.6-1.3-0.6s-1.3.2-1.3,0.6,0.5,0.6,1.3.6S447.7,654.6,447.7,654.2Zm-0.2-2.5h-2.1v-0.5h2.1v0.5Zm2.7,5h-0.6v-5.5h0.6v5.5Z" transform="translate(-164.1 -527)"/><path class="cls-5" d="M456.8,656.1H454V659h-0.6v-2.8h-2.2v-0.5h5.5v0.5Zm-1.1-3a2,2,0,0,1-3.9,0A2,2,0,0,1,455.8,653.1Zm-0.6,0a1.4,1.4,0,1,0-1.4,1.2A1.2,1.2,0,0,0,455.2,653.1Zm2.5,6.1h-0.6v-7.9h0.6v7.9Z" transform="translate(-164.1 -527)"/><path class="cls-5" d="M464.4,655.1h-2.9v1.6h-0.6v-1.6h-2.1v-0.5h5.6v0.5Zm-1-2.5c0,0.8-.8,1.4-2,1.4s-2-.6-2-1.4,0.8-1.4,2-1.4S463.4,651.8,463.4,652.6Zm-0.6,0a1.5,1.5,0,1,0-1.4.9A1.1,1.1,0,0,0,462.8,652.6Zm2.7,6.4h-5.4v-2h0.6v1.4h4.8V659Zm-0.2-1.6h-0.6v-1h-2v-0.5h2v-4.7h0.6v6.2Z" transform="translate(-164.1 -527)"/><path class="cls-5" d="M471.1,655l-0.3.5a3.5,3.5,0,0,1-2.1-1.9,4.3,4.3,0,0,1-2.1,2.1l-0.3-.5a3.3,3.3,0,0,0,2.2-2.8v-0.2h-1.7v-0.5h4v0.5H469v0.2A2.8,2.8,0,0,0,471.1,655Zm1.8,2.7c0,0.9-1,1.5-2.7,1.5s-2.7-.7-2.7-1.5,0.9-1.5,2.7-1.5S472.8,656.9,472.8,657.7Zm-0.6,0c0-.6-0.8-1-2.1-1s-2.1.4-2.1,1,0.8,1,2.1,1S472.2,658.4,472.2,657.8Zm1.5-3.9h-1.1V656H472v-4.8h0.6v2.1h1.1v0.6Z" transform="translate(-164.1 -527)"/><path class="cls-5" d="M475.6,655.1a6.1,6.1,0,0,1-1.6,4.3h-0.4a7.7,7.7,0,0,0,0-8.6H474A6.1,6.1,0,0,1,475.6,655.1Z" transform="translate(-164.1 -527)"/><path class="cls-5" d="M367.6,690.2h-0.4a6.6,6.6,0,0,1,0-8.6h0.4A7.7,7.7,0,0,0,367.6,690.2Z" transform="translate(-164.1 -527)"/><path class="cls-5" d="M372.8,687.8l-0.3.5a4.5,4.5,0,0,1-2.1-2.8,5.2,5.2,0,0,1-2.2,3l-0.4-.5a4.7,4.7,0,0,0,2.2-4.4v-1.2h0.6v1.2A4.4,4.4,0,0,0,372.8,687.8Zm2.6-2h-1.2v4.1h-0.6V682h0.6v3.3h1.2v0.6Z" transform="translate(-164.1 -527)"/><path class="cls-5" d="M377.4,685.9a6.1,6.1,0,0,1-1.6,4.3h-0.4a7.7,7.7,0,0,0,0-8.6h0.4A6.1,6.1,0,0,1,377.4,685.9Z" transform="translate(-164.1 -527)"/><path class="cls-5" d="M382.6,683.8H378v-0.5h4.6v0.5Zm-0.4,1.9c0,0.8-.8,1.4-2,1.4s-2-.6-2-1.4,0.8-1.4,2-1.4S382.2,684.9,382.2,685.6Zm-0.6,0a1.4,1.4,0,1,0-1.3.9A1.1,1.1,0,0,0,381.6,685.6Zm2.7,4.1h-5.2v-2.2h0.6v1.7h4.6v0.5Zm-2.9-7.2h-2.3V682h2.3v0.5Zm3.8,2.5h-1.1v2.8h-0.6V682h0.6v2.5h1.1V685Z" transform="translate(-164.1 -527)"/><path class="cls-5" d="M392.6,685.8h-3.5v1.7h2.5v2.5H391V688h-4.8v-0.5h2.4v-1.7h-3.2v-0.5h5.6a19,19,0,0,0,.2-2.3h-4.9v-0.5h5.6a23.1,23.1,0,0,1-.3,2.9h1.1v0.5Z" transform="translate(-164.1 -527)"/><path class="cls-5" d="M397.8,683.7h-4.6v-0.5h4.6v0.5Zm-0.3,1.7c0,0.8-.8,1.3-2,1.3s-2-.5-2-1.3,0.8-1.3,2-1.3S397.4,684.7,397.4,685.4Zm2,3.2c0,0.8-.9,1.4-2.7,1.4s-2.7-.6-2.7-1.5,0.9-1.4,2.7-1.4S399.4,687.8,399.4,688.6Zm-2.6-3.2c0-.5-0.5-0.8-1.3-0.8s-1.3.3-1.3,0.8,0.5,0.8,1.3.8S396.8,685.9,396.8,685.4Zm-0.2-2.9h-2.3V682h2.3v0.5Zm2.2,6.1c0-.6-0.8-0.9-2-0.9s-2,.4-2,0.9,0.7,1,2,1S398.7,689.2,398.7,688.6Zm1.6-4h-1.1V687h-0.6v-5h0.6v2.2h1.1v0.5Z" transform="translate(-164.1 -527)"/><path class="cls-5" d="M407.7,688.8h-7.3v-0.5h3.3v-1.8h0.6v1.8h3.4v0.5Zm-0.9-2.7h-5.5v-3.7H402v3.2h4.8v0.5Z" transform="translate(-164.1 -527)"/><path class="cls-5" d="M413.4,688.6h-5.3v-0.5h2.3v-0.9H411v0.9h2.4v0.5Zm-0.5-4.6h-4.4v-0.5h4.4V684Zm-0.3,1.7c0,0.7-.8,1.3-1.9,1.3s-1.8-.5-1.8-1.3a1.6,1.6,0,0,1,1.8-1.3A1.7,1.7,0,0,1,412.6,685.7Zm-0.6,0a1.4,1.4,0,1,0-1.3.8C411.5,686.5,412,686.2,412,685.7Zm-0.2-2.9h-2.2v-0.5h2.2v0.5Zm3.7,3.3h-1.1v3.8h-0.6V682h0.6v3.6h1.1v0.6Z" transform="translate(-164.1 -527)"/><path class="cls-5" d="M420.4,683.6h-4.5v-0.5h4.5v0.5Zm-0.3,1.7c0,0.7-.7,1.2-1.9,1.2s-1.9-.5-1.9-1.2,0.7-1.2,1.9-1.2S420,684.6,420,685.3Zm-0.6,0c0-.4-0.4-0.7-1.3-0.7s-1.3.3-1.3,0.7,0.5,0.7,1.3.7S419.4,685.7,419.4,685.3Zm-0.2-2.8H417V682h2.2v0.5Zm3,7.3h-5.2v-2.9h0.6v0.9h4v-0.9h0.6v2.9Zm-0.6-.5v-1h-4v1h4Zm0.6-2.9h-0.6v-0.8h-1.3v-0.5h1.3v-0.8h-1.3v-0.5h1.3V682h0.6v4.5Z" transform="translate(-164.1 -527)"/><path class="cls-5" d="M428.8,688.6h-5.5v-0.5h2.4v-0.9h0.6v0.9h2.5v0.5Zm-0.6-4.6h-4.5v-0.5h4.5V684Zm-0.3,1.7c0,0.7-.8,1.3-1.9,1.3s-1.9-.5-1.9-1.3a1.6,1.6,0,0,1,1.9-1.3A1.7,1.7,0,0,1,428,685.7Zm-0.6,0a1.5,1.5,0,1,0-1.3.8C426.8,686.5,427.4,686.2,427.4,685.7Zm-0.2-2.9h-2.2v-0.5h2.2v0.5Zm2.6,7.1h-0.6V682h0.6v7.9Z" transform="translate(-164.1 -527)"/><path class="cls-5" d="M438.8,688.6h-5.5v-0.5h2.4v-0.9h0.6v0.9h2.5v0.5Zm-0.6-4.6h-4.5v-0.5h4.5V684Zm-0.3,1.7c0,0.7-.8,1.3-1.9,1.3s-1.9-.5-1.9-1.3a1.6,1.6,0,0,1,1.9-1.3A1.7,1.7,0,0,1,437.9,685.7Zm-0.6,0a1.5,1.5,0,1,0-1.3.8C436.8,686.5,437.3,686.2,437.3,685.7Zm-0.2-2.9h-2.2v-0.5h2.2v0.5Zm2.6,7.1h-0.6V682h0.6v7.9Z" transform="translate(-164.1 -527)"/><path class="cls-5" d="M445.6,685.8l-0.3.5a3.5,3.5,0,0,1-2.1-1.9,4.3,4.3,0,0,1-2.1,2.1l-0.3-.5a3.3,3.3,0,0,0,2.2-2.8V683h-1.7v-0.5h4V683h-1.7v0.2A2.8,2.8,0,0,0,445.6,685.8Zm1.8,2.7c0,0.9-1,1.5-2.7,1.5s-2.7-.7-2.7-1.5,0.9-1.5,2.7-1.5S447.4,687.6,447.4,688.5Zm-0.6,0c0-.6-0.8-1-2.1-1s-2.1.4-2.1,1,0.8,1,2.1,1S446.8,689.1,446.8,688.5Zm1.5-3.9h-1.1v2.2h-0.6V682h0.6V684h1.1v0.6Z" transform="translate(-164.1 -527)"/><path class="cls-5" d="M458.8,686.4h-2.2v1.8h-0.9v-1.8h-1.5v1.8h-0.9v-1.8h-2.6v-0.8h8.2v0.8Zm-0.8,3.4h-6.3v-2.5h0.9V689H458v0.8Zm-0.2-6.8c0,1.1-1,1.8-3,1.8s-3.1-.7-3.1-1.8,1.1-1.8,3.1-1.8S457.8,682,457.8,683.1Zm-1,0c0-.6-0.7-1.1-2.1-1.1s-2.1.4-2.1,1.1,0.7,1.1,2.1,1.1S456.8,683.7,456.8,683.1Z" transform="translate(-164.1 -527)"/><path class="cls-5" d="M463.9,681.8a4.8,4.8,0,0,1-4.2,4.7l-0.3-.7c1.5-.4,3.1-1.2,3.4-3.1H460v-0.8h4Zm2.8,6.6c0,1.1-1,1.8-3,1.8s-3-.7-3-1.8,1.2-1.8,3-1.8S466.7,687.3,466.7,688.4Zm-0.9,0c0-.7-1-1-2.1-1s-2.1.3-2.1,1,1,1,2.1,1S465.8,689.2,465.8,688.4Zm0.8-1.9h-0.9v-1.1h-1.6v-0.8h1.6v-1h-1.4v-0.8h1.4v-1.4h0.9v5.3Z" transform="translate(-164.1 -527)"/><path class="cls-5" d="M475.7,686.4h-3.5v1.9h-0.9v-1.9h-3.7v-0.8h8.2v0.8Zm-0.5-2.1-0.4.7a4.8,4.8,0,0,1-3.2-2.1,4.8,4.8,0,0,1-3.2,2.1l-0.4-.7c1.8-.3,3.1-1.5,3.1-2.7v-0.3h1v0.3C472.1,682.8,473.4,683.9,475.1,684.2Zm-0.3,5.6h-6.2v-2.5h0.9V689h5.3v0.8Z" transform="translate(-164.1 -527)"/><path class="cls-5" d="M370.3,711.6H365v-0.5h2.3v-1.8h0.6v1.8h2.4v0.5Zm-0.5-2.5-0.3.5a3.6,3.6,0,0,1-1.9-1.9,4.1,4.1,0,0,1-2.1,2l-0.4-.5c0.9-.4,2.1-1.3,2.1-2.5v-0.2h-1.7v-0.5h4v0.5H368v0.2A2.8,2.8,0,0,0,369.9,709.1Zm2.6,0.2h-1.1v3.9h-0.6v-7.9h0.6v3.5h1.1v0.6Z" transform="translate(-164.1 -527)"/><path class="cls-5" d="M377.5,709l-0.3.5a3.5,3.5,0,0,1-2.1-1.9,4.3,4.3,0,0,1-2.1,2.1l-0.3-.5a3.3,3.3,0,0,0,2.2-2.8v-0.2h-1.7v-0.5h4v0.5h-1.7v0.2A2.8,2.8,0,0,0,377.5,709Zm1.8,2.7c0,0.9-1,1.5-2.7,1.5s-2.7-.7-2.7-1.5,0.9-1.5,2.7-1.5S379.2,710.8,379.2,711.7Zm-0.6,0c0-.6-0.8-1-2.1-1s-2.1.4-2.1,1,0.8,1,2.1,1S378.6,712.3,378.6,711.7Zm1.5-3.9H379V710h-0.6v-4.8H379v2.1h1.1v0.6Z" transform="translate(-164.1 -527)"/><path class="cls-5" d="M384.5,707.7h-0.9v-0.9h0.9v0.9Zm0,4h-0.9v-0.9h0.9v0.9Z" transform="translate(-164.1 -527)"/><path class="cls-5" d="M393.4,705a4.8,4.8,0,0,1-4.2,4.6l-0.2-.7c1.5-.4,3.1-1.2,3.4-3.1h-2.9V705h4Zm2.5,8.1h-5.7v-3.3h5.7v3.3Zm-0.9-.8v-1.6h-3.8v1.6h3.8Zm0.9-2.9H395v-5h0.9v5Z" transform="translate(-164.1 -527)"/><path class="cls-5" d="M402,706.6h-4.9v-0.8H402v0.8Zm-0.3,2c0,0.9-.7,1.5-2.1,1.5s-2.1-.7-2.1-1.5,0.8-1.5,2.1-1.5S401.7,707.8,401.7,708.6Zm-1-3.4h-2.3v-0.8h2.3v0.8Zm3.7,7.9h-5.9v-2.5h0.9v1.6h5v0.8Zm-3.7-4.5c0-.5-0.3-0.8-1.1-0.8s-1.1.3-1.1,0.8,0.3,0.8,1.1.8S400.8,709.1,400.8,708.6Zm3.5,2.3h-0.9v-1.6h-1.3v-0.8h1.3v-1h-1.2v-0.8h1.2v-2.2h0.9v6.5Z" transform="translate(-164.1 -527)"/><path class="cls-5" d="M413.4,709.7h-3.5v1.8H409v-1.8h-3.8v-0.8h8.2v0.8Zm-0.6-2-0.4.7a5,5,0,0,1-3.1-1.9,4.8,4.8,0,0,1-3.1,1.9l-0.4-.7c1.2-.2,2.8-1.1,3-2.1h-2.6v-0.8h6.1v0.8h-2.6C410,706.6,411.8,707.5,412.8,707.6Zm-0.2,5.4h-6.2v-2.4h0.9v1.6h5.3v0.8Z" transform="translate(-164.1 -527)"/><path class="cls-5" d="M418,713.4h-0.4a6.6,6.6,0,0,1,0-8.6H418A7.7,7.7,0,0,0,418,713.4Z" transform="translate(-164.1 -527)"/><path class="cls-5" d="M422.6,705.8a4,4,0,0,1-1.6,3,5.7,5.7,0,0,1-2.3,1.1l-0.2-.5a5.8,5.8,0,0,0,2.2-1.1,3,3,0,0,0,1.1-1.9H419v-0.5h3.6Zm2.5,5.9c0,0.8-.9,1.6-2.7,1.6s-2.7-.7-2.7-1.6,1.1-1.6,2.7-1.6S425.1,710.8,425.1,711.7Zm-0.6,0c0-.8-1.1-1.1-2.1-1.1s-2.1.4-2.1,1.1,1.1,1.1,2.1,1.1S424.5,712.4,424.5,711.7ZM425,710h-0.6v-1.2h-1.6v-0.5h1.6v-1.1h-1.5v-0.5h1.5v-1.4H425V710Z" transform="translate(-164.1 -527)"/><path class="cls-5" d="M430.9,708.8a33.4,33.4,0,0,1-4.6.2v-3.4h0.6v2.9l4-.2v0.5Zm1.2,4.3h-5v-3h5v3Zm-0.6-.5v-1.9h-3.8v1.9h3.8Zm1.7-4.9h-1.1v2h-0.6v-4.5h0.6V707h1.1v0.5Z" transform="translate(-164.1 -527)"/><path class="cls-5" d="M437.4,711.2h-3.3v-5.1h2.7v0.5h-2.1v4h2.7v0.5Zm2.7,1.9h-0.6V709h-1.2v3.8h-0.6v-7.4h0.6v3.1h1.2v-3.2h0.6v7.9Z" transform="translate(-164.1 -527)"/><path class="cls-5" d="M445.9,706.9h-4.6v-0.5h4.6v0.5Zm-0.4,1.8c0,0.8-.7,1.3-2,1.3s-2-.5-2-1.3,0.8-1.3,2-1.3S445.5,708,445.5,708.7Zm1.8,4.4h-0.6v-1.9h-4.7v-0.5h5.3v2.4Zm-2.5-4.4c0-.5-0.5-0.8-1.3-0.8s-1.3.3-1.3,0.8,0.5,0.8,1.3.8S444.9,709.2,444.9,708.7Zm-0.2-3h-2.3v-0.5h2.3v0.5Zm3.8,2.3h-1.1v2.2h-0.6v-5.1h0.6v2.4h1.1v0.5Z" transform="translate(-164.1 -527)"/><path class="cls-5" d="M455.9,712h-7.3v-0.5h1.9v-2.9H451v2.9h1.6v-2.9h0.6v2.9h2.7V712Zm-0.9-5.9a31.9,31.9,0,0,1-.3,4.4h-0.6a33.8,33.8,0,0,0,.2-3.9h-4.9v-0.5H455Z" transform="translate(-164.1 -527)"/><path class="cls-5" d="M465.9,712h-7.3v-0.5h1.9v-2.9H461v2.9h1.6v-2.9h0.6v2.9h2.7V712Zm-0.9-5.9a31.9,31.9,0,0,1-.3,4.4h-0.6a33.8,33.8,0,0,0,.2-3.9h-4.9v-0.5H465Z" transform="translate(-164.1 -527)"/><path class="cls-5" d="M473.4,710.1h-3.4v3h-0.6v-3h-3.4v-0.5h7.3v0.5Zm-0.5-1.9-0.2.5a4.3,4.3,0,0,1-2.9-2.1,4.4,4.4,0,0,1-2.9,2.1l-0.2-.5c1.7-.4,2.9-1.5,2.9-2.6v-0.3h0.6v0.3C470.1,706.8,471.4,707.9,473,708.2Z" transform="translate(-164.1 -527)"/><path class="cls-5" d="M475.6,709.1a6.1,6.1,0,0,1-1.6,4.3h-0.4a7.7,7.7,0,0,0,0-8.6H474A6.1,6.1,0,0,1,475.6,709.1Z" transform="translate(-164.1 -527)"/><path class="cls-5" d="M342.3,741.6h-4.6v-0.5h4.6v0.5Zm-0.4,1.9c0,0.8-.8,1.4-2,1.4s-2-.6-2-1.4,0.8-1.4,2-1.4S342,742.8,342,743.5Zm-0.6,0a1.4,1.4,0,1,0-1.3.9A1.1,1.1,0,0,0,341.3,743.5Zm2.7,4.1h-5.2v-2.2h0.6v1.7H344v0.5Zm-2.9-7.2h-2.3v-0.5h2.3v0.5Zm3.8,2.5h-1.1v2.8h-0.6v-5.9h0.6v2.5h1.1v0.5Z" transform="translate(-164.1 -527)"/><path class="cls-5" d="M352.3,743.6h-3.5v1.7h2.5v2.5h-0.6v-1.9h-4.8v-0.5h2.4v-1.7H345v-0.5h5.6a19,19,0,0,0,.2-2.3h-4.9v-0.5h5.6a23.1,23.1,0,0,1-.3,2.9h1.1v0.5Z" transform="translate(-164.1 -527)"/><path class="cls-5" d="M362.3,746.7h-7.3v-0.5h3.3v-1.5h0.6v1.5h3.4v0.5Zm-1-2.3h-5.3v-4.1h0.6v1.4h4.1v-1.4h0.6v4.1Zm-0.6-.5v-1.6h-4.1v1.6h4.1Z" transform="translate(-164.1 -527)"/><path class="cls-5" d="M366.8,740.4a4.6,4.6,0,0,1-1.4,3,6.3,6.3,0,0,1-2.4,1.4l-0.2-.5a6.5,6.5,0,0,0,2.2-1.3,3.3,3.3,0,0,0,1.1-2.1h-2.8v-0.5h3.6Zm2.6,7.2H364v-2.5h0.6v1.9h4.8v0.5Zm-0.2-2h-0.6V743H367v-0.5h1.6v-2.6h0.6v5.8Z" transform="translate(-164.1 -527)"/><path class="cls-5" d="M375,744l-0.3.5a4.5,4.5,0,0,1-2.1-2.3,4.5,4.5,0,0,1-2.2,2.5l-0.4-.5a3.9,3.9,0,0,0,2.2-3.5v-0.7h0.6v0.7A3.5,3.5,0,0,0,375,744Zm1.8,3.6h-5.2v-2.5h0.6v1.9h4.6v0.5Zm0.8-4.7h-1.1v2.7h-0.6v-5.8h0.6v2.5h1.1v0.5Z" transform="translate(-164.1 -527)"/><path class="cls-5" d="M381.9,741.9a2,2,0,1,1-2-1.8A1.9,1.9,0,0,1,381.9,741.9Zm-0.6,0a1.3,1.3,0,0,0-2.7,0A1.3,1.3,0,0,0,381.3,741.9Zm3,5.8h-5.1v-3.2h0.6v1h3.9v-1h0.6v3.2Zm-0.6-.5V746h-3.9v1.2h3.9Zm0.6-3.1h-0.6v-1.9h-1.5v-0.5h1.5v-1.8h0.6v4.2Z" transform="translate(-164.1 -527)"/><path class="cls-5" d="M390.2,743.9l-0.3.5a4.2,4.2,0,0,1-2-2,4.2,4.2,0,0,1-2.1,2.2l-0.3-.5a3.4,3.4,0,0,0,2.2-3v-0.3h-1.7v-0.5h4v0.5h-1.7v0.3A3.1,3.1,0,0,0,390.2,743.9Zm2.1,3.7h-5.4v-2.5h0.6v2h4.8v0.5Zm-0.2-2h-0.6v-5.8h0.6v5.8Z" transform="translate(-164.1 -527)"/><path class="cls-5" d="M400.2,744.8h-7.3v-0.5h7.3v0.5Zm-0.7-3.4h-6v-0.5h6v0.5Zm-0.2,5.2c0,0.8-1,1.3-2.8,1.3s-2.9-.6-2.9-1.3,1-1.3,2.9-1.3S399.3,745.9,399.3,746.6Zm-0.3-3.9c0,0.6-1,1-2.5,1s-2.5-.4-2.5-1,1-1,2.5-1S399,742.2,399,742.8Zm-0.4,3.9c0-.5-0.8-0.8-2.2-0.8s-2.2.3-2.2,0.8,0.7,0.8,2.2.8S398.6,747.1,398.6,746.6Zm-0.3-3.9c0-.4-0.8-0.5-1.8-0.5s-1.8.2-1.8,0.5,0.7,0.5,1.8.5S398.3,743.1,398.3,742.8Zm-0.4-2.5h-2.8v-0.5h2.8v0.5Z" transform="translate(-164.1 -527)"/><path class="cls-5" d="M406.3,743.7h-2.9v1.6h-0.6v-1.6h-2.1v-0.5h5.6v0.5Zm-1-2.5c0,0.8-.8,1.4-2,1.4s-2-.6-2-1.4,0.8-1.4,2-1.4S405.2,740.5,405.2,741.2Zm-0.6,0a1.5,1.5,0,1,0-1.4.9A1.1,1.1,0,0,0,404.6,741.2Zm2.7,6.4H402v-2h0.6v1.4h4.8v0.5Zm-0.2-1.6h-0.6v-1h-2v-0.5h2v-4.7h0.6V746Z" transform="translate(-164.1 -527)"/><path class="cls-5" d="M417.7,744.8h-3.4v3h-0.6v-3h-3.4v-0.5h7.3v0.5Zm-0.5-1.9-0.2.5a4.3,4.3,0,0,1-2.9-2.1,4.4,4.4,0,0,1-2.9,2.1l-0.2-.5c1.7-.4,2.9-1.5,2.9-2.6V740h0.6v0.3C414.4,741.5,415.7,742.5,417.2,742.9Z" transform="translate(-164.1 -527)"/><path class="cls-5" d="M423,743.7l-0.3.5a4.2,4.2,0,0,1-2.1-2.1,4.6,4.6,0,0,1-2.2,2.3l-0.3-.5a3.7,3.7,0,0,0,2.2-3.2v-0.7h0.6v0.8A3.3,3.3,0,0,0,423,743.7Zm1.6,4h-0.6v-2.2h-4.7v-0.5h5.3v2.7Zm0-3.2h-0.6v-2.5h-1.7v-0.5h1.7v-1.7h0.6v4.7Z" transform="translate(-164.1 -527)"/><path class="cls-5" d="M430,742.1a2,2,0,1,1-2-2A2,2,0,0,1,430,742.1Zm-0.6,0a1.4,1.4,0,1,0-2.8,0A1.4,1.4,0,1,0,429.3,742.1Zm3.1,5.5h-5.4v-2.5h0.6v2h4.7v0.5Zm-0.2-2h-0.6v-2.4h-1.5v-0.5h1.5v-1.1h-1.5V741h1.5v-1.2h0.6v5.8Z" transform="translate(-164.1 -527)"/><path class="cls-5" d="M440.4,744.3h-3.5v3.5h-0.6v-3.5h-3.2v-0.5h5.5a24.1,24.1,0,0,0,.3-2.9h-4.9v-0.5h5.6a26.3,26.3,0,0,1-.4,3.4h1.2v0.5Z" transform="translate(-164.1 -527)"/><path class="cls-5" d="M446.5,743.7h-2.9v1.6h-0.6v-1.6h-2.1v-0.5h5.6v0.5Zm-1-2.5c0,0.8-.8,1.4-2,1.4s-2-.6-2-1.4,0.8-1.4,2-1.4S445.5,740.5,445.5,741.2Zm-0.6,0a1.5,1.5,0,1,0-1.4.9A1.1,1.1,0,0,0,444.9,741.2Zm2.7,6.4h-5.4v-2h0.6v1.4h4.8v0.5Zm-0.2-1.6h-0.6v-1h-2v-0.5h2v-4.7h0.6V746Z" transform="translate(-164.1 -527)"/><path class="cls-5" d="M455.7,739.7a4.8,4.8,0,0,1-4.2,4.6l-0.2-.7c1.5-.3,3.1-1.2,3.4-3.1h-2.9v-0.8h4Zm2.5,8.1h-5.7v-3.3h5.7v3.3Zm-0.9-.8v-1.6h-3.8V747h3.8Zm0.9-2.9h-0.9v-5h0.9v5Z" transform="translate(-164.1 -527)"/><path class="cls-5" d="M467.2,744.9h-3.6v3h-0.9v-3h-3.6v-0.8h8.2v0.8Zm-1-3.8c0,1.2-1.2,1.9-3.1,1.9s-3.1-.8-3.1-1.9,1.2-1.9,3.1-1.9S466.3,740,466.3,741.1Zm-1,0c0-.7-0.9-1.2-2.1-1.2s-2.2.4-2.2,1.2,0.9,1.2,2.2,1.2S465.3,741.9,465.3,741.2Z" transform="translate(-164.1 -527)"/><path class="cls-5" d="M473.2,743.6l-0.5.8a5.1,5.1,0,0,1-2.2-2.2,5.4,5.4,0,0,1-2.2,2.4l-0.5-.7a4.1,4.1,0,0,0,2.3-3.7v-0.7h0.9v0.7A3.6,3.6,0,0,0,473.2,743.6Zm2.1,4.2h-5.8V745h0.9v1.9h4.9v0.8Zm-0.2-2.2h-0.9V742h-1.7v-0.9h1.7v-2H475v6.4Z" transform="translate(-164.1 -527)"/><path class="cls-5" d="M380.4,781.9h-4.6v-0.5h4.6v0.5Zm-0.3,1.6c0,0.7-.8,1.2-2,1.2s-2-.5-2-1.2,0.8-1.2,2-1.2S380,782.9,380,783.5Zm-0.6,0c0-.4-0.5-0.7-1.3-0.7s-1.3.3-1.3,0.7,0.5,0.7,1.3.7S379.4,783.9,379.4,783.5Zm2.9,4.7h-5.4v-1.7h4.5v-0.7h-4.6v-0.5h5.2v1.7h-4.5v0.8h4.7v0.5Zm-3.1-7.3h-2.3v-0.5h2.3v0.5Zm2.9,3.9h-0.6v-4.5h0.6v4.5Z" transform="translate(-164.1 -527)"/><path class="cls-5" d="M388.2,786.5a25.1,25.1,0,0,1-3.5.2h-1.3v-3.1h3v-1.9h-3v-0.5h3.6v3h-3v2h0.7l3.4-.2v0.5Zm1.2,1.8h-0.6v-7.9h0.6v7.9Z" transform="translate(-164.1 -527)"/><path class="cls-5" d="M394.8,782.6a2,2,0,1,1-2-2A2,2,0,0,1,394.8,782.6Zm-0.6,0a1.4,1.4,0,1,0-1.4,1.4A1.3,1.3,0,0,0,394.1,782.6Zm3.1,5.5h-5.3v-2.5h0.6v2h4.7v0.5Zm-0.2-2h-0.6v-3.1h-1.4v-0.5h1.4v-2.1H397v5.8Z" transform="translate(-164.1 -527)"/><path class="cls-5" d="M405.3,787.1H398v-0.5h7.3v0.5Zm-0.5-2.4-0.3.5a4.8,4.8,0,0,1-2.9-2.6,4.6,4.6,0,0,1-2.9,2.6l-0.3-.5c1.6-.5,2.9-1.7,2.9-3.2v-0.6H402v0.6C402,782.9,403.3,784.1,404.9,784.7Z" transform="translate(-164.1 -527)"/><path class="cls-5" d="M413.1,784.5l-0.3.5a4.5,4.5,0,0,1-2.1-2.3,4.5,4.5,0,0,1-2.2,2.5l-0.4-.5a3.9,3.9,0,0,0,2.2-3.5v-0.7h0.6v0.7A3.5,3.5,0,0,0,413.1,784.5Zm1.8,3.6h-5.3v-2.5h0.6v1.9h4.7v0.5Zm-0.2-2h-0.6v-3.2h-1.7v-0.5h1.7v-2h0.6v5.8Z" transform="translate(-164.1 -527)"/><path class="cls-5" d="M419.7,786.5h-3.6v-5.2h3.6v5.2Zm-0.6-.5v-4.1h-2.4v4.1h2.4Zm3.9-1.8h-1.2v4.1h-0.6v-7.9h0.6v3.3H423v0.6Z" transform="translate(-164.1 -527)"/><path class="cls-5" d="M430.5,784.3h-7.3v-0.5h7.3v0.5Zm-0.9-2.6c0,0.8-1,1.4-2.8,1.4s-2.8-.6-2.8-1.4,1-1.4,2.8-1.4S429.6,780.9,429.6,781.7Zm0.1,6.4h-5.5v-1.9h4.7v-0.8h-4.7V785h5.4v1.8h-4.7v0.8h4.9v0.5Zm-0.7-6.4c0-.5-0.8-0.9-2.1-0.9s-2.1.4-2.1,0.9,0.7,0.9,2.1.9S428.9,782.2,428.9,781.7Z" transform="translate(-164.1 -527)"/><path class="cls-5" d="M437.1,786.3h-3.3v-5.1h2.7v0.5h-2.1v4h2.7v0.5Zm2.7,1.9h-0.6v-4.2h-1.2v3.8h-0.6v-7.4h0.6v3.1h1.2v-3.2h0.6v7.9Z" transform="translate(-164.1 -527)"/><path class="cls-5" d="M448,787.2h-7.3v-0.5h2.2V785h0.6v1.7h1.8V785h0.6v1.7H448v0.5Zm-0.7-2.6h-6v-0.5h1.3l-0.2-2.2H443l0.2,2.2h2.2l0.2-2.2h0.6l-0.2,2.2h1.3v0.5Zm-0.2-3h-5.6v-0.5h5.6v0.5Z" transform="translate(-164.1 -527)"/><path class="cls-5" d="M458.8,784.7h-8.2v-0.8h3.6v-1.3h0.9v1.3h3.6v0.8Zm-0.6-2.3-0.3.7a4.6,4.6,0,0,1-3.2-2,4.6,4.6,0,0,1-3.2,2l-0.3-.7c1.8-.3,3-1.4,3-2.5v-0.3h1v0.3C455.2,781,456.6,782.1,458.3,782.4Zm-0.3,4.5c0,1.1-1.2,1.7-3.2,1.7s-3.2-.5-3.2-1.7,1.4-1.6,3.2-1.6S457.9,785.8,457.9,786.9Zm-1,0c0-.7-1.1-0.9-2.2-0.9s-2.2.2-2.2,0.9,1.1,0.9,2.2.9S456.9,787.6,456.9,786.9Z" transform="translate(-164.1 -527)"/><path class="cls-5" d="M464,782.1a2.3,2.3,0,1,1-2.3-2.2A2.2,2.2,0,0,1,464,782.1Zm-0.9,0a1.3,1.3,0,1,0-2.7,0A1.3,1.3,0,1,0,463.1,782.1Zm3.7,6.1h-5.9v-2.8h0.9v2h5v0.8Zm-0.2-2.2h-0.9v-6.4h0.9v6.4Z" transform="translate(-164.1 -527)"/><path class="cls-5" d="M475.7,785.1h-3.6v3.3h-0.9v-3.3h-3.6v-0.8h8.2v0.8Zm-0.5-2.3-0.3.7a4.9,4.9,0,0,1-3.2-2.2,4.9,4.9,0,0,1-3.2,2.2l-0.3-.7c1.8-.3,3-1.6,3-2.7v-0.4h1v0.4C472.1,781.2,473.5,782.5,475.1,782.8Z" transform="translate(-164.1 -527)"/><path class="cls-5" d="M400.2,826.3h-7.3v-0.5h3.4v-1.1h-2.4v-2.6h5.4v0.5h-4.8v1.5h4.8v0.5h-2.5v1.1h3.4v0.5Zm-0.8,2.1c0,0.9-1.1,1.5-2.9,1.5s-2.8-.5-2.8-1.5,1.2-1.5,2.8-1.5S399.3,827.5,399.3,828.4Zm-0.7,0c0-.7-1.2-1-2.2-1s-2.2.2-2.2,1,1.2,1,2.2,1S398.7,829.1,398.7,828.4Z" transform="translate(-164.1 -527)"/><path class="cls-5" d="M405.5,827.7l-0.3.5a4.5,4.5,0,0,1-2.1-2.8,5.2,5.2,0,0,1-2.2,3l-0.4-.5a4.7,4.7,0,0,0,2.2-4.4v-1.2h0.6v1.2A4.4,4.4,0,0,0,405.5,827.7Zm1.6,2.1h-0.6v-4.5h-1.8v-0.5h1.8v-2.9h0.6v7.9Z" transform="translate(-164.1 -527)"/><path class="cls-5" d="M412,827.8h-3.3v-5.1h2.7v0.5h-2.1v4H412v0.5Zm2.7,1.9h-0.6v-4.2h-1.2v3.8h-0.6V822h0.6V825h1.2v-3.2h0.6v7.9Z" transform="translate(-164.1 -527)"/><path class="cls-5" d="M420.5,823.5h-4.6V823h4.6v0.5Zm-0.4,1.8c0,0.8-.7,1.3-2,1.3s-2-.5-2-1.3,0.8-1.3,2-1.3S420.1,824.6,420.1,825.3Zm1.8,4.4h-0.6v-1.9h-4.7v-0.5H422v2.4Zm-2.5-4.4c0-.5-0.5-0.8-1.3-0.8s-1.3.3-1.3,0.8,0.5,0.8,1.3.8S419.5,825.8,419.5,825.3Zm-0.2-3H417v-0.5h2.3v0.5Zm3.8,2.3H422v2.2h-0.6v-5.1H422v2.4h1.1v0.5Z" transform="translate(-164.1 -527)"/><path class="cls-5" d="M430.5,828.6h-7.3v-0.5H425v-2.9h0.6v2.9h1.6v-2.9h0.6v2.9h2.7v0.5Zm-0.9-5.9a31.9,31.9,0,0,1-.3,4.4h-0.6a33.8,33.8,0,0,0,.2-3.9H424v-0.5h5.6Z" transform="translate(-164.1 -527)"/><path class="cls-5" d="M440.4,828.6h-7.3v-0.5H435v-2.9h0.6v2.9h1.6v-2.9h0.6v2.9h2.7v0.5Zm-0.9-5.9a31.9,31.9,0,0,1-.3,4.4h-0.6a33.8,33.8,0,0,0,.2-3.9H434v-0.5h5.6Z" transform="translate(-164.1 -527)"/><path class="cls-5" d="M448,826.7h-3.4v3H444v-3h-3.4v-0.5H448v0.5Zm-0.5-1.9-0.2.5a4.3,4.3,0,0,1-2.9-2.1,4.4,4.4,0,0,1-2.9,2.1l-0.2-.5c1.7-.4,2.9-1.5,2.9-2.6v-0.3h0.6v0.3C444.7,823.4,446,824.5,447.5,824.8Z" transform="translate(-164.1 -527)"/><path class="cls-5" d="M456.2,825.5l-0.5.8a5.1,5.1,0,0,1-2.2-2.2,5.4,5.4,0,0,1-2.3,2.4l-0.5-.7a4.1,4.1,0,0,0,2.3-3.7v-0.7H454V822A3.6,3.6,0,0,0,456.2,825.5Zm2.1,4.2h-5.8v-2.8h0.9v1.9h4.9v0.8Zm-0.2-2.2h-0.9v-6.4h0.9v6.4Z" transform="translate(-164.1 -527)"/><path class="cls-5" d="M467.2,826.4h-8.2v-0.8h8.2v0.8Zm-1.1-3.4c0,1.1-1,1.9-3,1.9s-3-.7-3-1.9,1-1.9,3-1.9S466.2,821.9,466.2,823Zm0.2,6.7h-6.2v-2.5h0.9v1.7h5.3v0.8Zm-1.2-6.7c0-.7-0.8-1.2-2.1-1.2s-2.1.5-2.1,1.1,0.8,1.1,2.1,1.1S465.2,823.7,465.2,823Z" transform="translate(-164.1 -527)"/><path class="cls-5" d="M475.7,826.1h-2.1v3.8h-0.9v-3.8h-2.1v3.8h-0.9v-3.8h-2.2v-0.8h5.9a24.4,24.4,0,0,0,.3-2.9h-5.2v-0.8h6.2a26.9,26.9,0,0,1-.4,3.7h1.3v0.8Z" transform="translate(-164.1 -527)"/><path class="cls-5" d="M171.4,657.9a1.9,1.9,0,0,1-1.9-2v-3.3a1.9,1.9,0,1,1,3.9,0V656A1.9,1.9,0,0,1,171.4,657.9Zm1.2-5.2a1.2,1.2,0,1,0-2.5,0v3.2a1.2,1.2,0,1,0,2.5,0v-3.2Z" transform="translate(-164.1 -527)"/><path class="cls-5" d="M177.9,654.3l-1.7,3.5h-0.7l1.6-3.2-0.8.2a1.8,1.8,0,0,1-1.8-2,1.9,1.9,0,0,1,2-2.1,1.9,1.9,0,0,1,2,2A3.5,3.5,0,0,1,177.9,654.3Zm-1.5-3a1.5,1.5,0,1,0,1.3,1.4A1.3,1.3,0,0,0,176.4,651.3Z" transform="translate(-164.1 -527)"/><path class="cls-5" d="M179.9,654.9v-0.9h0.9v0.9h-0.9Zm0,3v-0.9h0.9v0.9h-0.9Z" transform="translate(-164.1 -527)"/><path class="cls-5" d="M184,657.9a1.9,1.9,0,0,1-2.1-1.9h0.7a1.3,1.3,0,0,0,1.4,1.2,1.3,1.3,0,0,0,1.4-1.4,1.2,1.2,0,0,0-1.4-1.4h-0.1v-0.6H184a1.1,1.1,0,0,0,1.3-1.3,1.2,1.2,0,0,0-1.2-1.3,1.2,1.2,0,0,0-1.3,1.2H182a1.9,1.9,0,0,1,2-1.8,1.8,1.8,0,0,1,2,1.9,1.6,1.6,0,0,1-1,1.6,1.7,1.7,0,0,1,1.1,1.7A1.9,1.9,0,0,1,184,657.9Z" transform="translate(-164.1 -527)"/><path class="cls-5" d="M189.1,657.9a1.9,1.9,0,0,1-1.9-2v-3.3a1.9,1.9,0,1,1,3.9,0V656A1.9,1.9,0,0,1,189.1,657.9Zm1.2-5.2a1.2,1.2,0,1,0-2.5,0v3.2a1.2,1.2,0,1,0,2.5,0v-3.2Z" transform="translate(-164.1 -527)"/><path class="cls-5" d="M192.2,655.5v-0.7h2.7v0.7h-2.7Z" transform="translate(-164.1 -527)"/><path class="cls-5" d="M198,657.9v-6.3l-1.3,1.2v-0.8l1.3-1.1h0.7v7.1H198Z" transform="translate(-164.1 -527)"/><path class="cls-5" d="M203,657.9a1.9,1.9,0,0,1-1.9-2v-3.3a1.9,1.9,0,1,1,3.9,0V656A1.9,1.9,0,0,1,203,657.9Zm1.2-5.2a1.2,1.2,0,1,0-2.5,0v3.2a1.2,1.2,0,1,0,2.5,0v-3.2Z" transform="translate(-164.1 -527)"/><path class="cls-5" d="M206.5,654.9v-0.9h0.9v0.9h-0.9Zm0,3v-0.9h0.9v0.9h-0.9Z" transform="translate(-164.1 -527)"/><path class="cls-5" d="M210.7,657.9a1.9,1.9,0,0,1-1.9-2v-3.3a1.9,1.9,0,1,1,3.9,0V656A1.9,1.9,0,0,1,210.7,657.9Zm1.2-5.2a1.2,1.2,0,1,0-2.5,0v3.2a1.2,1.2,0,1,0,2.5,0v-3.2Z" transform="translate(-164.1 -527)"/><path class="cls-5" d="M215.7,657.9a1.9,1.9,0,0,1-1.9-2v-3.3a1.9,1.9,0,1,1,3.9,0V656A1.9,1.9,0,0,1,215.7,657.9Zm1.2-5.2a1.2,1.2,0,1,0-2.5,0v3.2a1.2,1.2,0,1,0,2.5,0v-3.2Z" transform="translate(-164.1 -527)"/><path class="cls-5" d="M237.6,655h-9v-0.9h9V655Zm-1,2.7c0,1.2-1.3,1.9-3.5,1.9s-3.5-.8-3.5-1.9,1.2-1.9,3.5-1.9S236.6,656.5,236.6,657.7Zm-0.1-4.4h-6.6V650h6.5v0.9h-5.6v1.5h5.7v0.9Zm-1,4.4c0-.7-0.8-1.1-2.4-1.1s-2.4.4-2.4,1.1,0.7,1.1,2.4,1.1S235.5,658.4,235.5,657.7Z" transform="translate(-164.1 -527)"/><path class="cls-5" d="M246.9,656h-9v-0.9h3.9v-0.9h-2.7v-2.6h5.4v-0.8h-5.4v-0.8h6.5v2.5h-5.4v0.9h5.7v0.8h-2.9v0.9h4V656Zm-1.2,3.5h-1v-1.9H239v-0.9h6.7v2.7Z" transform="translate(-164.1 -527)"/><path class="cls-5" d="M171.4,675.4v-6.3l-1.3,1.2v-0.8l1.3-1.1h0.7v7.1h-0.7Z" transform="translate(-164.1 -527)"/><path class="cls-5" d="M176.7,675.4a1.9,1.9,0,0,1-1.9-2v-3.3a1.9,1.9,0,1,1,3.9,0v3.3A1.9,1.9,0,0,1,176.7,675.4Zm1.2-5.2a1.2,1.2,0,1,0-2.5,0v3.2a1.2,1.2,0,1,0,2.5,0v-3.2Z" transform="translate(-164.1 -527)"/><path class="cls-5" d="M180.4,672.4v-0.9h0.9v0.9h-0.9Zm0,3v-0.9h0.9v0.9h-0.9Z" transform="translate(-164.1 -527)"/><path class="cls-5" d="M184.9,675.4a1.9,1.9,0,0,1-1.9-2v-3.3a1.9,1.9,0,1,1,3.9,0v3.3A1.9,1.9,0,0,1,184.9,675.4Zm1.2-5.2a1.2,1.2,0,1,0-2.5,0v3.2a1.2,1.2,0,1,0,2.5,0v-3.2Z" transform="translate(-164.1 -527)"/><path class="cls-5" d="M190.1,675.4a1.9,1.9,0,0,1-1.9-2v-3.3a1.9,1.9,0,1,1,3.9,0v3.3A1.9,1.9,0,0,1,190.1,675.4Zm1.2-5.2a1.2,1.2,0,1,0-2.5,0v3.2a1.2,1.2,0,1,0,2.5,0v-3.2Z" transform="translate(-164.1 -527)"/><path class="cls-5" d="M193.4,673v-0.7h2.7V673h-2.7Z" transform="translate(-164.1 -527)"/><path class="cls-5" d="M199.3,675.4v-6.3l-1.3,1.2v-0.8l1.3-1.1H200v7.1h-0.7Z" transform="translate(-164.1 -527)"/><path class="cls-5" d="M204.5,675.4a1.9,1.9,0,0,1-1.9-2v-3.3a1.9,1.9,0,1,1,3.9,0v3.3A1.9,1.9,0,0,1,204.5,675.4Zm1.2-5.2a1.2,1.2,0,1,0-2.5,0v3.2a1.2,1.2,0,1,0,2.5,0v-3.2Z" transform="translate(-164.1 -527)"/><path class="cls-5" d="M208.3,672.4v-0.9h0.9v0.9h-0.9Zm0,3v-0.9h0.9v0.9h-0.9Z" transform="translate(-164.1 -527)"/><path class="cls-5" d="M212.7,675.4v-6.3l-1.3,1.2v-0.8l1.3-1.1h0.7v7.1h-0.7Z" transform="translate(-164.1 -527)"/><path class="cls-5" d="M217.9,675.4a1.9,1.9,0,0,1-1.9-2v-3.3a1.9,1.9,0,1,1,3.9,0v3.3A1.9,1.9,0,0,1,217.9,675.4Zm1.2-5.2a1.2,1.2,0,1,0-2.5,0v3.2a1.2,1.2,0,1,0,2.5,0v-3.2Z" transform="translate(-164.1 -527)"/><path class="cls-5" d="M233,668.5a8,8,0,0,1-3.5,6.8l-0.5-.7a6.6,6.6,0,0,0,3-5.2h-2.4v-0.9H233Zm3.9,8.5h-1V672h-1.1v4.5h-1v-9.1h1V671h1.1v-3.8h1v9.7Z" transform="translate(-164.1 -527)"/><path class="cls-5" d="M244.8,675.3h-6.5v-0.9H241v-0.8h1.1v0.8h2.7v0.9Zm-0.6-5.4h-5.4v-0.9h5.4V670Zm-0.4,2c0,0.9-1,1.6-2.3,1.6s-2.3-.6-2.3-1.6,1-1.6,2.3-1.6S243.8,671,243.8,671.9Zm-1-3.5h-2.7v-0.9h2.7v0.9Zm0,3.5a1.1,1.1,0,0,0-1.3-.8,0.9,0.9,0,1,0,0,1.6C242.3,672.7,242.8,672.4,242.8,671.9Zm3.2,5h-1v-9.7h1v9.7Z" transform="translate(-164.1 -527)"/><path class="cls-5" d="M253.2,671.7l-0.5.9a4.9,4.9,0,0,1-2.4-2.3,5.5,5.5,0,0,1-2.5,2.5l-0.6-.8a4,4,0,0,0,2.5-3.6v-0.9h1v0.9A3.5,3.5,0,0,0,253.2,671.7Zm2.1,5.2h-1v-2.5h-5.5v-0.9h6.4v3.4Zm0.1-3.9h-1v-5.9h1v5.9Z" transform="translate(-164.1 -527)"/><path class="cls-5" d="M265.2,672.7h-5.5v-0.9h5.5v0.9Z" transform="translate(-164.1 -527)"/><path class="cls-5" d="M277.8,672h-4.1v1.8h2.9v3.1h-1v-2.2h-5.6v-0.9h2.7V672h-3.8v-0.9h6.6a25.4,25.4,0,0,0,.2-2.6h-5.8v-0.9h6.9a26.1,26.1,0,0,1-.3,3.5h1.4V672Z" transform="translate(-164.1 -527)"/><path class="cls-5" d="M283.2,672.5h-4.3v-4.7h4.3v4.7Zm-1-.9v-2.9h-2.4v2.9h2.4Zm4.2,5.1h-6.5v-3.1h1v2.2h5.5v0.9Zm-0.2-2.5h-1v-7h1v7Z" transform="translate(-164.1 -527)"/><path class="cls-5" d="M294.4,674.8l-4,.2h-2.5v-0.9h6.6v0.9Zm-1-4.6a2.5,2.5,0,1,1-2.5-2.3A2.3,2.3,0,0,1,293.3,670.2Zm-1,0a1.5,1.5,0,1,0-1.5,1.5A1.4,1.4,0,0,0,292.3,670.2Zm3.3,6.7h-1v-9.7h1v9.7Z" transform="translate(-164.1 -527)"/><path class="cls-5" d="M301.4,674.8h-4.1v-3.9h2.3v-1.9h-2.3v-0.9h3.3V672h-2.3v2h3.1v0.9Zm1.5,1.7h-1v-3.4h-1v-1h1v-1.4h-1v-1h1v-2.2h1v9.1Zm1.9,0.4h-1v-9.7h1v9.7Z" transform="translate(-164.1 -527)"/><path class="cls-5" d="M265.1,685.9h-5.5V685h5.5v0.9Z" transform="translate(-164.1 -527)"/><path class="cls-5" d="M273.1,681.7a8,8,0,0,1-3.5,6.8l-0.5-.7a6.6,6.6,0,0,0,3-5.2h-2.4v-0.9h3.5Zm3.9,8.5h-1v-4.9h-1.1v4.5h-1v-9.1h1v3.6H276v-3.8h1v9.7Z" transform="translate(-164.1 -527)"/><path class="cls-5" d="M284.8,688.6h-6.5v-0.9h2.8V687h1.1v0.8h2.7v0.9Zm-0.6-5.4h-5.4v-0.9h5.4v0.9Zm-0.4,2c0,0.9-1,1.6-2.3,1.6s-2.3-.6-2.3-1.6,1-1.6,2.3-1.6S283.9,684.3,283.9,685.2Zm-1-3.5h-2.7v-0.9h2.7v0.9Zm0,3.5a1.1,1.1,0,0,0-1.3-.8,0.9,0.9,0,1,0,0,1.6C282.3,686,282.9,685.6,282.9,685.2Zm3.2,5h-1v-9.7h1v9.7Z" transform="translate(-164.1 -527)"/><path class="cls-5" d="M293.3,687.4l-0.5.8a5.5,5.5,0,0,1-2.5-2.9,6.6,6.6,0,0,1-2.6,3.2l-0.6-.8c1.3-.8,2.6-2.2,2.6-5.1V681h1v1.5C290.8,685.9,292.4,686.9,293.3,687.4Zm3.1-2H295v4.8h-1v-9.7h1v4h1.4v0.9Z" transform="translate(-164.1 -527)"/><path class="cls-5" d="M171.4,728.9v-6.3l-1.3,1.2v-0.8l1.3-1.1h0.7v7.1h-0.7Z" transform="translate(-164.1 -527)"/><path class="cls-5" d="M176.7,729a1.9,1.9,0,0,1-1.9-2v-3.3a1.9,1.9,0,1,1,3.9,0V727A1.9,1.9,0,0,1,176.7,729Zm1.2-5.2a1.2,1.2,0,1,0-2.5,0V727a1.2,1.2,0,1,0,2.5,0v-3.2Z" transform="translate(-164.1 -527)"/><path class="cls-5" d="M180.4,725.9V725h0.9v0.9h-0.9Zm0,3V728h0.9v0.9h-0.9Z" transform="translate(-164.1 -527)"/><path class="cls-5" d="M184.8,728.9v-6.3l-1.3,1.2v-0.8l1.3-1.1h0.7v7.1h-0.7Z" transform="translate(-164.1 -527)"/><path class="cls-5" d="M190.1,729a1.9,1.9,0,0,1-1.9-2v-3.3a1.9,1.9,0,1,1,3.9,0V727A1.9,1.9,0,0,1,190.1,729Zm1.2-5.2a1.2,1.2,0,1,0-2.5,0V727a1.2,1.2,0,1,0,2.5,0v-3.2Z" transform="translate(-164.1 -527)"/><path class="cls-5" d="M193.4,726.5v-0.7h2.7v0.7h-2.7Z" transform="translate(-164.1 -527)"/><path class="cls-5" d="M199.3,728.9v-6.3l-1.3,1.2v-0.8l1.3-1.1H200v7.1h-0.7Z" transform="translate(-164.1 -527)"/><path class="cls-5" d="M204.5,729a1.9,1.9,0,0,1-1.9-2v-3.3a1.9,1.9,0,1,1,3.9,0V727A1.9,1.9,0,0,1,204.5,729Zm1.2-5.2a1.2,1.2,0,1,0-2.5,0V727a1.2,1.2,0,1,0,2.5,0v-3.2Z" transform="translate(-164.1 -527)"/><path class="cls-5" d="M208.3,725.9V725h0.9v0.9h-0.9Zm0,3V728h0.9v0.9h-0.9Z" transform="translate(-164.1 -527)"/><path class="cls-5" d="M212.6,729a1.9,1.9,0,0,1-2.1-1.9h0.7a1.3,1.3,0,0,0,1.4,1.2,1.3,1.3,0,0,0,1.4-1.4,1.2,1.2,0,0,0-1.4-1.4h-0.1v-0.6h0.1a1.1,1.1,0,0,0,1.3-1.3,1.2,1.2,0,0,0-1.2-1.3,1.2,1.2,0,0,0-1.3,1.2h-0.7a1.9,1.9,0,0,1,2-1.8,1.8,1.8,0,0,1,2,1.9,1.6,1.6,0,0,1-1,1.6,1.7,1.7,0,0,1,1.1,1.7A1.9,1.9,0,0,1,212.6,729Z" transform="translate(-164.1 -527)"/><path class="cls-5" d="M217.9,729a1.9,1.9,0,0,1-1.9-2v-3.3a1.9,1.9,0,1,1,3.9,0V727A1.9,1.9,0,0,1,217.9,729Zm1.2-5.2a1.2,1.2,0,1,0-2.5,0V727a1.2,1.2,0,1,0,2.5,0v-3.2Z" transform="translate(-164.1 -527)"/><path class="cls-6" d="M233.9,721.4c-0.1,3-2.2,4.7-4.7,5.2l-0.3-.9c1.6-.4,3.4-1.1,3.7-3.1h-3.2v-1.1h4.6Zm2.8,7.3c0,1.2-1.2,2-3.4,2s-3.4-.8-3.4-2,1.4-2.1,3.4-2.1S236.8,727.4,236.8,728.6Zm-1.2,0c0-.7-1.1-1-2.2-1s-2.2.4-2.2,1,1,1,2.2,1S235.6,729.3,235.6,728.6Zm2.2-4.3h-1.3v2.1h-1.2v-5.7h1.2v2.5h1.3v1.1Z" transform="translate(-164.1 -527)"/><path class="cls-6" d="M243.3,723.5a2.5,2.5,0,1,1-2.5-2.5A2.5,2.5,0,0,1,243.3,723.5Zm-1.2,0a1.4,1.4,0,1,0-2.7,0A1.4,1.4,0,1,0,242.2,723.5Zm4.2,6.7h-6.8v-3.2h1.1v2.1h5.7v1.1Zm-0.2-2.5H245v-2.5h-1.4v-1.1H245v-0.9h-1.4v-1.1H245v-1.4h1.2v7Z" transform="translate(-164.1 -527)"/><path class="cls-6" d="M250.8,729.6h-1.2v-6.5l-0.9.7-0.6-.9,1.6-1.4h1v8.1Z" transform="translate(-164.1 -527)"/><path class="cls-6" d="M254.8,730.2h-1.4v-1.5h1.4v1.5Z" transform="translate(-164.1 -527)"/><path class="cls-5" d="M267.3,729.4h-9v-0.9h4v-2.1h1v2.1h4v0.9Zm-0.6-3.3-0.4.8a5.1,5.1,0,0,1-3.4-2.2,4.9,4.9,0,0,1-3.5,2.2l-0.4-.8c2.5-.6,3.2-1.8,3.3-2.4h-2.9v-0.9h6.9v0.9h-2.9C263.5,724.3,264.3,725.6,266.7,726.2Zm-2.2-4.3h-3.4V721h3.4v0.9Z" transform="translate(-164.1 -527)"/><path class="cls-5" d="M276.6,729.2h-9v-0.9h3.3v-3.4h1v3.4h4.7v0.9Zm-1.2-7.3a43.2,43.2,0,0,1-.5,5.4h-1a40.9,40.9,0,0,0,.4-4.4h-5.6v-0.9h6.7Z" transform="translate(-164.1 -527)"/><path class="cls-5" d="M283,726.2a26.1,26.1,0,0,1-4,.2h-1.3v-3h3.3v-1.3h-3.3v-0.9h4.3v3h-3.3v1.3H279a27,27,0,0,0,4-.2v0.9Zm2.1,2.6c0,1.1-1.2,1.9-3.4,1.9s-3.4-.7-3.4-1.9,1.2-1.9,3.4-1.9S285.1,727.6,285.1,728.8Zm-1.1,0c0-.6-0.9-1-2.3-1s-2.3.4-2.3,1,0.8,1,2.3,1S284,729.4,284,728.8Zm1-2.1h-1v-1.9h-1.5v-0.9H284V723h-1.5v-0.8H284v-1.4h1v6Z" transform="translate(-164.1 -527)"/><path class="cls-5" d="M292.2,727.7l-0.5.8a5.5,5.5,0,0,1-2.5-2.9,6.6,6.6,0,0,1-2.6,3.2l-0.6-.8c1.3-.8,2.6-2.2,2.6-5.1v-1.5h1v1.5C289.7,726.1,291.4,727.2,292.2,727.7Zm3.1-2h-1.4v4.8h-1v-9.7h1v4h1.4v0.9Z" transform="translate(-164.1 -527)"/><path class="cls-5" d="M302.3,728.9h-6.5v-0.9h2.8v-0.8h1.1v0.8h2.7v0.9Zm-0.6-5.4h-5.4v-0.9h5.4v0.9Zm-0.4,2c0,0.9-1,1.6-2.3,1.6s-2.3-.6-2.3-1.6,1-1.6,2.3-1.6S301.3,724.5,301.3,725.4Zm-1-3.5h-2.7V721h2.7v0.9Zm0,3.5a1.1,1.1,0,0,0-1.3-.8,0.9,0.9,0,1,0,0,1.6C299.8,726.2,300.3,725.9,300.3,725.4Zm3.2,5h-1v-9.7h1v9.7Z" transform="translate(-164.1 -527)"/><path class="cls-5" d="M312.3,728.2h-3.9v-6.4h3.3v0.9h-2.3v4.5h2.9v0.9Zm3.5,2.3h-1v-5h-1.2V730h-1V721h1v3.5h1.2v-3.7h1v9.7Z" transform="translate(-164.1 -527)"/><path class="cls-5" d="M325.8,726h-9v-0.9h9V726Zm-0.9,2.7c0,1.1-1.3,1.9-3.5,1.9s-3.5-.8-3.5-1.9,1.3-1.9,3.5-1.9S324.9,727.7,324.9,728.8Zm-0.2-6.2c0,1.2-1.1,1.8-3.4,1.8s-3.4-.6-3.4-1.8,1.1-1.8,3.4-1.8S324.7,721.5,324.7,722.6Zm-1,6.2c0-.6-0.9-1-2.4-1s-2.4.4-2.4,1,0.8,1,2.4,1S323.8,729.3,323.8,728.8Zm-0.1-6.2c0-.7-0.9-1-2.3-1s-2.3.3-2.3,1,0.9,1,2.3,1S323.7,723.2,323.7,722.6Z" transform="translate(-164.1 -527)"/><path class="cls-5" d="M338,725.5h-4.1v1.8h2.9v3.1h-1v-2.2h-5.6v-0.9h2.7v-1.8h-3.8v-0.9h6.6a25.4,25.4,0,0,0,.2-2.6h-5.8v-0.9H337a26.1,26.1,0,0,1-.3,3.5H338v0.9Z" transform="translate(-164.1 -527)"/><path class="cls-5" d="M342.9,728l-2.4.2h-1.3v-6.5h1v5.5h0.7l2-.2v1Zm3.6,2.4h-1v-4.9h-1.2V730h-1V721h1v3.6h1.2v-3.9h1v9.7Z" transform="translate(-164.1 -527)"/><path class="cls-5" d="M351.4,724.8v1.6h-1.5v-1.6h1.5Z" transform="translate(-164.1 -527)"/><path class="cls-5" d="M360.9,728.7h-6.6v-0.9h2.7v-1.5h1v1.5h2.9v0.9Zm-0.9-5.1a2.5,2.5,0,1,1-2.5-2.3A2.4,2.4,0,0,1,360,723.6Zm-1,0a1.5,1.5,0,0,0-3,0,1.4,1.4,0,0,0,1.5,1.4A1.3,1.3,0,0,0,359.1,723.6Zm3.2,6.9h-1v-9.7h1v9.7Z" transform="translate(-164.1 -527)"/><path class="cls-5" d="M372.3,725.2l-0.4.9a4,4,0,0,1-2.4-1.9,5,5,0,0,1-2.5,2.2l-0.5-.8a3.6,3.6,0,0,0,2.5-3.2H367v-0.9h4.9v0.9H370A3,3,0,0,0,372.3,725.2Zm2.4,3.5c0,1.2-1.2,1.9-3.3,1.9s-3.3-.7-3.3-1.9,1.2-1.9,3.3-1.9S374.7,727.6,374.7,728.7Zm-1.1,0c0-.6-0.8-1.1-2.3-1.1s-2.3.5-2.3,1.1,0.8,1.1,2.3,1.1S373.6,729.4,373.6,728.7Zm0.9-2.1h-1v-2.5h-1.8v-0.9h1.8v-2.4h1v5.9Z" transform="translate(-164.1 -527)"/><path class="cls-5" d="M380.6,725.5l-0.4.9a3.6,3.6,0,0,1-1.9-1.6,4.2,4.2,0,0,1-2.1,1.8l-0.5-.9a3,3,0,0,0,2.1-2.5h-1.6v-0.9h4.2v0.9h-1.5A2.5,2.5,0,0,0,380.6,725.5Zm-1.3-3.8h-2.2v-0.9h2.2v0.9Zm4.6,8.7h-1V728h-5.7v-0.9h6.7v3.4Zm0-3.9h-1v-2.3h-1.1v2.3h-1v-5.7h1v2.4H383v-2.6h1v5.9Z" transform="translate(-164.1 -527)"/><path class="cls-5" d="M393.4,723.1H388v-0.9h5.4v0.9Zm-0.3,2.2c0,0.9-.8,1.7-2.3,1.7s-2.3-.8-2.3-1.7,0.8-1.7,2.3-1.7S393.1,724.4,393.1,725.3Zm-1.1-3.8h-2.5v-0.8H392v0.8Zm4.1,8.7h-6.5v-2.7h1v1.8h5.5v0.9Zm-4-4.9c0-.6-0.3-0.9-1.2-0.9s-1.2.3-1.2,0.9,0.3,0.9,1.2.9S392,725.9,392,725.3Zm3.8,2.6h-1v-1.8h-1.4v-0.9h1.4v-1.1h-1.3v-0.9h1.3v-2.4h1v7.1Z" transform="translate(-164.1 -527)"/><path class="cls-5" d="M403.5,726.9h-6.4v-0.9h2.8v-0.5c-1.1-.1-1.9-0.5-1.9-1.2s1-1.3,2.4-1.3,2.4,0.5,2.4,1.3-0.7,1.1-1.8,1.2v0.5h2.6v0.8Zm-0.6-4.2h-5.4v-0.8h5.4v0.8Zm2,6.3c0,1-1.2,1.6-3.3,1.6s-3.4-.6-3.4-1.6,1.2-1.6,3.3-1.6S404.9,728.1,404.9,729.1Zm-3.5-7.6H399v-0.8h2.5v0.8Zm0.2,3c0-.4-0.5-0.6-1.3-0.6s-1.3.1-1.3,0.6,0.5,0.5,1.3.5S401.7,724.8,401.7,724.4Zm2.1,4.7c0-.5-0.8-0.8-2.2-0.8s-2.2.3-2.2,0.8,0.7,0.8,2.2.8S403.8,729.6,403.8,729.1Zm2.3-4.1h-1.3v2.4h-1v-6.7h1v3.3h1.3V725Z" transform="translate(-164.1 -527)"/><path class="cls-5" d="M171.4,769v-6.3l-1.3,1.2v-0.8l1.3-1.1h0.7V769h-0.7Z" transform="translate(-164.1 -527)"/><path class="cls-5" d="M176.7,769.1a1.9,1.9,0,0,1-1.9-2v-3.3a1.9,1.9,0,1,1,3.9,0v3.3A1.9,1.9,0,0,1,176.7,769.1Zm1.2-5.2a1.2,1.2,0,1,0-2.5,0v3.2a1.2,1.2,0,1,0,2.5,0v-3.2Z" transform="translate(-164.1 -527)"/><path class="cls-5" d="M180.4,766v-0.9h0.9V766h-0.9Zm0,3v-0.9h0.9V769h-0.9Z" transform="translate(-164.1 -527)"/><path class="cls-5" d="M184.8,769.1a1.9,1.9,0,0,1-2.1-1.9h0.7a1.3,1.3,0,0,0,1.4,1.2,1.3,1.3,0,0,0,1.4-1.4,1.2,1.2,0,0,0-1.4-1.4h-0.1v-0.6h0.1a1.1,1.1,0,0,0,1.3-1.3,1.2,1.2,0,0,0-1.2-1.3,1.2,1.2,0,0,0-1.3,1.2h-0.7a1.9,1.9,0,0,1,2-1.8,1.8,1.8,0,0,1,2,1.9,1.6,1.6,0,0,1-1,1.6,1.7,1.7,0,0,1,1.1,1.7A1.9,1.9,0,0,1,184.8,769.1Z" transform="translate(-164.1 -527)"/><path class="cls-5" d="M190.1,769.1a1.9,1.9,0,0,1-1.9-2v-3.3a1.9,1.9,0,1,1,3.9,0v3.3A1.9,1.9,0,0,1,190.1,769.1Zm1.2-5.2a1.2,1.2,0,1,0-2.5,0v3.2a1.2,1.2,0,1,0,2.5,0v-3.2Z" transform="translate(-164.1 -527)"/><path class="cls-5" d="M193.4,766.7V766h2.7v0.7h-2.7Z" transform="translate(-164.1 -527)"/><path class="cls-5" d="M199.3,769v-6.3l-1.3,1.2v-0.8l1.3-1.1H200V769h-0.7Z" transform="translate(-164.1 -527)"/><path class="cls-5" d="M204.5,769.1a1.9,1.9,0,0,1-1.9-2v-3.3a1.9,1.9,0,1,1,3.9,0v3.3A1.9,1.9,0,0,1,204.5,769.1Zm1.2-5.2a1.2,1.2,0,1,0-2.5,0v3.2a1.2,1.2,0,1,0,2.5,0v-3.2Z" transform="translate(-164.1 -527)"/><path class="cls-5" d="M208.3,766v-0.9h0.9V766h-0.9Zm0,3v-0.9h0.9V769h-0.9Z" transform="translate(-164.1 -527)"/><path class="cls-5" d="M214.2,768.6a1.9,1.9,0,0,1-1.4.5,2,2,0,0,1-1.4-.5,1.9,1.9,0,0,1-.5-1.2h0.7a1.1,1.1,0,0,0,1.2,1.1,1.2,1.2,0,0,0,.9-0.3,2,2,0,0,0,.4-1.4c0-.9-0.2-1.7-1.2-1.7a1.1,1.1,0,0,0-1.2.7H211v-3.7h3.6v0.6h-2.9v2.3a1.7,1.7,0,0,1,1.3-.5,1.7,1.7,0,0,1,1.2.4,2.6,2.6,0,0,1,.6,1.9A2.5,2.5,0,0,1,214.2,768.6Z" transform="translate(-164.1 -527)"/><path class="cls-5" d="M217.9,769.1a1.9,1.9,0,0,1-1.9-2v-3.3a1.9,1.9,0,1,1,3.9,0v3.3A1.9,1.9,0,0,1,217.9,769.1Zm1.2-5.2a1.2,1.2,0,1,0-2.5,0v3.2a1.2,1.2,0,1,0,2.5,0v-3.2Z" transform="translate(-164.1 -527)"/><path class="cls-6" d="M233.9,761.5c-0.1,3-2.2,4.7-4.7,5.2l-0.3-.9c1.6-.4,3.4-1.1,3.7-3.1h-3.2v-1.1h4.6Zm2.8,7.3c0,1.2-1.2,2-3.4,2s-3.4-.8-3.4-2,1.4-2.1,3.4-2.1S236.8,767.5,236.8,768.7Zm-1.2,0c0-.7-1.1-1-2.2-1s-2.2.4-2.2,1,1,1,2.2,1S235.6,769.4,235.6,768.7Zm2.2-4.3h-1.3v2.1h-1.2v-5.7h1.2v2.5h1.3v1.1Z" transform="translate(-164.1 -527)"/><path class="cls-6" d="M243.3,763.6a2.5,2.5,0,1,1-2.5-2.5A2.5,2.5,0,0,1,243.3,763.6Zm-1.2,0a1.4,1.4,0,1,0-2.7,0A1.4,1.4,0,1,0,242.2,763.6Zm4.2,6.7h-6.8v-3.2h1.1v2.1h5.7v1.1Zm-0.2-2.5H245v-2.5h-1.4v-1.1H245v-0.9h-1.4v-1.1H245v-1.4h1.2v7Z" transform="translate(-164.1 -527)"/><path class="cls-6" d="M252.2,769.7h-4.9v-1.2l1.5-1.6c0.8-.8,2.1-2.1,2.1-3.2a1.1,1.1,0,0,0-1.2-1,3.6,3.6,0,0,0-2,.9l-0.2-1.2a3.9,3.9,0,0,1,2.2-.9,2.2,2.2,0,0,1,2.3,2.3c0,1.2-1.3,2.6-2.1,3.5l-1.2,1.2h3.4v1.2Z" transform="translate(-164.1 -527)"/><path class="cls-6" d="M254.8,770.3h-1.4v-1.5h1.4v1.5Z" transform="translate(-164.1 -527)"/><path class="cls-5" d="M267.3,765.6h-4.1v1.8h2.9v3.1h-1v-2.2h-5.6v-0.9h2.7v-1.8h-3.8v-0.9H265a25.4,25.4,0,0,0,.2-2.6h-5.8v-0.9h6.9a26.1,26.1,0,0,1-.3,3.5h1.4v0.9Z" transform="translate(-164.1 -527)"/><path class="cls-5" d="M272.2,768.2l-2.4.2h-1.3v-6.5h1v5.5h0.7l2-.2v1Zm3.6,2.4h-1v-4.9h-1.2v4.5h-1v-9.1h1v3.6h1.2v-3.9h1v9.7Z" transform="translate(-164.1 -527)"/><path class="cls-5" d="M284.7,763.1h-4.5v-0.8h4.5v0.8Zm-0.2,1.8c0,0.9-.9,1.5-2,1.5s-2-.6-2-1.5,0.9-1.4,2-1.4S284.5,764.1,284.5,764.9Zm-1-3.2h-2.1V761h2.1v0.8Zm0,3.2c0-.5-0.4-0.6-1.1-0.6s-1.1.2-1.1,0.6,0.4,0.7,1.1.7S283.5,765.5,283.5,764.9Zm4.9,5.5h-6.6v-2.2h5.3v-0.6h-5.3v-0.8h6.4V769h-5.3v0.7h5.5v0.8Zm-2-4.2h-0.9v-1.9h-1v-0.9h1V761h0.9v5.3Zm1.8,0h-0.9v-5.4h0.9v5.4Z" transform="translate(-164.1 -527)"/><path class="cls-5" d="M298.1,769.2h-9v-0.9h9v0.9Zm-0.5-3.3-0.4.9a5.5,5.5,0,0,1-3.5-2.9,5.4,5.4,0,0,1-3.5,2.9l-0.4-.9a4.3,4.3,0,0,0,3.4-3.9v-0.6h1.1v0.6C294.1,763.9,295.6,765.4,297.5,766Z" transform="translate(-164.1 -527)"/><path class="cls-5" d="M304.8,770.1h-1v-4.4h-1.5v-0.8a7.5,7.5,0,0,1-3.1,4.1l-0.5-.7a6.5,6.5,0,0,0,2.4-2.8h-2v-0.9h2.3a7.9,7.9,0,0,0,.3-1.6h-2.3v-0.9h3.4a9.1,9.1,0,0,1-.4,2.6h1.4v-3.6h1v9.1Zm1.9,0.4h-1v-9.7h1v9.7Z" transform="translate(-164.1 -527)"/><path class="cls-5" d="M312.8,765.2c0,2.6-1.2,3.6-2.3,3.6s-2.3-1-2.3-3.6,1.3-3.6,2.3-3.6S312.8,762.6,312.8,765.2Zm-1,0c0-1.5-.5-2.6-1.3-2.6s-1.4,1.1-1.4,2.6,0.5,2.6,1.4,2.6S311.8,766.7,311.8,765.2Zm3.9,5.4h-1v-4.9h-1.5v-1h1.5v-3.8h1v9.7Z" transform="translate(-164.1 -527)"/><path class="cls-5" d="M328.8,769.4h-9v-0.9h4v-1.8h1v1.8h4v0.9Zm-1.2-3.1H321v-4.5h6.5v4.5Zm-1-.9v-2.7H322v2.7h4.5Z" transform="translate(-164.1 -527)"/><path class="cls-5" d="M333.8,765.6h-4.1v-4.3h3.5v0.9h-2.5v2.4h3.1v0.9Zm3.6,4.9h-6.6V768h5.3v-0.8h-5.3v-0.8h6.4v2.4h-5.3v0.8h5.5v0.8Zm-2.2-4.6h-1v-2h-1.6v-0.9h1.6v-2h1v4.9Zm2,0h-1v-5.1h1v5.1Z" transform="translate(-164.1 -527)"/><path class="cls-5" d="M345.3,768.5l-4,.2h-2.5v-0.9h6.6v0.9Zm-1-4.6a2.5,2.5,0,1,1-2.5-2.3A2.3,2.3,0,0,1,344.3,763.9Zm-1,0a1.5,1.5,0,1,0-1.5,1.5A1.4,1.4,0,0,0,343.3,763.9Zm3.3,6.7h-1v-9.7h1v9.7Z" transform="translate(-164.1 -527)"/><path class="cls-5" d="M359.5,765.6h-4.1v1.8h2.9v3.1h-1v-2.2h-5.6v-0.9h2.7v-1.8h-3.8v-0.9h6.6a25.4,25.4,0,0,0,.2-2.6h-5.8v-0.9h6.9a26.1,26.1,0,0,1-.3,3.5h1.4v0.9Z" transform="translate(-164.1 -527)"/><path class="cls-5" d="M366.7,768.8h-6.6V768h2.7v-1.5h1V768h2.9v0.9Zm-0.9-5.1a2.5,2.5,0,1,1-2.5-2.3A2.4,2.4,0,0,1,365.8,763.7Zm-1,0a1.5,1.5,0,0,0-3,0,1.4,1.4,0,0,0,1.5,1.4A1.3,1.3,0,0,0,364.8,763.7Zm3.2,6.9h-1v-9.7h1v9.7Z" transform="translate(-164.1 -527)"/><path class="cls-5" d="M378.1,765.6l-0.5.9a5.1,5.1,0,0,1-2.3-2,5.3,5.3,0,0,1-2.5,2.3l-0.5-.9a3.7,3.7,0,0,0,2.5-3.4v-0.2h-1.9v-0.9h4.9v0.9h-1.9v0.2A3.3,3.3,0,0,0,378.1,765.6Zm2.5,4.7H374v-3.1h1v2.2h5.6v0.9Zm-0.2-2.5h-1v-7h1v7Z" transform="translate(-164.1 -527)"/><path class="cls-5" d="M390.2,766.1h-3.9v0.7H389V769h-5.5v0.7h5.7v0.8h-6.8v-2.2h5.5v-0.6h-5.5v-0.8h2.8v-0.7h-3.9v-0.8h9v0.8Zm-0.7-2-0.4.8a5.2,5.2,0,0,1-3.4-1.4c-0.5.8-2.5,1.4-3.5,1.4l-0.4-.8c2.1-.1,3-1,3.1-1.2h-2.7v-0.8h6.8v0.8h-2.7A4.3,4.3,0,0,0,389.5,764.1Zm-2.1-2.6H384v-0.8h3.4v0.8Z" transform="translate(-164.1 -527)"/><path class="cls-5" d="M399.5,765.6l-0.5.9a5.1,5.1,0,0,1-2.3-2,5.3,5.3,0,0,1-2.5,2.3l-0.5-.9a3.7,3.7,0,0,0,2.5-3.4v-0.2h-1.9v-0.9h4.9v0.9h-1.9v0.2A3.3,3.3,0,0,0,399.5,765.6Zm2.5,4.7h-6.6v-3.1h1v2.2H402v0.9Zm-0.2-2.5h-1v-3.6h-1.8v-1h1.8v-2.4h1v7Z" transform="translate(-164.1 -527)"/><path class="cls-5" d="M408.7,766.4a26,26,0,0,1-4,.2h-1.5v-3h3.4v-1.3h-3.4v-0.9h4.4v3h-3.4v1.3h0.6a26.8,26.8,0,0,0,4-.2v0.9Zm1.5,4.2h-1v-2.2h-5.4v-0.9h6.3v3.1Zm1.4-5.1h-1.4v1.4h-1v-6h1v1.6h1.4v0.9h-1.4v1.3h1.4v0.9Z" transform="translate(-164.1 -527)"/><path class="cls-5" d="M171.4,809.5v-6.3l-1.3,1.2v-0.8l1.3-1.1h0.7v7.1h-0.7Z" transform="translate(-164.1 -527)"/><path class="cls-5" d="M176.7,809.6a1.9,1.9,0,0,1-1.9-2v-3.3a1.9,1.9,0,1,1,3.9,0v3.3A1.9,1.9,0,0,1,176.7,809.6Zm1.2-5.2a1.2,1.2,0,1,0-2.5,0v3.2a1.2,1.2,0,1,0,2.5,0v-3.2Z" transform="translate(-164.1 -527)"/><path class="cls-5" d="M180.4,806.5v-0.9h0.9v0.9h-0.9Zm0,3v-0.9h0.9v0.9h-0.9Z" transform="translate(-164.1 -527)"/><path class="cls-5" d="M186.3,809a1.9,1.9,0,0,1-1.4.5,2,2,0,0,1-1.4-.5,1.9,1.9,0,0,1-.5-1.2h0.7a1.1,1.1,0,0,0,1.2,1.1,1.2,1.2,0,0,0,.9-0.3,2,2,0,0,0,.4-1.4c0-.9-0.2-1.7-1.2-1.7a1.1,1.1,0,0,0-1.2.7h-0.6v-3.7h3.6V803h-2.9v2.3a1.7,1.7,0,0,1,1.3-.5,1.7,1.7,0,0,1,1.2.4,2.6,2.6,0,0,1,.6,1.9A2.5,2.5,0,0,1,186.3,809Z" transform="translate(-164.1 -527)"/><path class="cls-5" d="M190.1,809.6a1.9,1.9,0,0,1-1.9-2v-3.3a1.9,1.9,0,1,1,3.9,0v3.3A1.9,1.9,0,0,1,190.1,809.6Zm1.2-5.2a1.2,1.2,0,1,0-2.5,0v3.2a1.2,1.2,0,1,0,2.5,0v-3.2Z" transform="translate(-164.1 -527)"/><path class="cls-5" d="M193.4,807.1v-0.7h2.7v0.7h-2.7Z" transform="translate(-164.1 -527)"/><path class="cls-5" d="M199.3,809.5v-6.3l-1.3,1.2v-0.8l1.3-1.1H200v7.1h-0.7Z" transform="translate(-164.1 -527)"/><path class="cls-5" d="M204.5,809.5v-6.3l-1.3,1.2v-0.8l1.3-1.1h0.7v7.1h-0.7Z" transform="translate(-164.1 -527)"/><path class="cls-5" d="M208.3,806.5v-0.9h0.9v0.9h-0.9Zm0,3v-0.9h0.9v0.9h-0.9Z" transform="translate(-164.1 -527)"/><path class="cls-5" d="M212.7,809.5v-6.3l-1.3,1.2v-0.8l1.3-1.1h0.7v7.1h-0.7Z" transform="translate(-164.1 -527)"/><path class="cls-5" d="M217.9,809.6a1.9,1.9,0,0,1-1.9-2v-3.3a1.9,1.9,0,1,1,3.9,0v3.3A1.9,1.9,0,0,1,217.9,809.6Zm1.2-5.2a1.2,1.2,0,1,0-2.5,0v3.2a1.2,1.2,0,1,0,2.5,0v-3.2Z" transform="translate(-164.1 -527)"/><path class="cls-6" d="M233.9,801.9c-0.1,3-2.2,4.7-4.7,5.2l-0.3-.9c1.6-.4,3.4-1.1,3.7-3.1h-3.2v-1.1h4.6Zm2.8,7.3c0,1.2-1.2,2-3.4,2s-3.4-.8-3.4-2,1.4-2.1,3.4-2.1S236.8,808,236.8,809.2Zm-1.2,0c0-.7-1.1-1-2.2-1s-2.2.4-2.2,1,1,1,2.2,1S235.6,809.9,235.6,809.2Zm2.2-4.3h-1.3V807h-1.2v-5.7h1.2v2.5h1.3v1.1Z" transform="translate(-164.1 -527)"/><path class="cls-6" d="M243.3,804.1a2.5,2.5,0,1,1-2.5-2.5A2.5,2.5,0,0,1,243.3,804.1Zm-1.2,0a1.4,1.4,0,1,0-2.7,0A1.4,1.4,0,1,0,242.2,804.1Zm4.2,6.7h-6.8v-3.2h1.1v2.1h5.7v1.1Zm-0.2-2.5H245v-2.5h-1.4v-1.1H245v-0.9h-1.4v-1.1H245v-1.4h1.2v7Z" transform="translate(-164.1 -527)"/><path class="cls-6" d="M252.3,808a2.4,2.4,0,0,1-2.7,2.3,5.6,5.6,0,0,1-2.4-.6l0.2-1.2a4.9,4.9,0,0,0,2.1.6c0.8,0,1.6-.2,1.6-1.1s-0.9-1.3-1.7-1.3h-0.9v-1.2h0.8a1.3,1.3,0,0,0,1.5-1.4c0-.7-0.5-0.9-1.3-0.9a3.9,3.9,0,0,0-1.9.7l-0.2-1.2a4.1,4.1,0,0,1,2.2-.7,2.2,2.2,0,0,1,2.4,2.1A2.1,2.1,0,0,0,252.3,808Z" transform="translate(-164.1 -527)"/><path class="cls-6" d="M254.8,810.8h-1.4v-1.5h1.4v1.5Z" transform="translate(-164.1 -527)"/><path class="cls-5" d="M267.3,807.8h-4V811h-1v-3.2h-4v-0.9h9v0.9Zm-1.2-2h-6.5v-4.3h1v1.2h4.6v-1.2h1v4.3Zm-1-.9v-1.3h-4.6V805h4.6Z" transform="translate(-164.1 -527)"/><path class="cls-5" d="M273.6,806.2l-0.5.8a5.6,5.6,0,0,1-2.5-2.5,5.9,5.9,0,0,1-2.5,2.6l-0.6-.7a4.5,4.5,0,0,0,2.5-4.1v-0.8h1v0.8A3.9,3.9,0,0,0,273.6,806.2Zm2.2,4.6h-6.3v-3h1v2.1h5.3v0.9Zm1-5.7h-1.3v3.2h-1v-7h1v2.9h1.3v0.9Z" transform="translate(-164.1 -527)"/><path class="cls-5" d="M282.6,803.6h-5.4v-0.8h5.4v0.8Zm-0.3,2c0,0.9-.8,1.6-2.3,1.6s-2.3-.7-2.3-1.6,0.9-1.6,2.3-1.6S282.4,804.8,282.4,805.6Zm2.9,3.8c0,1.1-1.2,1.8-3.4,1.8s-3.3-.7-3.3-1.8,1.2-1.8,3.3-1.8S285.2,808.3,285.2,809.4Zm-4-7.3h-2.5v-0.8h2.5v0.8Zm0.1,3.5c0-.5-0.4-0.8-1.3-0.8s-1.3.3-1.3,0.8,0.4,0.8,1.3.8S281.3,806.2,281.3,805.6Zm2.8,3.8c0-.6-0.7-1-2.2-1s-2.2.4-2.2,1,0.7,1,2.2,1S284.1,810,284.1,809.4Zm1-1.9h-1v-1.1h-1.4v-0.9h1.4v-1h-1.3v-0.9h1.3v-2.3h1v6.2Z" transform="translate(-164.1 -527)"/><path class="cls-5" d="M298.1,809.7h-9v-0.9h9v0.9Zm-0.5-3.3-0.4.9a5.5,5.5,0,0,1-3.5-2.9,5.4,5.4,0,0,1-3.5,2.9l-0.4-.9a4.3,4.3,0,0,0,3.4-3.9V802h1.1v0.6C294.1,804.3,295.6,805.9,297.5,806.4Z" transform="translate(-164.1 -527)"/><path class="cls-5" d="M303.4,809H299v-6.4h4.3V809Zm-1-.9v-4.6H300v4.6h2.4Zm5.1-1.8H306V811h-1v-9.7h1v3.9h1.4v1Z" transform="translate(-164.1 -527)"/><path class="cls-5" d="M316.6,809.7h-9v-0.9h9v0.9Zm-1.1-2.3h-6.6v-5.2h6.5v0.9h-5.5v1.2h5.5v0.9h-5.5v1.2h5.7v0.9Z" transform="translate(-164.1 -527)"/><path class="cls-5" d="M322.9,803.6h-5.6v-0.8h5.6v0.8Zm-0.4,2c0,0.9-.9,1.6-2.4,1.6s-2.4-.6-2.4-1.6,1-1.5,2.4-1.5S322.5,804.7,322.5,805.6Zm2.4,3.8c0,1.1-1.1,1.8-3.3,1.8s-3.3-.8-3.3-1.8,1.1-1.8,3.3-1.8S324.9,808.3,324.9,809.4Zm-3.5-7.3h-2.8v-0.8h2.8v0.8Zm0,3.5c0-.5-0.5-0.8-1.4-0.8s-1.4.3-1.4,0.8,0.5,0.8,1.4.8S321.5,806.1,321.5,805.6Zm2.3,3.8c0-.6-0.7-1-2.2-1s-2.2.4-2.2,1,0.7,1,2.2,1S323.8,810,323.8,809.4Zm2.3-4.7h-1.3v2.6h-1v-6.1h1v2.5H326v0.9Z" transform="translate(-164.1 -527)"/><path class="cls-5" d="M335.1,809.8h-9v-0.9h4v-2h1v2h4v0.9Zm-1.1-3.3h-6.7v-4.6h1v3.7H334v0.9Z" transform="translate(-164.1 -527)"/><path class="cls-5" d="M341.9,809.4h-6.3v-0.9h2.7v-0.8h1.1v0.8h2.6v0.9Zm-0.6-5.4H336v-0.9h5.3V804Zm-0.3,2c0,0.9-.9,1.6-2.2,1.6s-2.2-.6-2.2-1.6,0.9-1.6,2.2-1.6S341,805.1,341,806Zm-1-3.5h-2.6v-0.9H340v0.9ZM340,806a1,1,0,0,0-1.3-.8,0.9,0.9,0,1,0,0,1.6C339.5,806.8,340,806.5,340,806Zm4.6,0.6h-1.4V811h-1v-9.7h1v4.3h1.4v1Z" transform="translate(-164.1 -527)"/><path class="cls-5" d="M353.6,809.8h-9v-0.9h4v-1.7h1v1.7h3.9v0.9Zm-1.1-3h-6.7v-4.6h6.6v0.9h-5.6v2.8h5.7v0.9Z" transform="translate(-164.1 -527)"/><path class="cls-5" d="M360.2,808.3l-0.5.8a5.5,5.5,0,0,1-2.5-2.9,6.6,6.6,0,0,1-2.6,3.2l-0.6-.8c1.3-.8,2.6-2.2,2.6-5.1v-1.5h1v1.5C357.7,806.7,359.3,807.8,360.2,808.3Zm2,2.8h-1v-9.7h1V811Z" transform="translate(-164.1 -527)"/><path class="cls-5" d="M375.1,806.9h-4.2V811h-1v-4.2h-3.8V806h6.5a27.5,27.5,0,0,0,.3-3.2h-5.8v-0.9H374a30,30,0,0,1-.4,4.1h1.5v0.9Z" transform="translate(-164.1 -527)"/><path class="cls-5" d="M384.3,807.3h-4v1.1h2.8V811h-1v-1.8h-5.7v-0.9h2.9v-1.1h-4v-0.9h9v0.9Zm-0.6-2.2-0.4.8c-1.2-.1-3-0.5-3.4-1.4-0.5.8-2.2,1.3-3.5,1.4L376,805c2.3-.3,3.1-1,3.3-1.4h-2.8v-0.9h6.8v0.9h-2.8C380.6,804.1,381.4,804.8,383.7,805Zm-2.1-3h-3.4v-0.8h3.4V802Z" transform="translate(-164.1 -527)"/><path class="cls-5" d="M392.5,806.6h-4.4v-4.8h1v1.6h2.4v-1.6h1v4.8Zm2.9,2.8c0,1.1-1.1,1.9-3.3,1.9s-3.3-.8-3.3-1.9,1.4-1.9,3.3-1.9S395.5,808.2,395.5,809.4Zm-3.9-3.7v-1.4h-2.4v1.4h2.4Zm2.9,3.7c0-.7-1.2-1.1-2.3-1.1s-2.3.3-2.3,1,1.1,1.1,2.3,1.1S394.4,810.1,394.4,809.3Zm2.2-4.5h-1.3v2.3h-1v-5.8h1v2.6h1.3v0.9Z" transform="translate(-164.1 -527)"/><path class="cls-5" d="M402.1,804.1a2.4,2.4,0,1,1-2.4-2.4A2.4,2.4,0,0,1,402.1,804.1Zm-1,0a1.4,1.4,0,1,0-2.8,0A1.4,1.4,0,1,0,401.1,804.1Zm3.8,6.7h-6.4v-3.1h1v2.2h5.4v0.9Zm1.1-6h-1.3v3.5h-1v-7h1v2.6h1.3v1Z" transform="translate(-164.1 -527)"/><path class="cls-5" d="M171.4,852.5v-6.3l-1.3,1.2v-0.8l1.3-1.1h0.7v7.1h-0.7Z" transform="translate(-164.1 -527)"/><path class="cls-5" d="M176.6,852.5v-6.3l-1.3,1.2v-0.8l1.3-1.1h0.7v7.1h-0.7Z" transform="translate(-164.1 -527)"/><path class="cls-5" d="M180.4,849.5v-0.9h0.9v0.9h-0.9Zm0,3v-0.9h0.9v0.9h-0.9Z" transform="translate(-164.1 -527)"/><path class="cls-5" d="M184.8,852.5v-6.3l-1.3,1.2v-0.8l1.3-1.1h0.7v7.1h-0.7Z" transform="translate(-164.1 -527)"/><path class="cls-5" d="M190.1,852.6a1.9,1.9,0,0,1-1.9-2v-3.3a1.9,1.9,0,1,1,3.9,0v3.3A1.9,1.9,0,0,1,190.1,852.6Zm1.2-5.2a1.2,1.2,0,1,0-2.5,0v3.2a1.2,1.2,0,1,0,2.5,0v-3.2Z" transform="translate(-164.1 -527)"/><path class="cls-5" d="M193.4,850.2v-0.7h2.7v0.7h-2.7Z" transform="translate(-164.1 -527)"/><path class="cls-5" d="M199.3,852.5v-6.3l-1.3,1.2v-0.8l1.3-1.1H200v7.1h-0.7Z" transform="translate(-164.1 -527)"/><path class="cls-5" d="M204.5,852.5v-6.3l-1.3,1.2v-0.8l1.3-1.1h0.7v7.1h-0.7Z" transform="translate(-164.1 -527)"/><path class="cls-5" d="M208.3,849.5v-0.9h0.9v0.9h-0.9Zm0,3v-0.9h0.9v0.9h-0.9Z" transform="translate(-164.1 -527)"/><path class="cls-5" d="M210.8,852.5v-0.6l2.8-3.6a1.6,1.6,0,0,0,.4-1,1.2,1.2,0,1,0-2.5,0h-0.7a1.8,1.8,0,0,1,2-1.9,1.8,1.8,0,0,1,2,1.9,2.1,2.1,0,0,1-.6,1.4l-2.5,3.2h3.1v0.6h-3.9Z" transform="translate(-164.1 -527)"/><path class="cls-5" d="M217.9,852.6a1.9,1.9,0,0,1-1.9-2v-3.3a1.9,1.9,0,1,1,3.9,0v3.3A1.9,1.9,0,0,1,217.9,852.6Zm1.2-5.2a1.2,1.2,0,1,0-2.5,0v3.2a1.2,1.2,0,1,0,2.5,0v-3.2Z" transform="translate(-164.1 -527)"/><path class="cls-5" d="M234.9,852.8a3.5,3.5,0,0,1-2.1.5c-2.1,0-3.7-1.5-3.7-4.1s1.6-4.2,3.7-4.2a3.5,3.5,0,0,1,2.1.5v1a4.5,4.5,0,0,0-1.9-.5c-1.7,0-2.7,1.1-2.7,3.2s1.1,3.1,2.7,3.1a4.5,4.5,0,0,0,1.9-.5v1Z" transform="translate(-164.1 -527)"/><path class="cls-5" d="M240.7,850.2a2.7,2.7,0,1,1-2.7-3.1A2.8,2.8,0,0,1,240.7,850.2Zm-1,0c0-1.3-.7-2.1-1.6-2.1s-1.6.8-1.6,2.1,0.7,2.1,1.6,2.1S239.7,851.5,239.7,850.2Z" transform="translate(-164.1 -527)"/><path class="cls-5" d="M243.6,848.2h-0.8v4.9h-1v-4.9h-0.7v-0.9h0.7v-0.6a1.7,1.7,0,0,1,.2-1.1,1.1,1.1,0,0,1,1-.5h0.5v0.9h-0.6a0.8,0.8,0,0,0-.2.7v0.3h0.8v0.9Z" transform="translate(-164.1 -527)"/><path class="cls-5" d="M246.6,848.2h-0.8v4.9h-1v-4.9h-0.7v-0.9h0.7v-0.6a1.7,1.7,0,0,1,.2-1.1,1.1,1.1,0,0,1,1-.5h0.5v0.9H246a0.8,0.8,0,0,0-.2.7v0.3h0.8v0.9Z" transform="translate(-164.1 -527)"/><path class="cls-5" d="M252,850.6h-4.2a1.7,1.7,0,0,0,1.7,1.7,3.4,3.4,0,0,0,2.1-.8v1a3.9,3.9,0,0,1-2.2.7c-1.7,0-2.7-1.2-2.7-3s1-3.1,2.7-3.1S252.1,848.2,252,850.6Zm-1-1a1.4,1.4,0,0,0-1.6-1.6,1.4,1.4,0,0,0-1.6,1.6H251Z" transform="translate(-164.1 -527)"/><path class="cls-5" d="M257.9,850.6h-4.2a1.7,1.7,0,0,0,1.7,1.7,3.4,3.4,0,0,0,2.1-.8v1a3.9,3.9,0,0,1-2.2.7c-1.7,0-2.7-1.2-2.7-3s1-3.1,2.7-3.1S258,848.2,257.9,850.6Zm-1-1a1.4,1.4,0,0,0-1.6-1.6,1.4,1.4,0,0,0-1.6,1.6h3.2Z" transform="translate(-164.1 -527)"/><path class="cls-5" d="M267.5,851c0,1.5-1.2,2.1-2.5,2.1h-3.1v-7.9h2.9c1.5,0,2.4.7,2.4,2A1.7,1.7,0,0,1,266,849,2,2,0,0,1,267.5,851Zm-1.3-3.7c0-.5-0.1-1.1-1.4-1.1h-1.9v2.4h1.7C265.9,848.5,266.2,848,266.2,847.3Zm0.3,3.6c0-.8-0.4-1.4-1.9-1.4h-1.7v2.7H265C266.2,852.2,266.5,851.7,266.5,850.9Z" transform="translate(-164.1 -527)"/><path class="cls-5" d="M271.6,847.3l-0.2,1h-0.5c-0.7,0-1.4.9-1.4,2.1v2.9h-1v-5.8h0.9v0.7a2,2,0,0,1,1.5-.9h0.6Z" transform="translate(-164.1 -527)"/><path class="cls-5" d="M276.9,850.6h-4.2a1.7,1.7,0,0,0,1.7,1.7,3.4,3.4,0,0,0,2.1-.8v1a3.9,3.9,0,0,1-2.2.7c-1.7,0-2.7-1.2-2.7-3s1-3.1,2.7-3.1S277,848.2,276.9,850.6Zm-1-1a1.4,1.4,0,0,0-1.6-1.6,1.4,1.4,0,0,0-1.6,1.6h3.2Z" transform="translate(-164.1 -527)"/><path class="cls-5" d="M282.3,853.2h-1v-0.6a2.8,2.8,0,0,1-2,.8,1.7,1.7,0,0,1-1.8-1.7c-0.1-2.2,1.8-2.3,3.2-2.3h0.6a1.2,1.2,0,0,0-1.4-1.3,3.9,3.9,0,0,0-2,.8v-1a3.6,3.6,0,0,1,2.2-.7,2.1,2.1,0,0,1,2.3,1.9v4.1Zm-1-2.2v-0.7h-0.9c-0.7,0-2,0-2,1.3s0.4,0.8,1,.8S281.3,851.6,281.3,851Z" transform="translate(-164.1 -527)"/><path class="cls-5" d="M288.3,853.1h-1.1l-2.3-2.9-0.4.4v2.5h-1v-7.9h1v4.4l2.5-2.4h1.2l-2.6,2.4Z" transform="translate(-164.1 -527)"/><path class="cls-5" d="M171.4,876.6v-6.3l-1.3,1.2v-0.8l1.3-1.1h0.7v7.1h-0.7Z" transform="translate(-164.1 -527)"/><path class="cls-5" d="M176.6,876.6v-6.3l-1.3,1.2v-0.8l1.3-1.1h0.7v7.1h-0.7Z" transform="translate(-164.1 -527)"/><path class="cls-5" d="M180.4,873.6v-0.9h0.9v0.9h-0.9Zm0,3v-0.9h0.9v0.9h-0.9Z" transform="translate(-164.1 -527)"/><path class="cls-5" d="M182.9,876.6V876l2.8-3.6a1.6,1.6,0,0,0,.4-1,1.2,1.2,0,1,0-2.5,0h-0.7a1.8,1.8,0,0,1,2-1.9,1.8,1.8,0,0,1,2,1.9,2.1,2.1,0,0,1-.6,1.4l-2.5,3.2h3.1v0.6h-3.9Z" transform="translate(-164.1 -527)"/><path class="cls-5" d="M190.1,876.6a1.9,1.9,0,0,1-1.9-2v-3.3a1.9,1.9,0,1,1,3.9,0v3.3A1.9,1.9,0,0,1,190.1,876.6Zm1.2-5.2a1.2,1.2,0,1,0-2.5,0v3.2a1.2,1.2,0,1,0,2.5,0v-3.2Z" transform="translate(-164.1 -527)"/><path class="cls-5" d="M193.4,874.2v-0.7h2.7v0.7h-2.7Z" transform="translate(-164.1 -527)"/><path class="cls-5" d="M199.3,876.6v-6.3l-1.3,1.2v-0.8l1.3-1.1H200v7.1h-0.7Z" transform="translate(-164.1 -527)"/><path class="cls-5" d="M204.5,876.6v-6.3l-1.3,1.2v-0.8l1.3-1.1h0.7v7.1h-0.7Z" transform="translate(-164.1 -527)"/><path class="cls-5" d="M208.3,873.6v-0.9h0.9v0.9h-0.9Zm0,3v-0.9h0.9v0.9h-0.9Z" transform="translate(-164.1 -527)"/><path class="cls-5" d="M214.2,876.1a1.9,1.9,0,0,1-1.4.5,2,2,0,0,1-1.4-.5,1.9,1.9,0,0,1-.5-1.2h0.7a1.1,1.1,0,0,0,1.2,1.1,1.2,1.2,0,0,0,.9-0.3,2,2,0,0,0,.4-1.4c0-.9-0.2-1.7-1.2-1.7a1.1,1.1,0,0,0-1.2.7H211v-3.7h3.6v0.6h-2.9v2.3a1.7,1.7,0,0,1,1.3-.5,1.7,1.7,0,0,1,1.2.4,2.6,2.6,0,0,1,.6,1.9A2.5,2.5,0,0,1,214.2,876.1Z" transform="translate(-164.1 -527)"/><path class="cls-5" d="M217.9,876.6a1.9,1.9,0,0,1-1.9-2v-3.3a1.9,1.9,0,1,1,3.9,0v3.3A1.9,1.9,0,0,1,217.9,876.6Zm1.2-5.2a1.2,1.2,0,1,0-2.5,0v3.2a1.2,1.2,0,1,0,2.5,0v-3.2Z" transform="translate(-164.1 -527)"/><path class="cls-5" d="M237.6,877h-9v-0.9h4v-1.4h1v1.4h4V877Zm-1.1-2.7h-6.6v-5.1h6.5v0.9h-5.5v1.2h5.4v0.9h-5.4v1.2h5.6v0.9Z" transform="translate(-164.1 -527)"/><path class="cls-5" d="M246.9,874.8h-9v-0.9h3.9v-1h-2.7v-2.6h5.4v-0.9h-5.4v-0.8h6.5v2.5h-5.4v0.9h5.7v0.8h-3v1h4v0.9Zm-0.9,3.1h-6.8v-2.6h1V877h5.8v0.9Z" transform="translate(-164.1 -527)"/><path class="cls-5" d="M255.2,872.8h-4.3V869h4.3v3.9Zm3.4,4.4-0.3.8a5.4,5.4,0,0,1-3.3-1.5,5.6,5.6,0,0,1-3.4,1.5l-0.3-.8c1.6-.2,2.9-1,3-1.5h-2.8v-0.8h6.7v0.8h-2.7C255.8,876.2,256.9,877.1,258.6,877.3Zm-4.4-5.3v-2.1h-2.4V872h2.4Zm2.4,2.3h-3.3v-0.8h3.3v0.8Zm1.6-.3h-1v-5.6h1V874Z" transform="translate(-164.1 -527)"/><path class="cls-5" d="M268.4,872.5l-0.4.9a4.6,4.6,0,0,1-2.4-2,4.6,4.6,0,0,1-2.5,2.2l-0.5-.8a3.5,3.5,0,0,0,2.5-2.9h-1.9V869H268v0.9h-1.9A3.1,3.1,0,0,0,268.4,872.5Zm2.5,5.5h-6.6v-2.5h5.2v-0.7h-5.3V874h6.3v2.4h-5.3v0.8h5.5V878Zm-0.2-4.5h-1v-5.1h1v5.1Z" transform="translate(-164.1 -527)"/><path class="cls-5" d="M278.6,876l-4,.2H272v-0.9h6.6V876Zm-1-4.6a2.5,2.5,0,1,1-2.5-2.3A2.3,2.3,0,0,1,277.6,871.4Zm-1,0a1.5,1.5,0,1,0-1.5,1.5A1.4,1.4,0,0,0,276.5,871.4Zm3.3,6.7h-1v-9.7h1v9.7Z" transform="translate(-164.1 -527)"/><path class="cls-5" d="M289.8,873.7h-9v-0.9h9v0.9Zm-0.9,2.7c0,1.1-1.3,1.9-3.5,1.9s-3.5-.8-3.5-1.9,1.3-1.9,3.5-1.9S288.8,875.4,288.8,876.4Zm-0.2-6.2c0,1.2-1.1,1.8-3.4,1.8s-3.4-.6-3.4-1.8,1.1-1.8,3.4-1.8S288.7,869.2,288.7,870.3Zm-1,6.2c0-.6-0.9-1-2.4-1s-2.4.4-2.4,1,0.8,1,2.4,1S287.7,877,287.7,876.4Zm-0.1-6.2c0-.7-0.9-1-2.3-1s-2.3.3-2.3,1,0.9,1,2.3,1S287.6,870.9,287.6,870.3Z" transform="translate(-164.1 -527)"/><path class="cls-5" d="M296.2,873h-5.5v-4.1h4.6V870h-3.6v2.3h4.5V873Zm1.6,5h-6.1v-4h1v1h4.1v-1h1v4Zm-1-.9V876h-4.1v1.2h4.1Zm2.3-5.6h-1.3v2h-1v-5.1h1v2.2h1.3v0.9Z" transform="translate(-164.1 -527)"/><path class="cls-5" d="M171.4,895.4v-6.3l-1.3,1.2v-0.8l1.3-1.1h0.7v7.1h-0.7Z" transform="translate(-164.1 -527)"/><path class="cls-5" d="M176.6,895.4v-6.3l-1.3,1.2v-0.8l1.3-1.1h0.7v7.1h-0.7Z" transform="translate(-164.1 -527)"/><path class="cls-5" d="M180.4,892.4v-0.9h0.9v0.9h-0.9Zm0,3v-0.9h0.9v0.9h-0.9Z" transform="translate(-164.1 -527)"/><path class="cls-5" d="M186.3,895a1.9,1.9,0,0,1-1.4.5,2,2,0,0,1-1.4-.5,1.9,1.9,0,0,1-.5-1.2h0.7a1.1,1.1,0,0,0,1.2,1.1,1.2,1.2,0,0,0,.9-0.3,2,2,0,0,0,.4-1.4c0-.9-0.2-1.7-1.2-1.7a1.1,1.1,0,0,0-1.2.7h-0.6v-3.7h3.6V889h-2.9v2.3a1.7,1.7,0,0,1,1.3-.5,1.7,1.7,0,0,1,1.2.4,2.6,2.6,0,0,1,.6,1.9A2.5,2.5,0,0,1,186.3,895Z" transform="translate(-164.1 -527)"/><path class="cls-5" d="M190.1,895.5a1.9,1.9,0,0,1-1.9-2v-3.3a1.9,1.9,0,1,1,3.9,0v3.3A1.9,1.9,0,0,1,190.1,895.5Zm1.2-5.2a1.2,1.2,0,1,0-2.5,0v3.2a1.2,1.2,0,1,0,2.5,0v-3.2Z" transform="translate(-164.1 -527)"/><path class="cls-5" d="M193.4,893.1v-0.7h2.7v0.7h-2.7Z" transform="translate(-164.1 -527)"/><path class="cls-5" d="M199.3,895.4v-6.3l-1.3,1.2v-0.8l1.3-1.1H200v7.1h-0.7Z" transform="translate(-164.1 -527)"/><path class="cls-5" d="M202.6,895.4v-0.6l2.8-3.6a1.6,1.6,0,0,0,.4-1,1.2,1.2,0,1,0-2.5,0h-0.7a1.8,1.8,0,0,1,2-1.9,1.8,1.8,0,0,1,2,1.9,2.1,2.1,0,0,1-.6,1.4l-2.5,3.2h3.1v0.6h-3.9Z" transform="translate(-164.1 -527)"/><path class="cls-5" d="M208.3,892.4v-0.9h0.9v0.9h-0.9Zm0,3v-0.9h0.9v0.9h-0.9Z" transform="translate(-164.1 -527)"/><path class="cls-5" d="M212.7,895.5a1.9,1.9,0,0,1-1.9-2v-3.3a1.9,1.9,0,1,1,3.9,0v3.3A1.9,1.9,0,0,1,212.7,895.5Zm1.2-5.2a1.2,1.2,0,1,0-2.5,0v3.2a1.2,1.2,0,1,0,2.5,0v-3.2Z" transform="translate(-164.1 -527)"/><path class="cls-5" d="M217.9,895.5a1.9,1.9,0,0,1-1.9-2v-3.3a1.9,1.9,0,1,1,3.9,0v3.3A1.9,1.9,0,0,1,217.9,895.5Zm1.2-5.2a1.2,1.2,0,1,0-2.5,0v3.2a1.2,1.2,0,1,0,2.5,0v-3.2Z" transform="translate(-164.1 -527)"/><path class="cls-5" d="M234.7,894.2l-0.5.8a5.5,5.5,0,0,1-2.5-2.9,6.6,6.6,0,0,1-2.6,3.2l-0.6-.8c1.3-.8,2.6-2.2,2.6-5.1v-1.5h1v1.5C232.2,892.7,233.9,893.7,234.7,894.2Zm3.1-2h-1.4V897h-1v-9.7h1v4h1.4v0.9Z" transform="translate(-164.1 -527)"/><path class="cls-5" d="M244,892l-0.5.9a5.1,5.1,0,0,1-2.3-2,5.3,5.3,0,0,1-2.5,2.3l-0.5-.9a3.7,3.7,0,0,0,2.5-3.4v-0.2h-1.9v-0.9h4.9v0.9h-1.9v0.2A3.3,3.3,0,0,0,244,892Zm2.5,4.7h-6.6v-3.1h1v2.2h5.6v0.9Zm-0.2-2.5h-1v-7h1v7Z" transform="translate(-164.1 -527)"/><path class="cls-5" d="M253.7,892.6h-6.5v-0.8H250v-1.1h1v1.1h2.7v0.8Zm-0.4-2.1-0.3.7a3.5,3.5,0,0,1-2.3-1.3,3.9,3.9,0,0,1-2.5,1.4l-0.4-.7a3.3,3.3,0,0,0,2.4-1.4h-1.9v-0.8H253v0.8h-1.9A3,3,0,0,0,253.2,890.4Zm1.9,6.4h-6.4v-2.2h5v-0.6h-5.1v-0.8H255v2.2h-5v0.6h5.3v0.8Zm-3.4-9h-2.5v-0.8h2.5v0.8Zm4.4,2.8H255v2.2h-1v-5.6h1v2.5h1.3v0.9Z" transform="translate(-164.1 -527)"/><path class="cls-5" d="M261.8,889.9a2.4,2.4,0,1,1-2.4-2.3A2.3,2.3,0,0,1,261.8,889.9Zm-1,0a1.4,1.4,0,1,0-1.4,1.4A1.3,1.3,0,0,0,260.8,889.9Zm4,5.3c0,1.3-1.2,2-3.4,2s-3.4-.7-3.4-2,1.2-2,3.4-2S264.7,894.1,264.7,895.2Zm-1.1,0c0-.6-0.9-1.1-2.3-1.1s-2.3.4-2.3,1.1,0.8,1.1,2.3,1.1S263.7,895.9,263.7,895.2Zm0.9-2.1h-1v-1.6H262v-0.9h1.5v-1.1H262v-0.9h1.6v-1.3h1v5.8Z" transform="translate(-164.1 -527)"/><path class="cls-5" d="M273.7,891.7h-4.3v-3.9h4.3v3.9Zm3.4,4.4-0.3.8a5.4,5.4,0,0,1-3.3-1.5,5.6,5.6,0,0,1-3.4,1.5l-0.3-.8c1.6-.2,2.9-1,3-1.5h-2.8v-0.8h6.7v0.8h-2.7C274.3,895.1,275.4,895.9,277.1,896.1Zm-4.4-5.3v-2.1h-2.4v2.1h2.4Zm2.4,2.3h-3.3v-0.8h3.3v0.8Zm1.6-.3h-1v-5.6h1v5.6Z" transform="translate(-164.1 -527)"/><path class="cls-5" d="M285.8,894.8H281V894h1v-4.2h1V894h0.9v-4.2h1V894h0.9v0.9Zm-0.3-5.5h-4.3v-0.9h4.3v0.9Zm1.8,7.2h-0.9v-3.3h-1v-0.9h1v-1.2h-1v-0.9h1v-2.8h0.9v9Zm1.8,0.5h-0.9v-9.7h0.9V897Z" transform="translate(-164.1 -527)"/><path class="cls-5" d="M296.9,895.4h-6.5v-0.9h2.8v-0.8h1.1v0.8h2.7v0.9Zm-0.6-5.4h-5.4v-0.9h5.4V890Zm-0.4,2c0,0.9-1,1.6-2.3,1.6s-2.3-.6-2.3-1.6,1-1.6,2.3-1.6S296,891.1,296,892Zm-1-3.5h-2.7v-0.9H295v0.9Zm0,3.5a1.1,1.1,0,0,0-1.3-.8,0.9,0.9,0,1,0,0,1.6C294.4,892.7,295,892.4,295,892Zm3.2,5h-1v-9.7h1V897Z" transform="translate(-164.1 -527)"/><path class="cls-5" d="M171.4,913v-6.3l-1.3,1.2V907l1.3-1.1h0.7V913h-0.7Z" transform="translate(-164.1 -527)"/><path class="cls-5" d="M174.7,913v-0.6l2.8-3.6a1.6,1.6,0,0,0,.4-1,1.2,1.2,0,1,0-2.5,0h-0.7a1.8,1.8,0,0,1,2-1.9,1.8,1.8,0,0,1,2,1.9,2.1,2.1,0,0,1-.6,1.4l-2.5,3.2h3.1V913h-3.9Z" transform="translate(-164.1 -527)"/><path class="cls-5" d="M180.4,909.9V909h0.9v0.9h-0.9Zm0,3V912h0.9V913h-0.9Z" transform="translate(-164.1 -527)"/><path class="cls-5" d="M184.9,913a1.9,1.9,0,0,1-1.9-2v-3.3a1.9,1.9,0,1,1,3.9,0v3.3A1.9,1.9,0,0,1,184.9,913Zm1.2-5.2a1.2,1.2,0,1,0-2.5,0V911a1.2,1.2,0,1,0,2.5,0v-3.2Z" transform="translate(-164.1 -527)"/><path class="cls-5" d="M190.1,913a1.9,1.9,0,0,1-1.9-2v-3.3a1.9,1.9,0,1,1,3.9,0v3.3A1.9,1.9,0,0,1,190.1,913Zm1.2-5.2a1.2,1.2,0,1,0-2.5,0V911a1.2,1.2,0,1,0,2.5,0v-3.2Z" transform="translate(-164.1 -527)"/><path class="cls-5" d="M193.4,910.6v-0.7h2.7v0.7h-2.7Z" transform="translate(-164.1 -527)"/><path class="cls-5" d="M199.3,913v-6.3l-1.3,1.2V907l1.3-1.1H200V913h-0.7Z" transform="translate(-164.1 -527)"/><path class="cls-5" d="M204.4,913a1.9,1.9,0,0,1-2.1-1.9h0.7a1.3,1.3,0,0,0,1.4,1.2,1.3,1.3,0,0,0,1.4-1.4,1.2,1.2,0,0,0-1.4-1.4h-0.1V909h0.1a1.1,1.1,0,0,0,1.3-1.3,1.2,1.2,0,0,0-1.2-1.3,1.2,1.2,0,0,0-1.3,1.2h-0.7a1.9,1.9,0,0,1,2-1.8,1.8,1.8,0,0,1,2,1.9,1.6,1.6,0,0,1-1,1.6,1.7,1.7,0,0,1,1.1,1.7A1.9,1.9,0,0,1,204.4,913Z" transform="translate(-164.1 -527)"/><path class="cls-5" d="M208.3,909.9V909h0.9v0.9h-0.9Zm0,3V912h0.9V913h-0.9Z" transform="translate(-164.1 -527)"/><path class="cls-5" d="M212.7,913a1.9,1.9,0,0,1-1.9-2v-3.3a1.9,1.9,0,1,1,3.9,0v3.3A1.9,1.9,0,0,1,212.7,913Zm1.2-5.2a1.2,1.2,0,1,0-2.5,0V911a1.2,1.2,0,1,0,2.5,0v-3.2Z" transform="translate(-164.1 -527)"/><path class="cls-5" d="M217.9,913a1.9,1.9,0,0,1-1.9-2v-3.3a1.9,1.9,0,1,1,3.9,0v3.3A1.9,1.9,0,0,1,217.9,913Zm1.2-5.2a1.2,1.2,0,1,0-2.5,0V911a1.2,1.2,0,1,0,2.5,0v-3.2Z" transform="translate(-164.1 -527)"/><path class="cls-5" d="M231.4,914.9h-0.7a8.1,8.1,0,0,1,0-10.7h0.7A9.3,9.3,0,0,0,231.4,914.9Z" transform="translate(-164.1 -527)"/><path class="cls-5" d="M237.7,911.8l-0.5.8a5.5,5.5,0,0,1-2.5-2.9,6.6,6.6,0,0,1-2.6,3.2l-0.6-.8c1.3-.8,2.6-2.2,2.6-5.1v-1.5h1v1.5C235.2,910.2,236.8,911.2,237.7,911.8Zm3.1-2h-1.4v4.8h-1v-9.7h1v4h1.4v0.9Z" transform="translate(-164.1 -527)"/><path class="cls-5" d="M243.4,909.6a7.5,7.5,0,0,1-2,5.3h-0.7a9.3,9.3,0,0,0,0-10.7h0.7A7.6,7.6,0,0,1,243.4,909.6Z" transform="translate(-164.1 -527)"/><path class="cls-5" d="M249.8,907.2h-5.6v-0.9h5.6v0.9Zm-0.4,2.2c0,0.9-.9,1.7-2.4,1.7s-2.4-.8-2.4-1.7,0.9-1.7,2.4-1.7S249.4,908.5,249.4,909.4Zm2.5,4.9h-6.4v-2.7h1.1v1.8h5.3v0.9Zm-3.6-8.7h-2.8v-0.8h2.8v0.8Zm0,3.8c0-.6-0.4-0.9-1.3-0.9s-1.3.3-1.3,0.9,0.4,0.9,1.3.9S248.3,909.9,248.3,909.4Zm4.6-.7h-1.3V912h-1v-7.2h1v3H253v0.9Z" transform="translate(-164.1 -527)"/><path class="cls-5" d="M262,909.6h-4.1v1.8h2.9v3.1h-1v-2.2h-5.6v-0.9h2.7v-1.8h-3.8v-0.9h6.6a25.4,25.4,0,0,0,.2-2.6h-5.8v-0.9H261a26.1,26.1,0,0,1-.3,3.5H262v0.9Z" transform="translate(-164.1 -527)"/><path class="cls-5" d="M268.3,907.1h-5.6v-0.8h5.6v0.8Zm-0.4,2c0,0.9-.9,1.6-2.4,1.6s-2.4-.6-2.4-1.6,1-1.5,2.4-1.5S267.9,908.2,267.9,909.1Zm2.4,3.8c0,1.1-1.1,1.8-3.3,1.8s-3.3-.8-3.3-1.8,1.1-1.8,3.3-1.8S270.3,911.8,270.3,912.9Zm-3.5-7.3h-2.8v-0.8h2.8v0.8Zm0,3.5c0-.5-0.5-0.8-1.4-0.8s-1.4.3-1.4,0.8,0.5,0.8,1.4.8S266.9,909.6,266.9,909.1Zm2.3,3.8c0-.6-0.7-1-2.2-1s-2.2.4-2.2,1,0.7,1,2.2,1S269.2,913.5,269.2,912.9Zm2.3-4.7h-1.3v2.6h-1v-6.1h1v2.5h1.3v0.9Z" transform="translate(-164.1 -527)"/><path class="cls-5" d="M280.5,913.3h-9v-0.9h4v-2h1v2h4v0.9Zm-1.1-3.3h-6.7v-4.6h1v3.7h5.7V910Z" transform="translate(-164.1 -527)"/><path class="cls-5" d="M287.4,912.9H281v-0.9h2.7v-0.8h1.1v0.8h2.6v0.9Zm-0.6-5.4h-5.3v-0.9h5.3v0.9Zm-0.3,2c0,0.9-.9,1.6-2.2,1.6s-2.2-.6-2.2-1.6,0.9-1.6,2.2-1.6S286.4,908.6,286.4,909.5Zm-1-3.5h-2.6v-0.9h2.6V906Zm0.1,3.5a1,1,0,0,0-1.3-.8,0.9,0.9,0,1,0,0,1.6C285,910.2,285.5,909.9,285.5,909.5ZM290,910h-1.4v4.5h-1v-9.7h1v4.3H290v1Z" transform="translate(-164.1 -527)"/><path class="cls-5" d="M295.8,907h-5.4v-0.8h5.4V907Zm-0.3,1.9c0,0.9-.8,1.5-2.3,1.5s-2.3-.6-2.3-1.5,0.8-1.5,2.3-1.5S295.6,908.1,295.6,908.9Zm-1.2-3.4h-2.5v-0.8h2.5v0.8Zm3.9,8.8H292v-3.6h1v0.9h4.3v-0.9h1v3.6Zm-3.8-5.5c0-.4-0.3-0.7-1.2-0.7s-1.3.2-1.3,0.7,0.4,0.7,1.3.7S294.5,909.4,294.5,908.9Zm2.8,4.7v-1H293v1h4.3Zm1-3.2h-1v-0.7h-1.4v-0.9h1.4v-0.9H296V907h1.3v-2.2h1v5.5Z" transform="translate(-164.1 -527)"/><path class="cls-5" d="M306.2,912.9h-6.5v-0.9h2.8v-0.8h1.1v0.8h2.7v0.9Zm-0.6-5.4h-5.4v-0.9h5.4v0.9Zm-0.4,2c0,0.9-1,1.6-2.3,1.6s-2.3-.6-2.3-1.6,1-1.6,2.3-1.6S305.2,908.6,305.2,909.5Zm-1-3.5h-2.7v-0.9h2.7V906Zm0,3.5a1.1,1.1,0,0,0-1.3-.8,0.9,0.9,0,1,0,0,1.6C303.7,910.3,304.3,909.9,304.3,909.5Zm3.2,5h-1v-9.7h1v9.7Z" transform="translate(-164.1 -527)"/><path class="cls-5" d="M316.8,909.1c0,2.6-1.2,3.6-2.3,3.6s-2.3-1-2.3-3.6,1.3-3.6,2.3-3.6S316.8,906.5,316.8,909.1Zm-1,0c0-1.5-.5-2.6-1.3-2.6s-1.4,1.1-1.4,2.6,0.5,2.6,1.4,2.6S315.9,910.6,315.9,909.1Zm3.8,5.4h-1v-9.7h1v9.7Z" transform="translate(-164.1 -527)"/><path class="cls-5" d="M326.9,911.8l-0.5.8a5.5,5.5,0,0,1-2.5-2.9,6.6,6.6,0,0,1-2.6,3.2l-0.6-.8c1.3-.8,2.6-2.2,2.6-5.1v-1.5h1v1.5C324.4,910.2,326,911.2,326.9,911.8Zm3.1-2h-1.4v4.8h-1v-9.7h1v4H330v0.9Z" transform="translate(-164.1 -527)"/><path class="cls-5" d="M336.9,912.9h-6.5v-0.9h2.8v-0.8h1.1v0.8h2.7v0.9Zm-0.6-5.4h-5.4v-0.9h5.4v0.9Zm-0.4,2c0,0.9-1,1.6-2.3,1.6s-2.3-.6-2.3-1.6,1-1.6,2.3-1.6S336,908.6,336,909.5Zm-1-3.5h-2.7v-0.9H335V906Zm0,3.5a1.1,1.1,0,0,0-1.3-.8,0.9,0.9,0,1,0,0,1.6C334.4,910.3,335,909.9,335,909.5Zm3.2,5h-1v-9.7h1v9.7Z" transform="translate(-164.1 -527)"/></svg>