<svg id="Layer_1" data-name="Layer 1" xmlns="http://www.w3.org/2000/svg" viewBox="0 0 387 75.9"><defs><style>.cls-1{fill:#fff;}</style></defs><title>logo_chemp</title><g id="Layer_1-2" data-name="Layer 1-2"><polygon class="cls-1" points="121.3 28.8 93.8 28.8 93.8 0.1 76 0.1 76 28.8 76 46.6 76 75.3 93.8 75.3 93.8 46.6 121.3 46.6 121.3 75.3 139.1 75.3 139.1 46.6 139.1 28.8 139.1 0.1 121.3 0.1 121.3 28.8"/><path class="cls-1" d="M0,20.6V54.8A20.5,20.5,0,0,0,20.5,75.3H62.9V57.6H20.5a2.7,2.7,0,0,1-2.7-2.7V20.6a2.7,2.7,0,0,1,2.7-2.7H62.9V0.1H20.5A20.5,20.5,0,0,0,0,20.6H0Z" transform="translate(0 0)"/><path class="cls-1" d="M152.8,20.6v8.2h-0.1V46.6h0.1v8.2a20.5,20.5,0,0,0,20.5,20.5h42.4V57.6H173.4a2.7,2.7,0,0,1-2.7-2.7h0V46.7H198V28.8H170.6V20.6a2.7,2.7,0,0,1,2.7-2.7h42.4V0.1H173.4a20.5,20.5,0,0,0-20.6,20.4h0Z" transform="translate(0 0)"/><path class="cls-1" d="M366.5,0.6h-22A20.5,20.5,0,0,0,324,21.1h0V75.9h17.8v-29h24.7A20.6,20.6,0,0,0,387,26.3V21A20.6,20.6,0,0,0,366.5.6Zm2.7,25.8a2.8,2.8,0,0,1-2.7,2.8H341.8V21.1a2.7,2.7,0,0,1,2.7-2.7h22a2.8,2.8,0,0,1,2.7,2.8v5.3h0Z" transform="translate(0 0)"/><path class="cls-1" d="M289.8,0h-8.3a20.4,20.4,0,0,0-11.6,3.6A20.4,20.4,0,0,0,258.3,0H250a20.5,20.5,0,0,0-20.5,20.3h0V75.4h17.8V20.5h0a2.7,2.7,0,0,1,2.7-2.7h8.3a2.8,2.8,0,0,1,2.7,2.8h0V75.4h17.8V20.5h0a2.7,2.7,0,0,1,2.7-2.7h8.3a2.8,2.8,0,0,1,2.7,2.8h0V75.4h17.8V20.5h0A20.6,20.6,0,0,0,289.8,0Z" transform="translate(0 0)"/></g></svg>