<svg id="Layer_1" data-name="Layer 1" xmlns="http://www.w3.org/2000/svg" viewBox="0 0 311.8 215.6"><defs><style>.cls-1{fill:#e6e7e8;}.cls-2{fill:#f78f35;}.cls-3,.cls-4{fill:none;stroke:#f78f35;stroke-miterlimit:10;}.cls-3{stroke-width:0.28px;}.cls-4{stroke-width:1.13px;}.cls-5{fill:#231f20;}</style></defs><title>seas_program_m</title><rect class="cls-1" x="238.1" y="93.7" width="73.7" height="22.68"/><path class="cls-2" d="M429.7,343.7H424v-1.2l2.9-3.3,0.6-.8a1.8,1.8,0,0,0,.2-0.9,0.9,0.9,0,0,0-.4-0.8l-0.8-.2-1.1.2-1,.4-0.4-1.3,1.2-.4,1.4-.2a3,3,0,0,1,2.1.6,2.4,2.4,0,0,1,.6,1.8,2.9,2.9,0,0,1-.3,1.4l-0.9,1.2-2.1,2.3h3.5v1.4Z" transform="translate(-164.1 -235.1)"/><path class="cls-2" d="M436.6,343.7h-5.3v-1.4h1.8v-5.5a0.4,0.4,0,0,0-.1-0.3h-1.5v-1.4h2.4a0.9,0.9,0,0,1,.7.2,1.1,1.1,0,0,1,.2.7v6.2h1.7v1.4Z" transform="translate(-164.1 -235.1)"/><path class="cls-2" d="M443.9,343.7h-5.7v-1.2l2.9-3.3,0.6-.8a1.8,1.8,0,0,0,.2-0.9,0.9,0.9,0,0,0-.4-0.8l-0.8-.2-1.1.2-1,.4-0.4-1.3,1.2-.4,1.4-.2a3,3,0,0,1,2.1.6,2.4,2.4,0,0,1,.6,1.8,2.9,2.9,0,0,1-.3,1.4l-0.9,1.2-2.1,2.3h3.5v1.4Z" transform="translate(-164.1 -235.1)"/><path class="cls-2" d="M452,340.3a2.9,2.9,0,0,1-1.6.8v1.2h4.1v1.3h-9.6v-1.3h3.8v-1.2a2.8,2.8,0,0,1-1.5-.8,2.3,2.3,0,0,1-.6-1.6,2.6,2.6,0,0,1,.1-0.7l0.3-.6h-1.2V336h2.8a1,1,0,0,0,.1-0.4,1.5,1.5,0,0,0,0-.4v-0.4l1.7-.4a3,3,0,0,1,.1.9,1.5,1.5,0,0,1-.2.8h3.1v1.3h-1.2l0.3,0.6a2.5,2.5,0,0,1,.1.7A2.2,2.2,0,0,1,452,340.3Zm-1.4-2.5a1.2,1.2,0,0,0-1-.4,1.2,1.2,0,0,0-1,.4,1.4,1.4,0,0,0-.3.9,1.3,1.3,0,0,0,.3.9,1.2,1.2,0,0,0,1,.4,1.2,1.2,0,0,0,1-.4,1.3,1.3,0,0,0,.3-0.9A1.4,1.4,0,0,0,450.6,337.8Z" transform="translate(-164.1 -235.1)"/><line class="cls-3" y1="0.1" x2="311.8" y2="0.1"/><line class="cls-4" y1="116.4" x2="311.8" y2="116.4"/><path class="cls-2" d="M185.3,257.7a0.9,0.9,0,0,0,.2.7l0.8,0.2h7.9a19,19,0,0,0,3.6-.7l0.5,2.4a17.6,17.6,0,0,1-3.3.7l-3.4.2v2.1h9.3v2.5H179.4v-2.5h9v-2.1h-2.9a4.7,4.7,0,0,1-2.4-.6,2.2,2.2,0,0,1-1-2.1v-5.7h15.5v2.5H185.3v2.5Zm10.9,17a5,5,0,0,1-1.5,1.7,6.3,6.3,0,0,1-2.1,1,9.6,9.6,0,0,1-2.6.3,9.7,9.7,0,0,1-2.6-.3,6.6,6.6,0,0,1-2.1-1,4.9,4.9,0,0,1-1.5-1.7,4.9,4.9,0,0,1,1.5-6.3,6.5,6.5,0,0,1,2.1-1,9.8,9.8,0,0,1,5.2,0,6.2,6.2,0,0,1,2.1,1,4.8,4.8,0,0,1,2,4A4.7,4.7,0,0,1,196.2,274.7Zm-3.7-4.5a4.2,4.2,0,0,0-2.5-.7,4.3,4.3,0,0,0-2.5.7,2.8,2.8,0,0,0,0,4.3,4.4,4.4,0,0,0,2.5.7,4.3,4.3,0,0,0,2.5-.7A2.8,2.8,0,0,0,192.6,270.2Z" transform="translate(-164.1 -235.1)"/><path class="cls-2" d="M207.2,264.3a2.9,2.9,0,0,1-2.1-.7,2.9,2.9,0,0,1-.6-2.1v-8.5h3.2V261a0.9,0.9,0,0,0,.2.6l0.6,0.2H212l3.4-.3a12,12,0,0,0,3.9-1.3v-7.4h3.2V258h3.9v2.5h-3.9v3.3a3.9,3.9,0,0,1-.5,2,5.2,5.2,0,0,1-1.1,1.4,1.6,1.6,0,0,1,1.2.7,2.6,2.6,0,0,1,.3,1.6l-0.4,6.7a0.8,0.8,0,0,1-.4.7l-0.9.2H209.6a4.1,4.1,0,0,1-2.3-.5,2.4,2.4,0,0,1-.8-2.1v-7.3h11.7a2.9,2.9,0,0,0,.9-1.5,7.2,7.2,0,0,0,.3-1.9v-0.9l-1.8.7-1.9.5-1.9.3h-6.5Zm11.9,10.2v-4.8h-9.4v3.8a1.2,1.2,0,0,0,.2.8,1.2,1.2,0,0,0,.9.2h8.3Z" transform="translate(-164.1 -235.1)"/><path class="cls-2" d="M228.5,261.2h10.1a19,19,0,0,0,.5-2.8q0.1-1.3.2-2.1a0.5,0.5,0,0,0-.2-0.5H230v-2.6h10.2a2.4,2.4,0,0,1,1.6.5,2.3,2.3,0,0,1,.5,1.7,20.3,20.3,0,0,1-.2,2.6q-0.2,1.5-.5,2.8l1.1-.2,1.1-.3,0.5,2.4a12.9,12.9,0,0,1-3.8.9l-4.1.2v4h-3.2v-4h-4.9v-2.5Zm7.1,12.2a0.8,0.8,0,0,0,.2.6l0.6,0.2H243l3.1-.2a15.7,15.7,0,0,0,3-.7l0.6,2.4-1.7.5-1.5.3h-11a3.6,3.6,0,0,1-2.3-.6,2.4,2.4,0,0,1-.8-2v-5.1h3.2v4.3Zm13.2-3.3h-3.2v-2.7h-4.7V265h4.7V252.7h3.2v17.4Z" transform="translate(-164.1 -235.1)"/><path class="cls-2" d="M266.3,257.2h-2a5.4,5.4,0,0,1,.7,1.3,4.6,4.6,0,0,1,.2,1.5,4.9,4.9,0,0,1-.4,2.1,5.1,5.1,0,0,1-1.2,1.7,5.9,5.9,0,0,1-1.9,1.1,7.3,7.3,0,0,1-2.4.4,7.6,7.6,0,0,1-2.5-.4,5.6,5.6,0,0,1-1.9-1.1,4.6,4.6,0,0,1-1.2-1.7,5.1,5.1,0,0,1-.4-2.1,4.9,4.9,0,0,1,.2-1.5,5,5,0,0,1,.6-1.3h-2v-2.5h5.3a2.4,2.4,0,0,0,.2-0.8,4.3,4.3,0,0,0,0-1v-0.5l-0.2-.5,3.1-.9,0.3,0.9a3.9,3.9,0,0,1,.1.8,4.3,4.3,0,0,1-.1,1l-0.3.9h6.1v2.5Zm-5,.9a2.9,2.9,0,0,0-2.2-.8,2.9,2.9,0,0,0-2.2.8,2.8,2.8,0,0,0,0,3.8,2.9,2.9,0,0,0,2.2.8,2.9,2.9,0,0,0,2.2-.8A2.8,2.8,0,0,0,261.3,258.1Zm9.1,16.3a5.6,5.6,0,0,1-1.4,1.8,6.6,6.6,0,0,1-2.1,1.1,8.5,8.5,0,0,1-2.5.4,8.7,8.7,0,0,1-2.6-.4,6.6,6.6,0,0,1-2.1-1.1,5.4,5.4,0,0,1-1.4-6.5,5.4,5.4,0,0,1,1.4-1.8,6.8,6.8,0,0,1,2.1-1.1,8.4,8.4,0,0,1,2.6-.4l1.7,0.2,1.6,0.4a2.9,2.9,0,0,0,.8-1.2,5.3,5.3,0,0,0,.3-1.8V252.7h3.2v5.8h3.9v2.5h-3.9v3a4.8,4.8,0,0,1-.6,2.5,5.8,5.8,0,0,1-1.7,1.8,5.5,5.5,0,0,1,1.1,1.6,5.1,5.1,0,0,1,.4,2.1A5,5,0,0,1,270.4,274.5Zm-3.7-4.6a3.5,3.5,0,0,0-2.5-.8,3.7,3.7,0,0,0-2.5.8,2.9,2.9,0,0,0-1,2.3,2.8,2.8,0,0,0,1,2.3,3.8,3.8,0,0,0,2.5.8,3.7,3.7,0,0,0,2.5-.8,2.8,2.8,0,0,0,.9-2.3A2.9,2.9,0,0,0,266.7,269.8Z" transform="translate(-164.1 -235.1)"/><path class="cls-2" d="M282.9,253.6v8.3a1,1,0,0,0,.2.7,0.8,0.8,0,0,0,.6.2h5.4l3.3-.2,3-.6,0.7,2.5a14,14,0,0,1-3,.7l-3.7.2v4.9h9.3v2.6H277.1v-2.6h9v-4.9h-2.9a5.5,5.5,0,0,1-2.5-.5,2.2,2.2,0,0,1-.9-2.2v-9.2h3.2Z" transform="translate(-164.1 -235.1)"/><path class="cls-2" d="M313.1,264.6a5.9,5.9,0,0,1-3.3,1.9v3.4h0.4a16.2,16.2,0,0,0,3.9-.4,12.4,12.4,0,0,0,3.5-1.5V253h3.2v8.8h3.9v2.7h-3.9v10.8h-3.2v-4.6a11.2,11.2,0,0,1-3.2,1.3,18.1,18.1,0,0,1-4.2.4h-9.6v-2.6h6v-3.3a6,6,0,0,1-3.4-1.9,5.3,5.3,0,0,1-1-5.1,5.4,5.4,0,0,1,.7-1.4h-2.6v-2.6h6a2.1,2.1,0,0,0,.3-0.8,3.7,3.7,0,0,0,.1-0.8,4.2,4.2,0,0,0-.1-0.7l-0.2-.8,3.2-.9V253a4.3,4.3,0,0,1-.1,1.5,3.3,3.3,0,0,1-.5,1.1h6.5v2.6h-2.5a6.4,6.4,0,0,1,.7,1.4,4.8,4.8,0,0,1,.3,1.6A5.1,5.1,0,0,1,313.1,264.6Zm-2.7-5.5a2.9,2.9,0,0,0-2.2-.9,3,3,0,0,0-2.3.9,3.1,3.1,0,0,0,0,4.2,3.1,3.1,0,0,0,2.3.8,3,3,0,0,0,2.2-.8A3.2,3.2,0,0,0,310.4,259.1Z" transform="translate(-164.1 -235.1)"/><path class="cls-2" d="M335.5,269.3a19.8,19.8,0,0,0,4.5-.4,12.1,12.1,0,0,0,3.5-1.4V253h3.2v22.3h-3.2v-5.2a13.7,13.7,0,0,1-3.6,1.3,20.2,20.2,0,0,1-4.6.5h-9.1v-2.6h9.3Zm4.8-7.1a5.9,5.9,0,0,1-1.4,2,6.4,6.4,0,0,1-2.2,1.3,8.1,8.1,0,0,1-2.8.4,8.3,8.3,0,0,1-2.8-.4,6.1,6.1,0,0,1-2.2-1.3,5.9,5.9,0,0,1-1.4-2,6.8,6.8,0,0,1-.5-2.7,6.6,6.6,0,0,1,.5-2.6,5.9,5.9,0,0,1,1.4-2,6.8,6.8,0,0,1,2.2-1.3,7.8,7.8,0,0,1,2.8-.5,7.7,7.7,0,0,1,2.7.5,6.4,6.4,0,0,1,2.2,1.3,6.1,6.1,0,0,1,1.4,2,6.5,6.5,0,0,1,.5,2.6A6.8,6.8,0,0,1,340.2,262.2Zm-3.7-5.5a3.5,3.5,0,0,0-2.6-1,3.6,3.6,0,0,0-2.6,1,3.8,3.8,0,0,0-1,2.8,3.4,3.4,0,0,0,3.7,3.8,3.7,3.7,0,0,0,2.6-1,3.8,3.8,0,0,0,1-2.9A3.8,3.8,0,0,0,336.5,256.8Z" transform="translate(-164.1 -235.1)"/><path class="cls-2" d="M364,257.2h-2.1a6,6,0,0,1,.7,1.4,4.9,4.9,0,0,1,.3,1.6,5.2,5.2,0,0,1-.4,2.1,5.5,5.5,0,0,1-1.2,1.7,6.1,6.1,0,0,1-1.9,1.1,6.9,6.9,0,0,1-2.5.4,7.3,7.3,0,0,1-2.6-.4,5.7,5.7,0,0,1-1.9-1.1,5.1,5.1,0,0,1-1.2-1.7,5.5,5.5,0,0,1-.4-2.1,5.2,5.2,0,0,1,.2-1.6,5.1,5.1,0,0,1,.7-1.4h-2.1v-2.5h5.3a2.4,2.4,0,0,0,.2-0.8,4.3,4.3,0,0,0,0-1v-0.5l-0.2-.5,3.1-.9,0.3,0.9a3.9,3.9,0,0,1,.1.8,4.3,4.3,0,0,1-.1,1l-0.3.9H364v2.5Zm5,19.9h-3v-6.2a0.7,0.7,0,0,0-.2-0.5l-0.5-.2H353.1v-2.6h12a2.9,2.9,0,0,0,.9-1.5,7,7,0,0,0,.3-1.9V252.7h3.2v6h3.9v2.5h-3.9v3.1a3.9,3.9,0,0,1-.5,2,5.2,5.2,0,0,1-1.1,1.4,1.4,1.4,0,0,1,1.1.6,2,2,0,0,1,.4,1.3Zm-9.9-18.9a2.7,2.7,0,0,0-2.2-.9,2.7,2.7,0,0,0-2.2.9,3,3,0,0,0,0,4,2.7,2.7,0,0,0,2.2.9,2.7,2.7,0,0,0,2.2-.9A3.1,3.1,0,0,0,359.1,258.2Z" transform="translate(-164.1 -235.1)"/><path class="cls-2" d="M387.9,264.6a5.9,5.9,0,0,1-3.3,1.9v3.1H385a15.8,15.8,0,0,0,4-.5,12.5,12.5,0,0,0,3.6-1.6V253h3.2v22.3h-3.2v-5a10.5,10.5,0,0,1-3.3,1.4,18.3,18.3,0,0,1-4.3.4h-9.6v-2.6h6v-3.1a6,6,0,0,1-3.4-1.9,5.3,5.3,0,0,1-1-5.1,5.4,5.4,0,0,1,.7-1.4h-2.6v-2.6h6a2.1,2.1,0,0,0,.3-0.8,3.7,3.7,0,0,0,.1-0.8,4.2,4.2,0,0,0-.1-0.7l-0.2-.8,3.2-.9V253a4.3,4.3,0,0,1-.1,1.5,3.3,3.3,0,0,1-.5,1.1h6.5v2.6h-2.5a6.4,6.4,0,0,1,.7,1.4,4.8,4.8,0,0,1,.3,1.6A5.1,5.1,0,0,1,387.9,264.6Zm-2.7-5.5a2.9,2.9,0,0,0-2.2-.9,3,3,0,0,0-2.3.9,3.1,3.1,0,0,0,0,4.2,3.1,3.1,0,0,0,2.3.8,3,3,0,0,0,2.2-.8A3.2,3.2,0,0,0,385.2,259.1Z" transform="translate(-164.1 -235.1)"/><path class="cls-2" d="M185.9,287.1a7.9,7.9,0,0,1,.6,1.8,9.5,9.5,0,0,1,.2,1.8,19.6,19.6,0,0,1-.2,2.5,19.1,19.1,0,0,1-.4,2.3,3.7,3.7,0,0,1,1.6.6,3.9,3.9,0,0,1,1.1,1.3l1.3,2.5,1.4,3-2.4,1.3-1.3-2.8-1-2.1-0.6-.9-1-.6a21.2,21.2,0,0,1-1.9,3.2,27.8,27.8,0,0,1-2.6,3.2l-2.1-2,2.2-2.7a12.9,12.9,0,0,0,1.5-2.5,12.2,12.2,0,0,0,.9-2.8,17.1,17.1,0,0,0,.3-3.4,7.1,7.1,0,0,0-.2-1.7,6.3,6.3,0,0,0-.4-1.2Zm6.9,21.3V296.2H189v-2.7h3.8v-6.8h3v21.8h-3Zm5.3,0.6V286.6h3v22.3h-3Z" transform="translate(-164.1 -235.1)"/><path class="cls-2" d="M217.3,302l-1.4.8-1.7.6-1.8.3h-4.2a3.7,3.7,0,0,1-2.5-.7,2.6,2.6,0,0,1-.8-2V287.6h12.4V302Zm-3.2-11.8H208v9.9a0.9,0.9,0,0,0,.3.8,1.5,1.5,0,0,0,.9.2h1.4l1.7-.2a5.5,5.5,0,0,0,1.8-.7V290.2Zm7.3,18.7V286.6h3.2v22.3h-3.2Z" transform="translate(-164.1 -235.1)"/><path class="cls-2" d="M251.2,297.2h-3.9v11.7H244v-7.5a11.2,11.2,0,0,1-3.4,1.3,17.2,17.2,0,0,1-3.7.4h-4.3a3.4,3.4,0,0,1-2.4-.8,3.2,3.2,0,0,1-.8-2.4V287.6h3.2v11.8a1.7,1.7,0,0,0,.2.9,0.9,0.9,0,0,0,.8.3h3.3a15.6,15.6,0,0,0,3.7-.4,10.5,10.5,0,0,0,3.5-1.6V286.6h3.2v8h3.9v2.7Z" transform="translate(-164.1 -235.1)"/><path class="cls-5" d="M183.6,334h-4.8v-1l1.5-1.7c0.8-.9,2.2-2.2,2.2-3.4a1.2,1.2,0,0,0-1.3-1.1,3.8,3.8,0,0,0-2,.9l-0.2-1a3.8,3.8,0,0,1,2.2-.9,2.2,2.2,0,0,1,2.3,2.2c0,1.3-1.3,2.7-2.1,3.6l-1.4,1.4h3.6v1Z" transform="translate(-164.1 -235.1)"/><path class="cls-5" d="M189.7,329.9c0,2.8-1.2,4.1-2.6,4.1s-2.6-1.4-2.6-4.1,1.2-4.1,2.6-4.1S189.7,327.1,189.7,329.9Zm-1,0c0-2-.5-3.1-1.6-3.1s-1.6,1.2-1.6,3.1,0.5,3.1,1.6,3.1S188.7,331.9,188.7,329.9Z" transform="translate(-164.1 -235.1)"/><path class="cls-5" d="M193.7,333.9h-1v-6.7l-0.9.7-0.5-.8,1.6-1.3h0.9v8.1Z" transform="translate(-164.1 -235.1)"/><path class="cls-5" d="M201.2,329.6c0,3.2-1.2,4.4-3.2,4.4a4.2,4.2,0,0,1-1.5-.3l0.2-1a4,4,0,0,0,1.4.3c1.7,0,2.1-1.3,2.1-2.8a2.1,2.1,0,0,1-1.6.8,2.3,2.3,0,0,1-2.4-2.6,2.5,2.5,0,0,1,2.5-2.7C200.5,325.8,201.2,327.4,201.2,329.6Zm-1.1-1.1a1.5,1.5,0,0,0-1.4-1.8,1.5,1.5,0,0,0-1.5,1.7c0,1,.3,1.7,1.4,1.7A1.4,1.4,0,0,0,200.1,328.5Z" transform="translate(-164.1 -235.1)"/><path class="cls-5" d="M207.9,330.5a42,42,0,0,1-5.4.2v-5.2h1v4.3l4.4-.2v0.9Zm2.1,4.1h-6.5v-3h1v2.1H210v0.9Zm-0.2-2.5h-1v-3.2h-2.5V328h2.5v-0.9h-2.5v-0.9h2.5v-1.2h1v7Z" transform="translate(-164.1 -235.1)"/><path class="cls-2" d="M220.7,330.9a3.1,3.1,0,0,1-3.2,3.4c-2.1,0-3.2-1.8-3.2-5s0.9-5.5,3.9-5.5a6.3,6.3,0,0,1,2.2.4l-0.2,1.3a5,5,0,0,0-2-.4c-2.3,0-2.5,2.2-2.6,3.4a2.6,2.6,0,0,1,2-1C219.4,327.4,220.7,328.5,220.7,330.9Zm-1.3,0c0-1.2-.4-2.2-1.8-2.2a1.8,1.8,0,0,0-1.9,2,2,2,0,0,0,1.9,2.2A1.8,1.8,0,0,0,219.5,330.9Z" transform="translate(-164.1 -235.1)"/><path class="cls-5" d="M228.3,329.2h-3.2v1.5h-1v-1.5h-2.5v-0.8h6.7v0.8Zm-1.1-2.6c0,0.9-.9,1.5-2.4,1.5s-2.4-.6-2.4-1.5,0.9-1.6,2.4-1.6S227.2,325.7,227.2,326.5Zm2.5,8.2h-6.5v-2.2h5.2v-0.6h-5.2v-0.8h6.3v2.2h-5.2v0.6h5.4v0.8Zm-3.5-8.2c0-.4-0.4-0.7-1.4-0.7s-1.4.4-1.4,0.7,0.5,0.7,1.4.7S226.3,326.9,226.3,326.5Zm3.3,4.2h-1v-0.3h-2v-0.8h2v-4.6h1v5.6Z" transform="translate(-164.1 -235.1)"/><path class="cls-2" d="M240,334.1h-6.2v-1.3l1.9-2.1c1-1.1,2.8-2.8,2.8-4.4a1.5,1.5,0,0,0-1.6-1.4,4.8,4.8,0,0,0-2.6,1.1l-0.2-1.3a4.9,4.9,0,0,1,2.8-1.1,2.8,2.8,0,0,1,2.9,2.8c0,1.7-1.6,3.5-2.7,4.5l-1.8,1.8H240v1.3Z" transform="translate(-164.1 -235.1)"/><path class="cls-2" d="M247.6,328.6c0,4-1.5,5.6-4.1,5.6a5.3,5.3,0,0,1-1.9-.3l0.2-1.3a5.1,5.1,0,0,0,1.7.3c2.2,0,2.6-1.7,2.7-3.5a2.6,2.6,0,0,1-2,1.1c-1.6,0-3.1-.9-3.1-3.3a3.2,3.2,0,0,1,3.2-3.5C246.8,323.7,247.6,325.8,247.6,328.6Zm-1.4-1.4c0-1.2-.5-2.3-1.8-2.3a1.9,1.9,0,0,0-1.9,2.1c0,1.2.4,2.1,1.8,2.1A1.8,1.8,0,0,0,246.3,327.2Z" transform="translate(-164.1 -235.1)"/><path class="cls-5" d="M253.6,327.6a2.4,2.4,0,0,1-4.8,0A2.4,2.4,0,0,1,253.6,327.6Zm-1,0a1.4,1.4,0,0,0-2.8,0A1.4,1.4,0,0,0,252.6,327.6Zm4.1,7.1h-6.5v-2.5h5.2v-0.8h-5.2v-0.8h6.3V333h-5.2v0.8h5.4v0.8Zm-0.2-4.5h-1v-5.1h1v5.1Z" transform="translate(-164.1 -235.1)"/><path class="cls-5" d="M263.2,335.2h-0.7a8.1,8.1,0,0,1,0-10.7h0.7A9.3,9.3,0,0,0,263.2,335.2Z" transform="translate(-164.1 -235.1)"/><path class="cls-5" d="M272.4,333.6h-9v-0.9h4v-1.4h1v1.4h4v0.9Zm-1.1-2.7h-6.6v-5.1h6.5v0.9h-5.5V328h5.4v0.9h-5.4v1.2h5.6V331Z" transform="translate(-164.1 -235.1)"/><path class="cls-5" d="M281.6,333.6h-9v-0.9H275v-1.9h1v1.9h2.3v-1.9h1v1.9h2.3v0.9Zm-1.1-5.6c0,1.4-1.3,2.5-3.4,2.5s-3.4-1.1-3.4-2.5,1.3-2.5,3.4-2.5S280.6,326.5,280.6,328Zm-1,0c0-.9-1-1.6-2.4-1.6s-2.4.6-2.4,1.6,0.9,1.6,2.4,1.6S279.5,329,279.5,328Z" transform="translate(-164.1 -235.1)"/><path class="cls-5" d="M287.3,327.6a2.4,2.4,0,0,1-4.8,0A2.4,2.4,0,0,1,287.3,327.6Zm-1,0a1.4,1.4,0,0,0-2.8,0A1.4,1.4,0,0,0,286.3,327.6Zm4.1,7.1h-6.5v-2.5h5.2v-0.8h-5.2v-0.8h6.3V333H285v0.8h5.4v0.8Zm-0.2-4.5h-1v-5.1h1v5.1Z" transform="translate(-164.1 -235.1)"/><path class="cls-5" d="M293.7,329.9a7.5,7.5,0,0,1-2,5.3h-0.7a9.3,9.3,0,0,0,0-10.7h0.7A7.6,7.6,0,0,1,293.7,329.9Z" transform="translate(-164.1 -235.1)"/><path class="cls-5" d="M306,333.6h-9v-0.9h4V331h1v1.6h4v0.9Zm-1-5.5c0,1.4-1.3,2.5-3.4,2.5s-3.4-1.1-3.4-2.5,1.3-2.5,3.4-2.5S305,326.6,305,328.1Zm-1,0c0-.9-1-1.6-2.4-1.6s-2.4.6-2.4,1.6,1,1.6,2.4,1.6S303.9,329,303.9,328.1Z" transform="translate(-164.1 -235.1)"/><path class="cls-5" d="M312.4,329.8l-0.5.9a5.1,5.1,0,0,1-2.3-2,5.3,5.3,0,0,1-2.5,2.3l-0.5-.9a3.7,3.7,0,0,0,2.5-3.4v-0.2h-1.9v-0.9H312v0.9h-1.9v0.2A3.3,3.3,0,0,0,312.4,329.8Zm2.5,4.7h-6.6v-3.1h1v2.2h5.6v0.9Zm-0.2-2.5h-1v-3.6h-1.8v-1h1.8v-2.4h1v7Z" transform="translate(-164.1 -235.1)"/><path class="cls-5" d="M322.1,333.9h-1v-6.7l-0.9.7-0.5-.8,1.6-1.3h0.9v8.1Z" transform="translate(-164.1 -235.1)"/><path class="cls-5" d="M329.7,329.9c0,2.8-1.2,4.1-2.6,4.1s-2.6-1.4-2.6-4.1,1.2-4.1,2.6-4.1S329.7,327.1,329.7,329.9Zm-1,0c0-2-.5-3.1-1.6-3.1s-1.6,1.2-1.6,3.1,0.5,3.1,1.6,3.1S328.7,331.9,328.7,329.9Z" transform="translate(-164.1 -235.1)"/><path class="cls-5" d="M336.4,332.1l-0.5.8a5.5,5.5,0,0,1-2.5-2.9,6.6,6.6,0,0,1-2.6,3.2l-0.6-.8c1.3-.8,2.6-2.2,2.6-5.1v-1.5h1v1.5C333.9,330.5,335.5,331.5,336.4,332.1Zm2,2.8h-1v-9.7h1v9.7Z" transform="translate(-164.1 -235.1)"/><path class="cls-5" d="M345.3,330.5h-5.5v-0.9h5.5v0.9Z" transform="translate(-164.1 -235.1)"/><path class="cls-5" d="M349.4,333.9h-1v-6.7l-0.9.7-0.5-.8,1.6-1.3h0.9v8.1Z" transform="translate(-164.1 -235.1)"/><path class="cls-5" d="M356.7,334h-4.8v-1l1.5-1.7c0.8-.9,2.2-2.2,2.2-3.4a1.2,1.2,0,0,0-1.3-1.1,3.8,3.8,0,0,0-2,.9l-0.2-1a3.8,3.8,0,0,1,2.2-.9,2.2,2.2,0,0,1,2.3,2.2c0,1.3-1.3,2.7-2.1,3.6l-1.4,1.4h3.6v1Z" transform="translate(-164.1 -235.1)"/><path class="cls-5" d="M363.8,332.1l-0.5.8a5.5,5.5,0,0,1-2.5-2.9,6.6,6.6,0,0,1-2.6,3.2l-0.6-.8c1.3-.8,2.6-2.2,2.6-5.1v-1.5h1v1.5C361.3,330.5,362.9,331.5,363.8,332.1Zm2,2.8h-1v-9.7h1v9.7Z" transform="translate(-164.1 -235.1)"/><path class="cls-5" d="M183.4,378.5l-0.3.5a4.5,4.5,0,0,1-2.1-2.8,5.2,5.2,0,0,1-2.2,3l-0.4-.5a4.7,4.7,0,0,0,2.2-4.4v-1.2h0.6v1.2A4.4,4.4,0,0,0,183.4,378.5Zm2.6-2h-1.2v4.1h-0.6v-7.9h0.6v3.3H186v0.6Z" transform="translate(-164.1 -235.1)"/><path class="cls-5" d="M191.8,379.2h-5.5v-0.5h2.4v-0.9h0.6v0.9h2.5v0.5Zm-0.6-4.6h-4.5v-0.5h4.5v0.5Zm-0.3,1.7c0,0.7-.8,1.3-1.9,1.3s-1.9-.5-1.9-1.3A1.6,1.6,0,0,1,189,375,1.7,1.7,0,0,1,190.9,376.4Zm-0.6,0a1.5,1.5,0,1,0-1.3.8C189.8,377.1,190.3,376.8,190.3,376.4Zm-0.2-2.9h-2.2v-0.5h2.2v0.5Zm2.6,7.1h-0.6v-7.9h0.6v7.9Z" transform="translate(-164.1 -235.1)"/><path class="cls-5" d="M198.1,375.2h-0.9v-0.9h0.9v0.9Zm0,4h-0.9v-0.9h0.9v0.9Z" transform="translate(-164.1 -235.1)"/><path class="cls-5" d="M206.9,372.5a4.8,4.8,0,0,1-4.2,4.6l-0.2-.7c1.5-.3,3.1-1.2,3.4-3.1h-2.9v-0.8h4Zm2.5,8.1h-5.7v-3.3h5.7v3.3Zm-0.9-.8v-1.6h-3.8v1.6h3.8Zm0.9-2.9h-0.9v-5h0.9v5Z" transform="translate(-164.1 -235.1)"/><path class="cls-5" d="M215,378.8h-3.9v-5.9H215v5.9Zm-0.9-.8v-4.2H212V378h2.2Zm3.5,2.7h-0.9v-8.8h0.9v8.8Z" transform="translate(-164.1 -235.1)"/><path class="cls-5" d="M223.6,372.5a4.8,4.8,0,0,1-4.2,4.7l-0.3-.7c1.5-.4,3.1-1.2,3.4-3.1h-2.9v-0.8h4Zm2.8,6.6c0,1.1-1,1.8-3,1.8s-3-.7-3-1.8,1.2-1.8,3-1.8S226.4,377.9,226.4,379Zm-0.9,0c0-.7-1-1-2.1-1s-2.1.3-2.1,1,1,1,2.1,1S225.5,379.8,225.5,379Zm0.8-1.9h-0.9V376h-1.6v-0.8h1.6v-1h-1.4v-0.8h1.4v-1.4h0.9v5.3Z" transform="translate(-164.1 -235.1)"/><path class="cls-5" d="M231.6,380.8h-0.4a6.6,6.6,0,0,1,0-8.6h0.4A7.7,7.7,0,0,0,231.6,380.8Z" transform="translate(-164.1 -235.1)"/><path class="cls-5" d="M236.2,374.9a2,2,0,1,1-2-2A2,2,0,0,1,236.2,374.9Zm-0.6,0a1.4,1.4,0,1,0-1.4,1.4A1.3,1.3,0,0,0,235.6,374.9Zm3.1,5.5h-5.3v-2.5H234v2h4.7v0.5Zm-0.2-2h-0.6v-5.8h0.6v5.8Z" transform="translate(-164.1 -235.1)"/><path class="cls-5" d="M243.6,378.5l-0.3.5a5.2,5.2,0,0,1-1.7-2.5,5.6,5.6,0,0,1-1.8,2.7l-0.4-.5a4.9,4.9,0,0,0,1.8-3.9v-0.7h-1.4v-0.5h3.4v0.5h-1.4v0.7A4.5,4.5,0,0,0,243.6,378.5Zm1.2,1.7h-0.6v-3.9h-1.3v-0.6h1.3v-2.9h0.6v7.4Zm1.5,0.4h-0.6v-7.9h0.6v7.9Z" transform="translate(-164.1 -235.1)"/><path class="cls-5" d="M252.9,378.7h-5.5v-0.5h5.5v0.6Zm-1-3.7a2.1,2.1,0,1,1-2-1.9A2,2,0,0,1,251.9,375Zm-0.6,0a1.4,1.4,0,0,0-2.8,0A1.4,1.4,0,0,0,251.3,375Zm2.5,5.5h-0.6v-7.9h0.6v7.9Z" transform="translate(-164.1 -235.1)"/><path class="cls-5" d="M258.5,378.6h-3.3v-5.1H258v0.5h-2.1v4h2.7v0.5Zm2.7,1.9h-0.6v-4.2h-1.2v3.8h-0.6v-7.4h0.6v3.1h1.2v-3.2h0.6v7.9Z" transform="translate(-164.1 -235.1)"/><path class="cls-5" d="M268.4,378.5l-2.1.2h-1.1v-5.2h0.6V378h2.6v0.6Zm2.8,2.1h-0.6v-4.2h-1.2v3.9h-0.6v-7.4h0.6v2.9h1.2v-3.1h0.6v7.9Z" transform="translate(-164.1 -235.1)"/><path class="cls-5" d="M279.4,377.4h-3.3v1.7h-0.6v-1.7h-3.5v-0.5h7.3v0.5Zm-1-1.4h-5.4v-3.3h0.6v1h4.2v-1h0.6V376Zm0.2,4.3h-5.6v-2.2h0.6v1.6h5v0.5Zm-0.8-4.9v-1.3h-4.2v1.3h4.2Z" transform="translate(-164.1 -235.1)"/><path class="cls-5" d="M283.9,378.8h-3.6v-5.4h0.6v2h2.4v-2h0.6v5.4Zm-0.6-.5v-2.4h-2.4v2.4h2.4Zm2.9,2.3h-0.6v-7.9h0.6v7.9Z" transform="translate(-164.1 -235.1)"/><path class="cls-5" d="M291.2,378.5l-2.1.2H288v-5.2h0.6V378h2.6v0.6Zm2.8,2.1h-0.6v-4.2h-1.2v3.9h-0.6v-7.4h0.6v2.9h1.2v-3.1H294v7.9Z" transform="translate(-164.1 -235.1)"/><path class="cls-5" d="M300.3,379h-5.3v-0.5h1.7v-2.6h0.6v2.6h3V379Zm-0.8-5.4a38.9,38.9,0,0,1-.3,3.9h-0.6c0.1-1.3.2-2.5,0.2-3.4h-3.4v-0.5h4.1Zm2.9,3.1h-1.2v3.9h-0.6v-7.9h0.6v3.5h1.2v0.5Z" transform="translate(-164.1 -235.1)"/><path class="cls-5" d="M304.3,376.5a6.1,6.1,0,0,1-1.6,4.3h-0.4a7.7,7.7,0,0,0,0-8.6h0.4A6.1,6.1,0,0,1,304.3,376.5Z" transform="translate(-164.1 -235.1)"/><path class="cls-5" d="M312.7,372.6l-2.9,8.2h-0.6l2.8-8.2h0.6Z" transform="translate(-164.1 -235.1)"/><path class="cls-5" d="M321.1,373.7a7.2,7.2,0,0,1-.8,3,6.2,6.2,0,0,1-2.2,2.4l-0.4-.5a5.7,5.7,0,0,0,2.6-4.5h-2.2v-0.5h2.9Zm3.2,6.9h-0.6v-4.1h-1.1v3.8H322v-7.4h0.6v3.1h1.1v-3.2h0.6v7.9Z" transform="translate(-164.1 -235.1)"/><path class="cls-5" d="M330.8,379.2h-5.5v-0.5h2.4v-0.9h0.6v0.9h2.5v0.5Zm-0.6-4.6h-4.5v-0.5h4.5v0.5Zm-0.3,1.7c0,0.7-.8,1.3-1.9,1.3s-1.9-.5-1.9-1.3a1.6,1.6,0,0,1,1.9-1.3A1.7,1.7,0,0,1,330,376.4Zm-0.6,0a1.5,1.5,0,1,0-1.3.8C328.8,377.1,329.4,376.8,329.4,376.4Zm-0.2-2.9h-2.2v-0.5h2.2v0.5Zm2.6,7.1h-0.6v-7.9h0.6v7.9Z" transform="translate(-164.1 -235.1)"/><path class="cls-5" d="M337.6,378.5l-0.3.5a4.5,4.5,0,0,1-2.1-2.8,5.2,5.2,0,0,1-2.2,3l-0.4-.5a4.7,4.7,0,0,0,2.2-4.4v-1.2h0.6v1.2A4.4,4.4,0,0,0,337.6,378.5Zm2.6-2h-1.2v4.1h-0.6v-7.9h0.6v3.3h1.2v0.6Z" transform="translate(-164.1 -235.1)"/><path class="cls-5" d="M344.7,375.2h-0.9v-0.9h0.9v0.9Zm0,4h-0.9v-0.9h0.9v0.9Z" transform="translate(-164.1 -235.1)"/><path class="cls-5" d="M353.1,376.7h-4v-4.4H350v1.5h2.2v-1.5h0.9v4.4Zm2.5,4h-0.9v-2.3h-4.9v-0.8h5.8v3.1Zm-3.3-4.8v-1.3H350v1.3h2.2Zm4.6-.9h-1.2v2.2h-0.9v-5.3h0.9v2.2h1.2v0.8Z" transform="translate(-164.1 -235.1)"/><path class="cls-5" d="M362.5,375.9l-0.4.8a3.6,3.6,0,0,1-2.2-1.8,4.5,4.5,0,0,1-2.3,2l-0.5-.7a3.3,3.3,0,0,0,2.3-2.9h-1.7v-0.8h4.4v0.8h-1.7A2.7,2.7,0,0,0,362.5,375.9Zm2.2,3.2c0,1.1-1.1,1.7-3,1.7s-3-.7-3-1.7,1.1-1.7,3-1.7S364.7,378.1,364.7,379.1Zm-1,0c0-.6-0.7-1-2.1-1s-2.1.4-2.1,1,0.7,1,2.1,1S363.7,379.7,363.7,379.1Zm0.8-1.9h-0.9v-2.3H362v-0.8h1.7v-2.2h0.9v5.3Z" transform="translate(-164.1 -235.1)"/><path class="cls-5" d="M370.6,374h-4.9v-0.8h4.9V374Zm-0.3,2c0,0.9-.7,1.5-2.1,1.5s-2.1-.7-2.1-1.5,0.8-1.5,2.1-1.5S370.4,375.2,370.4,376Zm-1-3.4H367v-0.8h2.3v0.8Zm3.7,7.9h-5.9V378H368v1.6h5v0.8Zm-3.7-4.5c0-.5-0.3-0.8-1.1-0.8s-1.1.3-1.1,0.8,0.3,0.8,1.1.8S369.4,376.5,369.4,376Zm3.5,2.3H372v-1.6h-1.3v-0.8H372v-1h-1.2v-0.8H372v-2.2h0.9v6.5Z" transform="translate(-164.1 -235.1)"/><path class="cls-5" d="M378.2,380.8h-0.4a6.6,6.6,0,0,1,0-8.6h0.4A7.7,7.7,0,0,0,378.2,380.8Z" transform="translate(-164.1 -235.1)"/><path class="cls-5" d="M382.9,374.9a2,2,0,1,1-2-2A2,2,0,0,1,382.9,374.9Zm-0.6,0a1.4,1.4,0,1,0-1.4,1.4A1.3,1.3,0,0,0,382.2,374.9Zm3.1,5.5H380v-2.5h0.6v2h4.7v0.5Zm-0.2-2h-0.6v-5.8h0.6v5.8Z" transform="translate(-164.1 -235.1)"/><path class="cls-5" d="M390.2,378.5l-0.3.5a5.2,5.2,0,0,1-1.7-2.5,5.6,5.6,0,0,1-1.8,2.7l-0.4-.5a4.9,4.9,0,0,0,1.8-3.9v-0.7h-1.4v-0.5h3.4v0.5h-1.4v0.7A4.5,4.5,0,0,0,390.2,378.5Zm1.2,1.7h-0.6v-3.9h-1.3v-0.6h1.3v-2.9h0.6v7.4Zm1.5,0.4h-0.6v-7.9H393v7.9Z" transform="translate(-164.1 -235.1)"/><path class="cls-5" d="M399.5,378.7H394v-0.5h5.5v0.6Zm-1-3.7a2.1,2.1,0,1,1-2-1.9A2,2,0,0,1,398.5,375Zm-0.6,0a1.4,1.4,0,0,0-2.8,0A1.4,1.4,0,0,0,397.9,375Zm2.5,5.5h-0.6v-7.9h0.6v7.9Z" transform="translate(-164.1 -235.1)"/><path class="cls-5" d="M405.2,378.6h-3.3v-5.1h2.7v0.5h-2.1v4h2.7v0.5Zm2.7,1.9h-0.6v-4.2h-1.2v3.8h-0.6v-7.4h0.6v3.1h1.2v-3.2h0.6v7.9Z" transform="translate(-164.1 -235.1)"/><path class="cls-5" d="M415,378.5l-2.1.2h-1.1v-5.2h0.6V378H415v0.6Zm2.8,2.1h-0.6v-4.2h-1.2v3.9h-0.6v-7.4h0.6v2.9h1.2v-3.1h0.6v7.9Z" transform="translate(-164.1 -235.1)"/><path class="cls-5" d="M426.1,377.4h-3.3v1.7h-0.6v-1.7h-3.5v-0.5h7.3v0.5Zm-1-1.4h-5.4v-3.3h0.6v1h4.2v-1h0.6V376Zm0.2,4.3h-5.6v-2.2h0.6v1.6h5v0.5Zm-0.8-4.9v-1.3h-4.2v1.3h4.2Z" transform="translate(-164.1 -235.1)"/><path class="cls-5" d="M430.5,378.8h-3.6v-5.4h0.6v2H430v-2h0.6v5.4Zm-0.6-.5v-2.4h-2.4v2.4H430Zm2.9,2.3h-0.6v-7.9h0.6v7.9Z" transform="translate(-164.1 -235.1)"/><path class="cls-5" d="M437.8,378.5l-2.1.2h-1.1v-5.2h0.6V378h2.6v0.6Zm2.8,2.1H440v-4.2h-1.2v3.9h-0.6v-7.4h0.6v2.9H440v-3.1h0.6v7.9Z" transform="translate(-164.1 -235.1)"/><path class="cls-5" d="M446.9,379h-5.3v-0.5h1.7v-2.6h0.6v2.6h3V379Zm-0.8-5.4a38.9,38.9,0,0,1-.3,3.9h-0.6c0.1-1.3.2-2.5,0.2-3.4H442v-0.5h4.1Zm2.9,3.1h-1.2v3.9h-0.6v-7.9h0.6v3.5H449v0.5Z" transform="translate(-164.1 -235.1)"/><path class="cls-5" d="M451,376.5a6.1,6.1,0,0,1-1.6,4.3H449a7.7,7.7,0,0,0,0-8.6h0.4A6.1,6.1,0,0,1,451,376.5Z" transform="translate(-164.1 -235.1)"/><path class="cls-5" d="M179.9,393.4l6,3.8-6,3.8v-7.6Z" transform="translate(-164.1 -235.1)"/><path class="cls-5" d="M197.6,400.5h-6.5v-0.9h2.8v-0.8h1.1v0.8h2.7v0.9Zm-0.6-5.4h-5.4v-0.9H197v0.9Zm-0.4,2c0,0.9-1,1.6-2.3,1.6s-2.3-.6-2.3-1.6,1-1.6,2.3-1.6S196.6,396.2,196.6,397.1Zm-1-3.5h-2.7v-0.9h2.7v0.9Zm0,3.5a1.1,1.1,0,0,0-1.3-.8,0.9,0.9,0,1,0,0,1.6C195.1,397.9,195.7,397.6,195.7,397.1Zm3.2,5h-1v-9.7h1v9.7Z" transform="translate(-164.1 -235.1)"/><path class="cls-5" d="M207,400l-4,.2h-2.5v-0.9H207V400Zm-1-4.6a2.5,2.5,0,1,1-2.5-2.3A2.3,2.3,0,0,1,206,395.4Zm-1,0a1.5,1.5,0,1,0-1.5,1.5A1.4,1.4,0,0,0,205,395.4Zm3.3,6.7h-1v-9.7h1v9.7Z" transform="translate(-164.1 -235.1)"/><path class="cls-5" d="M216.8,399.7l-2.4.2h-1.3v-6.5h1v5.5h0.7l2-.2v1Zm3.6,2.4h-1v-4.9h-1.2v4.5h-1v-9.1h1v3.6h1.2v-3.9h1v9.7Z" transform="translate(-164.1 -235.1)"/><path class="cls-5" d="M230.4,398h-9v-0.9h2.4v-1.3a1.7,1.7,0,0,1-1.3-1.5c0-1.1,1.2-1.8,3.4-1.8s3.4,0.7,3.4,1.8a1.7,1.7,0,0,1-1.3,1.5v1.3h2.4V398Zm-1,2.5c0,1.1-1.3,1.8-3.5,1.8s-3.5-.7-3.5-1.8,1.3-1.8,3.5-1.8S229.4,399.4,229.4,400.5Zm-1.1,0c0-.6-0.8-1-2.4-1s-2.4.4-2.4,1,0.8,1,2.4,1S228.3,401.1,228.3,400.5Zm0-6.2c0-.6-0.8-1.1-2.4-1.1s-2.3.4-2.3,1.1,0.8,1.1,2.3,1.1S228.3,394.8,228.3,394.2Zm-1.3,2.9v-1.1h-2.1v1.1H227Z" transform="translate(-164.1 -235.1)"/><path class="cls-5" d="M244.4,401.3h-1v-6.7l-0.9.7-0.5-.8,1.6-1.3h0.9v8.1Z" transform="translate(-164.1 -235.1)"/><path class="cls-5" d="M248.3,401.9h-1.2v-1.3h1.2v1.3Z" transform="translate(-164.1 -235.1)"/><path class="cls-5" d="M257.9,394.7h-5.6v-0.8h5.6v0.8Zm-0.4,2c0,0.9-.9,1.6-2.4,1.6s-2.4-.6-2.4-1.6,1-1.5,2.4-1.5S257.6,395.8,257.6,396.7Zm2.4,3.8c0,1.1-1.1,1.8-3.3,1.8s-3.3-.8-3.3-1.8,1.1-1.8,3.3-1.8S260,399.4,260,400.5Zm-3.5-7.3h-2.8v-0.8h2.8v0.8Zm0,3.5c0-.5-0.5-0.8-1.4-0.8s-1.4.3-1.4,0.8,0.5,0.8,1.4.8S256.5,397.2,256.5,396.7Zm2.3,3.8c0-.6-0.7-1-2.2-1s-2.2.4-2.2,1,0.7,1,2.2,1S258.9,401.1,258.9,400.5Zm2.3-4.7h-1.3v2.6h-1v-6.1h1V395h1.3v0.9Z" transform="translate(-164.1 -235.1)"/><path class="cls-5" d="M270.2,400.9h-9V400h4v-2h1v2h4v0.9Zm-1.1-3.3h-6.7V393h1v3.7h5.7v0.9Z" transform="translate(-164.1 -235.1)"/><path class="cls-5" d="M277,400.5h-6.3v-0.9h2.7v-0.8h1.1v0.8H277v0.9Zm-0.6-5.4h-5.3v-0.9h5.3v0.9Zm-0.3,2c0,0.9-.9,1.6-2.2,1.6s-2.2-.6-2.2-1.6,0.9-1.6,2.2-1.6S276.1,396.2,276.1,397.1Zm-1-3.5h-2.6v-0.9H275v0.9Zm0.1,3.5a1,1,0,0,0-1.3-.8,0.9,0.9,0,1,0,0,1.6C274.6,397.9,275.1,397.6,275.1,397.1Zm4.6,0.6h-1.4v4.5h-1v-9.7h1v4.3h1.4v1Z" transform="translate(-164.1 -235.1)"/><path class="cls-5" d="M281.4,401.4a2,2,0,0,1-.8,1.5l-0.5-.3a1.8,1.8,0,0,0,.6-1h-0.7v-1h1.2v0.8Z" transform="translate(-164.1 -235.1)"/><path class="cls-5" d="M293.9,397.2h-9v-0.8h4v-1.1h1v1.1h4v0.8Zm-0.7-2-0.4.8a5.5,5.5,0,0,1-3.5-1.6A5.4,5.4,0,0,1,286,396l-0.4-.8c0.8-.1,2.8-0.7,3.3-1.6h-2.8v-0.9h6.7v0.9H290C290.4,394.5,292.3,395.1,293.3,395.2Zm-0.1,4.4h-7.4v-0.8h7.4v0.8Zm-0.4,1.5c0,0.9-1.5,1.2-3.3,1.2s-3.3-.3-3.3-1.2,1.5-1.2,3.3-1.2S292.7,400.2,292.7,401.1Zm-1.2,0c0-.3-0.9-0.5-2-0.5s-2.1.1-2.1,0.5,0.7,0.4,2.1.4S291.5,401.4,291.5,401.1Zm-0.1-2.7h-4v-0.8h4v0.8Z" transform="translate(-164.1 -235.1)"/><path class="cls-5" d="M303.2,398.3h-9v-0.9h9v0.9Zm-1.2-3.8c0,1.3-1.1,2.1-3.3,2.1s-3.3-.8-3.3-2.1,1.1-2.1,3.3-2.1S302,393.4,302,394.6Zm0.3,7.4h-6.8v-2.8h1V401h5.8v0.9Zm-1.3-7.3c0-.8-0.9-1.3-2.3-1.3s-2.3.5-2.3,1.3,0.9,1.2,2.3,1.2S301,395.3,301,394.6Z" transform="translate(-164.1 -235.1)"/><path class="cls-5" d="M315.4,400.9h-9V400h4v-2h1v2h4v0.9Zm-1.1-3.3h-6.7V393h1v3.7h5.7v0.9Z" transform="translate(-164.1 -235.1)"/><path class="cls-5" d="M322.2,400.5h-6.3v-0.9h2.7v-0.8h1.1v0.8h2.6v0.9Zm-0.6-5.4h-5.3v-0.9h5.3v0.9Zm-0.3,2c0,0.9-.9,1.6-2.2,1.6s-2.2-.6-2.2-1.6,0.9-1.6,2.2-1.6S321.3,396.2,321.3,397.1Zm-1-3.5h-2.6v-0.9h2.6v0.9Zm0.1,3.5a1,1,0,0,0-1.3-.8,0.9,0.9,0,1,0,0,1.6C319.8,397.9,320.3,397.6,320.3,397.1Zm4.6,0.6h-1.4v4.5h-1v-9.7h1v4.3h1.4v1Z" transform="translate(-164.1 -235.1)"/><path class="cls-5" d="M332,400l-4,.2h-2.5v-0.9H332V400Zm-1-4.6a2.5,2.5,0,1,1-2.5-2.3A2.3,2.3,0,0,1,331,395.4Zm-1,0a1.5,1.5,0,1,0-1.5,1.5A1.4,1.4,0,0,0,329.9,395.4Zm3.3,6.7h-1v-9.7h1v9.7Z" transform="translate(-164.1 -235.1)"/><path class="cls-5" d="M344.2,400l-4,.2h-2.5v-0.9h6.6V400Zm-1-4.6a2.5,2.5,0,1,1-2.5-2.3A2.3,2.3,0,0,1,343.1,395.4Zm-1,0a1.5,1.5,0,1,0-1.5,1.5A1.4,1.4,0,0,0,342.1,395.4Zm3.3,6.7h-1v-9.7h1v9.7Z" transform="translate(-164.1 -235.1)"/><path class="cls-5" d="M352.4,394.7h-5.6v-0.8h5.6v0.8Zm-0.4,2.1c0,1-.9,1.6-2.4,1.6s-2.4-.7-2.4-1.6,0.9-1.6,2.4-1.6S352,395.9,352,396.8Zm2.3,5.3h-1V400h-5.4v-0.8h6.4v3Zm-3.3-8.9h-2.8v-0.8H351v0.8Zm0,3.6c0-.5-0.4-0.8-1.3-0.8s-1.3.3-1.3,0.8,0.4,0.8,1.3.8S350.9,397.3,350.9,396.8Zm4.7-.7h-1.3v2.5h-1v-6.2h1v2.8h1.3v0.9Z" transform="translate(-164.1 -235.1)"/><path class="cls-5" d="M361.7,397.1l-0.4.8a3.8,3.8,0,0,1-2.4-2.1,4.9,4.9,0,0,1-2.4,2.3l-0.5-.8a3.7,3.7,0,0,0,2.4-3.3v-0.2h-1.9V393h4.9v0.9h-1.9v0.2A3.1,3.1,0,0,0,361.7,397.1Zm2.3,5h-1v-2.5h-5.5v-0.9H364v3.4Zm0-3.9h-1v-2.4h-1.8v-0.9H363v-2.4h1v5.8Z" transform="translate(-164.1 -235.1)"/><path class="cls-5" d="M374,397.3h-5.5v-4.3h4.6V394h-3.6v2.5H374v0.9Zm1.8,3.1c0,1.1-1,2-3.3,2s-3.3-.8-3.3-2,1.4-2,3.3-2S375.7,399,375.7,400.3Zm-1.1,0c0-.8-1.1-1.2-2.2-1.2s-2.3.3-2.3,1.2,1.1,1.2,2.3,1.2S374.7,401.1,374.7,400.3Zm2.2-4.6h-1.3v2.4h-1v-5.7h1v2.4h1.3v0.9Z" transform="translate(-164.1 -235.1)"/><path class="cls-5" d="M384.1,398.5H381V402h-1v-3.3h-2.5v-0.9h6.6v0.9Zm-1.2-3.8a2.4,2.4,0,0,1-4.8,0A2.4,2.4,0,0,1,383,394.7Zm-1,0a1.4,1.4,0,1,0-1.4,1.2A1.2,1.2,0,0,0,382,394.7Zm3.3,7.4h-1v-9.7h1v9.7Z" transform="translate(-164.1 -235.1)"/><path class="cls-5" d="M392.6,397l-0.5.9a5.4,5.4,0,0,1-2.5-2.4,5.8,5.8,0,0,1-2.5,2.6l-0.6-.8a4.2,4.2,0,0,0,2.5-3.7v-0.9h1v0.9A3.8,3.8,0,0,0,392.6,397Zm2.2,3.4c0,1.1-1.1,1.9-3.3,1.9s-3.3-.8-3.3-1.9,1.4-2,3.3-2S394.8,399.2,394.8,400.4Zm-1.1,0c0-.8-1.1-1.1-2.3-1.1s-2.3.3-2.3,1.1,1.1,1.1,2.3,1.1S393.7,401.1,393.7,400.4Zm0.9-2.2h-1v-2.8h-1.9v-0.9h1.9v-2h1v5.8Z" transform="translate(-164.1 -235.1)"/><path class="cls-5" d="M245.9,417.3h-4.8v-1l1.5-1.7c0.8-.9,2.2-2.2,2.2-3.4a1.2,1.2,0,0,0-1.3-1.1,3.8,3.8,0,0,0-2,.9l-0.2-1a3.8,3.8,0,0,1,2.2-.9,2.2,2.2,0,0,1,2.3,2.2c0,1.3-1.3,2.7-2.1,3.6l-1.4,1.4h3.6v1Z" transform="translate(-164.1 -235.1)"/><path class="cls-5" d="M248.3,417.9h-1.2v-1.3h1.2v1.3Z" transform="translate(-164.1 -235.1)"/><path class="cls-5" d="M258,413.2l-0.5.9a5.1,5.1,0,0,1-2.3-2,5.3,5.3,0,0,1-2.5,2.3l-0.5-.9a3.7,3.7,0,0,0,2.5-3.4V410h-1.9V409h4.9V410h-1.9v0.2A3.3,3.3,0,0,0,258,413.2Zm2.5,4.7h-6.6v-3.1h1V417h5.6v0.9Zm-0.2-2.5h-1v-3.6h-1.8v-1h1.8v-2.4h1v7Z" transform="translate(-164.1 -235.1)"/><path class="cls-5" d="M266.3,415.4l-0.5.8a5.5,5.5,0,0,1-1.9-2.6,6.4,6.4,0,0,1-2.1,2.9l-0.6-.7c0.7-.5,2.2-1.8,2.2-4.8v-1.7h1v1.7C264.4,413.7,265.4,414.8,266.3,415.4Zm1.5,2.3h-1v-4.9h-1.4v-1h1.4v-3.2h1v9.1Zm1.9,0.4h-1v-9.7h1v9.7Z" transform="translate(-164.1 -235.1)"/><path class="cls-5" d="M276.9,417.7h-1v-3.3h-1.4v-0.9H276v-1.7h-1.2v-0.4a7.8,7.8,0,0,1-3.4,5l-0.5-.7a6.6,6.6,0,0,0,3-5.1h-2.4v-0.9h3.5a9.6,9.6,0,0,1-.1,1.2H276v-2.2h1v9Zm1.9,0.4h-1v-9.7h1v9.7Z" transform="translate(-164.1 -235.1)"/><path class="cls-5" d="M288.7,410.7H283v-0.8h5.6v0.8Zm-0.4,2c0,0.9-.9,1.6-2.4,1.6s-2.4-.6-2.4-1.6,1-1.5,2.4-1.5S288.3,411.9,288.3,412.7Zm2.4,3.8c0,1.1-1.1,1.8-3.3,1.8s-3.3-.8-3.3-1.8,1.1-1.8,3.3-1.8S290.7,415.5,290.7,416.6Zm-3.5-7.3h-2.8v-0.8h2.8v0.8Zm0,3.5c0-.5-0.5-0.8-1.4-0.8s-1.4.3-1.4,0.8,0.5,0.8,1.4.8S287.3,413.3,287.3,412.7Zm2.3,3.8c0-.6-0.7-1-2.2-1s-2.2.4-2.2,1,0.7,1,2.2,1S289.6,417.2,289.6,416.6Zm2.3-4.7h-1.3v2.6h-1v-6.1h1V411h1.3v0.9Z" transform="translate(-164.1 -235.1)"/><path class="cls-5" d="M300.9,416.9h-9V416h4v-2h1v2h4v0.9Zm-1.1-3.3h-6.7V409h1v3.7h5.7v0.9Z" transform="translate(-164.1 -235.1)"/><path class="cls-5" d="M307.7,416.6h-6.3v-0.9h2.7V415h1.1v0.8h2.6v0.9Zm-0.6-5.4h-5.3v-0.9h5.3v0.9Zm-0.3,2c0,0.9-.9,1.6-2.2,1.6s-2.2-.6-2.2-1.6,0.9-1.6,2.2-1.6S306.8,412.2,306.8,413.1Zm-1-3.5h-2.6v-0.9h2.6v0.9Zm0.1,3.5a1,1,0,0,0-1.3-.8,0.9,0.9,0,1,0,0,1.6C305.3,413.9,305.8,413.6,305.8,413.1Zm4.6,0.6H309v4.5h-1v-9.7h1v4.3h1.4v1Z" transform="translate(-164.1 -235.1)"/><path class="cls-5" d="M315.6,413.4l-0.5.8a4.6,4.6,0,0,1-2-2.2,5.3,5.3,0,0,1-2.1,2.5l-0.7-.8a4.6,4.6,0,0,0,2.2-4.1v-0.9h1v0.9A3.9,3.9,0,0,0,315.6,413.4Zm3.6,4.6h-6.6v-3h1V417h5.6v0.9Zm-2.1-2.6h-1v-3.7h-1.5v-0.9h1.5v-2.1h1v6.7Zm1.8,0.2h-1v-7.1h1v7.1Z" transform="translate(-164.1 -235.1)"/><path class="cls-5" d="M325.8,416h-5.2v-6.7h4.5v0.9h-3.5v1.9h3.2v0.9h-3.2v2h4.2V416Zm2,2.2h-1v-5.3h-1.5V412h1.5v-3.5h1v9.7Z" transform="translate(-164.1 -235.1)"/><path class="cls-5" d="M336,416.1l-4,.2h-2.5v-0.9H336v0.9Zm-1-4.6a2.5,2.5,0,1,1-2.5-2.3A2.3,2.3,0,0,1,335,411.4Zm-1,0a1.5,1.5,0,1,0-1.5,1.5A1.4,1.4,0,0,0,333.9,411.4Zm3.3,6.7h-1v-9.7h1v9.7Z" transform="translate(-164.1 -235.1)"/><path class="cls-5" d="M346.9,410.8h-5.4V410h5.4v0.9Zm-0.3,2.2c0,0.9-.8,1.7-2.3,1.7s-2.3-.8-2.3-1.7,0.8-1.7,2.3-1.7S346.6,412.1,346.6,413.1Zm-1.1-3.8h-2.5v-0.8h2.5v0.8Zm4.1,8.7H343v-2.7h1v1.8h5.5v0.9Zm-4-4.9c0-.5-0.3-0.9-1.2-0.9s-1.2.3-1.2,0.9,0.3,0.9,1.2.9S345.5,413.6,345.5,413Zm3.8,2.6h-1v-1.8H347v-0.9h1.4v-1.1h-1.3v-0.9h1.3v-2.4h1v7.1Z" transform="translate(-164.1 -235.1)"/><path class="cls-5" d="M357,414.6h-6.4v-0.9h2.8v-0.5c-1.1-.1-1.9-0.5-1.9-1.2s1-1.3,2.4-1.3,2.4,0.5,2.4,1.3-0.7,1.1-1.8,1.2v0.5H357v0.8Zm-0.6-4.2h-5.4v-0.8h5.4v0.8Zm2,6.3c0,1-1.2,1.6-3.3,1.6s-3.4-.6-3.4-1.6,1.2-1.6,3.3-1.6S358.4,415.8,358.4,416.8Zm-3.5-7.6h-2.5v-0.8H355v0.8Zm0.2,3c0-.4-0.5-0.6-1.3-0.6s-1.3.1-1.3,0.6,0.5,0.5,1.3.5S355.2,412.5,355.2,412.1Zm2.1,4.7c0-.5-0.8-0.8-2.2-0.8s-2.2.3-2.2,0.8,0.7,0.8,2.2.8S357.3,417.3,357.3,416.8Zm2.3-4.1h-1.3v2.4h-1v-6.7h1v3.3h1.3v0.9Z" transform="translate(-164.1 -235.1)"/><path class="cls-5" d="M246,431.2a2.4,2.4,0,0,1-2.7,2.2,5.9,5.9,0,0,1-2.3-.5l0.2-1a5,5,0,0,0,1.9.6c0.9,0,1.9-.2,1.9-1.2a1.5,1.5,0,0,0-1.8-1.5h-0.9v-1h0.8a1.5,1.5,0,0,0,1.6-1.5c0-.8-0.6-1-1.4-1a4.1,4.1,0,0,0-1.9.7l-0.2-1a4.3,4.3,0,0,1,2.2-.7,2.2,2.2,0,0,1,2.3,2A2.1,2.1,0,0,0,246,431.2Z" transform="translate(-164.1 -235.1)"/><path class="cls-5" d="M248.3,434h-1.2v-1.3h1.2V434Z" transform="translate(-164.1 -235.1)"/><path class="cls-5" d="M260.9,430h-9v-0.9h4V428h-2.8v-3.2h6.5v0.9h-5.5v1.4h5.6V428H257v1.1h3.9V430Zm-1,2.5c0,1.2-1.4,1.9-3.5,1.9s-3.5-.6-3.5-1.9,1.5-1.8,3.5-1.8S259.9,431.4,259.9,432.5Zm-1.1,0c0-.7-1.2-1-2.3-1s-2.3.3-2.3,1,1.2,1,2.3,1S258.8,433.3,258.8,432.5Z" transform="translate(-164.1 -235.1)"/><path class="cls-5" d="M267.2,429a42.5,42.5,0,0,1-5.4.2v-4.3h1v3.4l4.4-.2V429Zm1.7,5.1h-6.1v-3.8h6.1v3.8Zm-1-.9v-1.9h-4.1v1.9h4.1Zm2.3-5.5h-1.3v2.2h-1v-5.4h1v2.3h1.3v0.9Z" transform="translate(-164.1 -235.1)"/><path class="cls-5" d="M277.5,428.7h-3.6v2h-1v-2h-2.1v-0.9h4.3c0.1-.9.1-1.5,0.1-2h-3.7V425h4.8c0,0.7-.1,1.6-0.3,2.9h1.4v0.9ZM279,434h-6.6v-2.8h1v1.9H279V434Zm-0.2-2.3h-1v-1.1h-2.2v-0.9h2.2v-5.2h1v7.2Z" transform="translate(-164.1 -235.1)"/><path class="cls-5" d="M285.7,426.8h-5.6v-0.8h5.6v0.8Zm-0.4,2c0,0.9-.9,1.6-2.4,1.6s-2.4-.6-2.4-1.6,1-1.5,2.4-1.5S285.4,427.9,285.4,428.8Zm2.4,3.8c0,1.1-1.1,1.8-3.3,1.8s-3.3-.8-3.3-1.8,1.1-1.8,3.3-1.8S287.8,431.5,287.8,432.6Zm-3.5-7.3h-2.8v-0.8h2.8v0.8Zm0,3.5c0-.5-0.5-0.8-1.4-0.8s-1.4.3-1.4,0.8,0.5,0.8,1.4.8S284.3,429.3,284.3,428.8Zm2.3,3.8c0-.6-0.7-1-2.2-1s-2.2.4-2.2,1,0.7,1,2.2,1S286.6,433.2,286.6,432.6Zm2.3-4.7h-1.3v2.6h-1v-6.1h1V427h1.3v0.9Z" transform="translate(-164.1 -235.1)"/><path class="cls-5" d="M297.9,433h-9v-0.9h4v-2h1v2h4V433Zm-1.1-3.3h-6.7v-4.6h1v3.7h5.7v0.9Z" transform="translate(-164.1 -235.1)"/><path class="cls-5" d="M304.8,432.6h-6.3v-0.9h2.7V431h1.1v0.8h2.6v0.9Zm-0.6-5.4h-5.3v-0.9h5.3v0.9Zm-0.3,2c0,0.9-.9,1.6-2.2,1.6s-2.2-.6-2.2-1.6,0.9-1.6,2.2-1.6S303.9,428.3,303.9,429.2Zm-1-3.5h-2.6v-0.9h2.6v0.9Zm0.1,3.5a1,1,0,0,0-1.3-.8,0.9,0.9,0,1,0,0,1.6C302.4,429.9,302.9,429.6,302.9,429.2Zm4.6,0.6h-1.4v4.5h-1v-9.7h1v4.3h1.4v1Z" transform="translate(-164.1 -235.1)"/><path class="cls-5" d="M314.5,432.1l-4,.2H308v-0.9h6.6v0.9Zm-1-4.6a2.5,2.5,0,1,1-2.5-2.3A2.3,2.3,0,0,1,313.5,427.5Zm-1,0a1.5,1.5,0,1,0-1.5,1.5A1.4,1.4,0,0,0,312.5,427.5Zm3.3,6.7h-1v-9.7h1v9.7Z" transform="translate(-164.1 -235.1)"/><path class="cls-5" d="M322.8,426.8h-5.6v-0.8h5.6v0.8Zm-0.4,2.1c0,1-.9,1.6-2.4,1.6s-2.4-.7-2.4-1.6,0.9-1.6,2.4-1.6S322.3,428,322.3,428.9Zm2.3,5.3h-1v-2.1h-5.4v-0.8h6.4v3Zm-3.3-8.9h-2.8v-0.8h2.8v0.8Zm0,3.6c0-.5-0.4-0.8-1.3-0.8s-1.3.3-1.3,0.8,0.4,0.8,1.3.8S321.3,429.4,321.3,428.9Zm4.7-.7h-1.3v2.5h-1v-6.2h1v2.8h1.3v0.9Z" transform="translate(-164.1 -235.1)"/><path class="cls-5" d="M332.9,432.6h-6.5v-0.9h2.8V431h1.1v0.8h2.7v0.9Zm-0.6-5.4h-5.4v-0.9h5.4v0.9Zm-0.4,2c0,0.9-1,1.6-2.3,1.6s-2.3-.6-2.3-1.6,1-1.6,2.3-1.6S331.9,428.3,331.9,429.2Zm-1-3.5h-2.7v-0.9h2.7v0.9Zm0,3.5a1.1,1.1,0,0,0-1.3-.8,0.9,0.9,0,1,0,0,1.6C330.4,430,330.9,429.6,330.9,429.2Zm3.2,5h-1v-9.7h1v9.7Z" transform="translate(-164.1 -235.1)"/><path class="cls-5" d="M344.4,429.1l-0.4.9a4.4,4.4,0,0,1-2.4-1.7,4.4,4.4,0,0,1-2.6,1.9l-0.5-.8c1-.3,2.5-1.2,2.5-2.4h-2v-0.9h5V427h-2C342.1,428.1,343.6,428.9,344.4,429.1Zm2,3.4c0,1.1-1.2,1.9-3.3,1.9s-3.3-.8-3.3-1.9,1.2-1.9,3.3-1.9S346.4,431.4,346.4,432.5Zm-3.6-7.2h-2.7v-0.9h2.7v0.9Zm2.5,7.2c0-.6-0.8-1.1-2.2-1.1s-2.2.4-2.2,1.1,0.7,1,2.2,1S345.3,433.1,345.3,432.5Zm2.2-4.4h-1.3v2.3h-1v-5.9h1v2.7h1.3v1Z" transform="translate(-164.1 -235.1)"/><path class="cls-5" d="M354,429.5a26,26,0,0,1-4,.2h-1.7v-2.8h3.6v-1.1h-3.6V425h4.6v2.8h-3.6v1.1H350a26.9,26.9,0,0,0,4-.2v0.8Zm1.6,4.6h-6.3v-3.8h1v1h4.3v-1h1v3.8Zm-1-.9v-1h-4.3v1h4.3Zm1-3.4h-1v-5.4h1v5.4Z" transform="translate(-164.1 -235.1)"/><path class="cls-5" d="M365.8,428.9l-0.5.9a5.1,5.1,0,0,1-2.5-2.3,5.5,5.5,0,0,1-2.5,2.5l-0.6-.8a4,4,0,0,0,2.5-3.6v-0.8h1v0.8A3.6,3.6,0,0,0,365.8,428.9Zm2.1,5.2h-6.2v-3.6h6.2v3.6Zm-1-.9v-1.8h-4.2v1.8h4.2Zm1-3.2h-1v-5.5h1V430Z" transform="translate(-164.1 -235.1)"/><path class="cls-5" d="M377.9,433h-9v-0.9h4v-1.7h1v1.7h4V433Zm-0.8-2.9h-7.3v-0.9h1.5l-0.3-2.6h1l0.3,2.6h2.4l0.3-2.6h1l-0.3,2.6h1.5v0.9Zm-0.2-3.9H370v-0.9h6.9v0.9Z" transform="translate(-164.1 -235.1)"/><path class="cls-5" d="M384.3,431.4l-0.6.9a5.7,5.7,0,0,1-2.2-2.8,6.8,6.8,0,0,1-2.5,3l-0.7-.8a5.2,5.2,0,0,0,2.6-4.5v-0.8h-2.1v-0.9h5.2v0.9h-2v0.8A4.7,4.7,0,0,0,384.3,431.4Zm2.2,2.8h-1v-9.7h1v9.7Z" transform="translate(-164.1 -235.1)"/><path class="cls-5" d="M392.7,427.1a2.4,2.4,0,1,1-2.4-2.3A2.3,2.3,0,0,1,392.7,427.1Zm-1,0a1.4,1.4,0,1,0-1.4,1.4A1.3,1.3,0,0,0,391.7,427.1Zm3.9,7h-6.3v-3.6h6.3v3.6Zm-1-.9v-1.8h-4.3v1.8h4.3Zm1-3.3h-1v-2.3h-1.5v-1h1.5v-2.2h1v5.4Z" transform="translate(-164.1 -235.1)"/><path class="cls-5" d="M408.6,430h-4.2v4.2h-1V430h-3.8v-0.9h6.5a27.5,27.5,0,0,0,.3-3.2h-5.8V425h6.9a30,30,0,0,1-.4,4.1h1.5V430Z" transform="translate(-164.1 -235.1)"/><path class="cls-5" d="M415.2,429l-0.5.9a5.4,5.4,0,0,1-2.5-2.4,5.8,5.8,0,0,1-2.5,2.6l-0.6-.8a4.2,4.2,0,0,0,2.5-3.7v-0.9h1v0.9A3.8,3.8,0,0,0,415.2,429Zm2.2,3.4c0,1.1-1.1,1.9-3.3,1.9s-3.3-.8-3.3-1.9,1.4-2,3.3-2S417.3,431.2,417.3,432.4Zm-1.1,0c0-.8-1.1-1.1-2.3-1.1s-2.3.3-2.3,1.1,1.1,1.1,2.3,1.1S416.3,433.2,416.3,432.5Zm0.9-2.2h-1v-2.8h-1.9v-0.9h1.9v-2h1v5.8Z" transform="translate(-164.1 -235.1)"/><path class="cls-5" d="M424.6,433.8h-1v-4.2h-1c-0.1,1.9-.9,3-2,3s-2.1-1.3-2.1-3.5,0.9-3.5,2.1-3.5,1.9,1.1,2,3h1v-3.8h1v9.1Zm-2.9-4.8c0-1.5-.4-2.6-1.1-2.6s-1.1,1-1.1,2.6,0.4,2.6,1.1,2.6S421.7,430.5,421.7,429Zm4.7,5.2h-1v-9.7h1v9.7Z" transform="translate(-164.1 -235.1)"/><path class="cls-5" d="M435.1,431.9h-3.9v-6.4h3.3v0.9h-2.3v4.5h2.9v0.9Zm3.5,2.3h-1v-5h-1.2v4.6h-1v-9.1h1v3.5h1.2v-3.7h1v9.7Z" transform="translate(-164.1 -235.1)"/><path class="cls-5" d="M445.6,426.9H440V426h5.6v0.9Zm-0.4,2.2c0,0.9-.9,1.7-2.4,1.7s-2.4-.8-2.4-1.7,0.9-1.7,2.4-1.7S445.2,428.2,445.2,429.1Zm2.5,4.9h-6.4v-2.7h1.1v1.8h5.3V434Zm-3.6-8.7h-2.8v-0.8h2.8v0.8Zm0,3.8c0-.5-0.4-0.9-1.3-0.9s-1.3.3-1.3,0.9,0.4,0.9,1.3.9S444.2,429.6,444.2,429.1Zm4.6-.7h-1.3v3.3h-1v-7.2h1v3h1.3v0.9Z" transform="translate(-164.1 -235.1)"/><path class="cls-5" d="M460.8,433h-9v-0.9h4v-1.4h1v1.4h4V433Zm-1.1-2.7H453v-5.1h6.5v0.9h-5.5v1.2h5.4v0.9h-5.4v1.2h5.6v0.9Z" transform="translate(-164.1 -235.1)"/><path class="cls-5" d="M468.1,432.1l-4,.2h-2.5v-0.9h6.6v0.9Zm-1-4.6a2.5,2.5,0,1,1-2.5-2.3A2.3,2.3,0,0,1,467.1,427.5Zm-1,0a1.5,1.5,0,1,0-1.5,1.5A1.4,1.4,0,0,0,466.1,427.5Zm3.3,6.7h-1v-9.7h1v9.7Z" transform="translate(-164.1 -235.1)"/><path class="cls-5" d="M246.3,447.7h-1v1.7h-1v-1.7H241v-1.1l2.9-5.3h1.4v5.4h1v1Zm-2-1v-4.3l-2.4,4.3h2.4Z" transform="translate(-164.1 -235.1)"/><path class="cls-5" d="M248.3,450h-1.2v-1.3h1.2V450Z" transform="translate(-164.1 -235.1)"/><path class="cls-5" d="M258.2,449.8h-1v-4.5h-1v2.8h-3.6v-6.3h3.6v2.6h1v-3.6h1v9.1Zm-3-2.7v-4.5h-1.6v4.5h1.6Zm4.9,3.1h-1v-9.7h1v9.7Z" transform="translate(-164.1 -235.1)"/><path class="cls-5" d="M267.4,447.9h-5.3v-6.4h4.5v0.9h-3.5v4.6h4.3v0.9Zm1.8,2.3h-1v-9.7h1v9.7Z" transform="translate(-164.1 -235.1)"/><path class="cls-5" d="M279.4,447h-4v3.2h-1V447h-4v-0.9h9V447Zm-1.2-2h-6.5v-4.3h1v1.2h4.6v-1.2h1v4.3Zm-1-.9v-1.3h-4.6v1.3h4.6Z" transform="translate(-164.1 -235.1)"/><path class="cls-5" d="M285.7,445.4l-0.5.8a5.6,5.6,0,0,1-2.5-2.5,5.9,5.9,0,0,1-2.5,2.6l-0.6-.7a4.5,4.5,0,0,0,2.5-4.1v-0.8h1v0.8A3.9,3.9,0,0,0,285.7,445.4Zm2.2,4.6h-6.3v-3h1v2.1h5.3V450Zm1-5.7h-1.3v3.2h-1v-7h1v2.9h1.3v0.9Z" transform="translate(-164.1 -235.1)"/><path class="cls-5" d="M294.7,450.7H294a8.1,8.1,0,0,1,0-10.7h0.7A9.3,9.3,0,0,0,294.7,450.7Z" transform="translate(-164.1 -235.1)"/><path class="cls-5" d="M300.9,442.8h-5.6V442h5.6v0.8Zm-0.4,2c0,0.9-.9,1.6-2.4,1.6s-2.4-.6-2.4-1.6,1-1.5,2.4-1.5S300.5,443.9,300.5,444.8Zm2.4,3.8c0,1.1-1.1,1.8-3.3,1.8s-3.3-.8-3.3-1.8,1.1-1.8,3.3-1.8S302.9,447.5,302.9,448.6Zm-3.5-7.3h-2.8v-0.8h2.8v0.8Zm0,3.5c0-.5-0.5-0.8-1.4-0.8s-1.4.3-1.4,0.8,0.5,0.8,1.4.8S299.5,445.3,299.5,444.8Zm2.3,3.8c0-.6-0.7-1-2.2-1s-2.2.4-2.2,1,0.7,1,2.2,1S301.8,449.2,301.8,448.6ZM304,444h-1.3v2.6h-1v-6.1h1v2.5H304V444Z" transform="translate(-164.1 -235.1)"/><path class="cls-5" d="M313.1,449h-9v-0.9h4v-2h1v2h4V449Zm-1.1-3.3h-6.7v-4.6h1v3.7H312v0.9Z" transform="translate(-164.1 -235.1)"/><path class="cls-5" d="M319.9,448.6h-6.3v-0.9h2.7V447h1.1v0.8h2.6v0.9Zm-0.6-5.4H314v-0.9h5.3v0.9Zm-0.3,2c0,0.9-.9,1.6-2.2,1.6s-2.2-.6-2.2-1.6,0.9-1.6,2.2-1.6S319,444.3,319,445.2Zm-1-3.5h-2.6v-0.9H318v0.9Zm0.1,3.5a1,1,0,0,0-1.3-.8,0.9,0.9,0,1,0,0,1.6C317.5,446,318,445.7,318,445.2Zm4.6,0.6h-1.4v4.5h-1v-9.7h1v4.3h1.4v1Z" transform="translate(-164.1 -235.1)"/><path class="cls-5" d="M325.2,445.3a7.5,7.5,0,0,1-2,5.3h-0.7a9.3,9.3,0,0,0,0-10.7h0.7A7.6,7.6,0,0,1,325.2,445.3Z" transform="translate(-164.1 -235.1)"/><path class="cls-5" d="M333.5,445.8h-4.4V441h1v1.6h2.4V441h1v4.9Zm2.7,4.4h-1v-2.5h-5.3v-0.9h6.3v3.4Zm-3.7-5.3v-1.4h-2.4v1.4h2.4Zm5-1h-1.3v2.4h-1v-5.8h1V443h1.3v0.9Z" transform="translate(-164.1 -235.1)"/><path class="cls-5" d="M343.9,445.7a25.9,25.9,0,0,1-4,.2h-1.5V443h3.4v-1.1h-3.4V441h4.4v2.8h-3.4V445h0.6a26.9,26.9,0,0,0,4-.2v0.9Zm1.5,4.4h-6.1v-3.4h6.1v3.4Zm-1-.9v-1.6h-4.1v1.6h4.1Zm2.3-5.1h-1.3v2.2h-1v-5.7h1v2.6h1.3v0.9Z" transform="translate(-164.1 -235.1)"/><path class="cls-5" d="M353.9,448.6h-6.5v-0.9h2.8V447h1.1v0.8h2.7v0.9Zm-0.6-5.4h-5.4v-0.9h5.4v0.9Zm-0.4,2c0,0.9-1,1.6-2.3,1.6s-2.3-.6-2.3-1.6,1-1.6,2.3-1.6S352.9,444.3,352.9,445.2Zm-1-3.5h-2.7v-0.9H352v0.9Zm0,3.5a1.1,1.1,0,0,0-1.3-.8,0.9,0.9,0,1,0,0,1.6C351.4,446,352,445.7,352,445.2Zm3.2,5h-1v-9.7h1v9.7Z" transform="translate(-164.1 -235.1)"/><path class="cls-5" d="M365.8,446.3l-3.5.2h-3v-0.9h1.9v-2.2h1v2.2l3.5-.2v0.9Zm-0.9-5.2a32.6,32.6,0,0,1-.2,3.6h-1c0.1-1.1.2-2.1,0.2-2.7H360v-0.9h4.9Zm2.5,8.9h-6.4v-2.9h1v2h5.5V450Zm1-5.3H367v3h-1v-7.2h1v3.2h1.3v0.9Z" transform="translate(-164.1 -235.1)"/><path class="cls-5" d="M374.6,445.7a25.9,25.9,0,0,1-4,.2h-1.5V443h3.4v-1.1h-3.4V441h4.4v2.8h-3.4V445h0.6a26.9,26.9,0,0,0,4-.2v0.9Zm1.5,4.4h-6.1v-3.4h6.1v3.4Zm-1-.9v-1.6h-4.1v1.6h4.1Zm2.3-5.1h-1.3v2.2h-1v-5.7h1v2.6h1.3v0.9Z" transform="translate(-164.1 -235.1)"/></svg>