<svg id="Layer_1" data-name="Layer 1" xmlns="http://www.w3.org/2000/svg" viewBox="0 0 453.5 221.1"><defs><style>.cls-1{fill:#e6e7e8;}.cls-2,.cls-5{fill:#f78f35;}.cls-3,.cls-4{fill:none;stroke:#f78f35;stroke-miterlimit:10;}.cls-3{stroke-width:0.28px;}.cls-4{stroke-width:1.13px;}.cls-5{fill-rule:evenodd;}.cls-6{fill:#fff;}.cls-7{fill:#231f20;}</style></defs><title>seas_program</title><rect class="cls-1" x="379.8" y="99.2" width="73.7" height="22.68"/><path class="cls-2" d="M506.6,213.4h-5.7v-1.2l2.9-3.3,0.6-.8a1.8,1.8,0,0,0,.2-0.9,0.9,0.9,0,0,0-.4-0.8l-0.8-.2-1.1.2-1,.4-0.4-1.3,1.2-.4,1.4-.2a3,3,0,0,1,2.1.6,2.4,2.4,0,0,1,.6,1.8,2.9,2.9,0,0,1-.3,1.4l-0.9,1.2-2.1,2.3h3.5v1.4Z" transform="translate(-99.2 -99.2)"/><path class="cls-2" d="M513.4,213.4h-5.3V212h1.8v-5.5a0.4,0.4,0,0,0-.1-0.3h-1.5v-1.4h2.4a0.9,0.9,0,0,1,.7.2,1.1,1.1,0,0,1,.2.7V212h1.7v1.4Z" transform="translate(-99.2 -99.2)"/><path class="cls-2" d="M520.7,213.4H515v-1.2l2.9-3.3,0.6-.8a1.8,1.8,0,0,0,.2-0.9,0.9,0.9,0,0,0-.4-0.8l-0.8-.2-1.1.2-1,.4-0.4-1.3,1.2-.4,1.4-.2a3,3,0,0,1,2.1.6,2.4,2.4,0,0,1,.6,1.8,2.9,2.9,0,0,1-.3,1.4l-0.9,1.2-2.1,2.3h3.5v1.4Z" transform="translate(-99.2 -99.2)"/><path class="cls-2" d="M528.8,210a2.9,2.9,0,0,1-1.6.8V212h4.1v1.3h-9.6V212h3.8v-1.2a2.8,2.8,0,0,1-1.5-.8,2.3,2.3,0,0,1-.6-1.6,2.6,2.6,0,0,1,.1-0.7l0.3-.6h-1.2v-1.3h2.8a1,1,0,0,0,.1-0.4,1.5,1.5,0,0,0,0-.4v-0.4l1.7-.4a3,3,0,0,1,.1.9,1.5,1.5,0,0,1-.2.8h3.1V207H529l0.3,0.6a2.5,2.5,0,0,1,.1.7A2.2,2.2,0,0,1,528.8,210Zm-1.4-2.5a1.2,1.2,0,0,0-1-.4,1.2,1.2,0,0,0-1,.4,1.4,1.4,0,0,0-.3.9,1.3,1.3,0,0,0,.3.9,1.2,1.2,0,0,0,1,.4,1.2,1.2,0,0,0,1-.4,1.3,1.3,0,0,0,.3-0.9A1.4,1.4,0,0,0,527.4,207.5Z" transform="translate(-99.2 -99.2)"/><line class="cls-3" x1="141.7" y1="5.7" x2="453.5" y2="5.7"/><line class="cls-4" x1="141.7" y1="121.9" x2="453.5" y2="121.9"/><path class="cls-5" d="M226.8,163A63.8,63.8,0,1,1,163,99.2,63.8,63.8,0,0,1,226.8,163" transform="translate(-99.2 -99.2)"/><path class="cls-6" d="M141.4,157.6a2.3,2.3,0,0,0,.7-1.6,1.4,1.4,0,0,0-.2-0.7l-0.4-.5-0.5-.3-0.6-.3-0.9-.3-0.8-.3-0.8-.3-1.1-.4a6.9,6.9,0,0,1-2.8-1.6,4.1,4.1,0,0,1-.9-2.9,4.6,4.6,0,0,1,.5-2.2,4.4,4.4,0,0,1,1.4-1.5,5.9,5.9,0,0,1,2-.9l2.5-.3a11,11,0,0,1,2.6.3l2.9,1-0.8,2.8-2.7-.9a6.5,6.5,0,0,0-2-.3,3,3,0,0,0-2.1.6,1.9,1.9,0,0,0-.6,1.5,1.3,1.3,0,0,0,.4,1l1.2,0.7,1,0.4,0.8,0.3L141,151l0.9,0.3,1.5,0.6a4.8,4.8,0,0,1,1.2.9,3.7,3.7,0,0,1,.9,1.3,4.7,4.7,0,0,1,.3,1.8,4.9,4.9,0,0,1-1.6,3.9q-1.6,1.4-5.1,1.4a10.9,10.9,0,0,1-3-.4,17.3,17.3,0,0,1-3.1-1.2l1.2-2.9,1.3,0.6,1.2,0.5,1.2,0.4h1.3A3.1,3.1,0,0,0,141.4,157.6Z" transform="translate(-99.2 -99.2)"/><path class="cls-6" d="M160.4,146.5h-6.7a1.2,1.2,0,0,0-.9.3,1.3,1.3,0,0,0-.2.8v3.3h7.7v2.8h-7.7V157a1.3,1.3,0,0,0,.2.8,1.2,1.2,0,0,0,.9.3h6.9v2.7h-8.1a4,4,0,0,1-2.7-.7,3.3,3.3,0,0,1-.8-2.6V147a3.3,3.3,0,0,1,.8-2.6,4,4,0,0,1,2.7-.7h7.9v2.7Z" transform="translate(-99.2 -99.2)"/><path class="cls-6" d="M178.5,160.8h-3.6l-1.2-3.6h-6.5l-1.2,3.6h-3.6l6-17.1h4.1Zm-5.5-6.1-2.5-7.9-2.5,7.9h5Z" transform="translate(-99.2 -99.2)"/><path class="cls-6" d="M188.5,157.6a2.3,2.3,0,0,0,.7-1.6,1.4,1.4,0,0,0-.2-0.7l-0.4-.5-0.5-.3-0.6-.3-0.9-.3-0.8-.3-0.8-.3-1.1-.4a6.9,6.9,0,0,1-2.8-1.6,4.1,4.1,0,0,1-.9-2.9,4.6,4.6,0,0,1,.5-2.2,4.4,4.4,0,0,1,1.4-1.5,5.9,5.9,0,0,1,2-.9l2.5-.3a11,11,0,0,1,2.6.3l2.9,1-0.8,2.8-2.7-.9a6.5,6.5,0,0,0-2-.3,3,3,0,0,0-2.1.6,1.9,1.9,0,0,0-.6,1.5,1.3,1.3,0,0,0,.4,1l1.2,0.7,1,0.4,0.8,0.3,0.8,0.3,0.9,0.3,1.5,0.6a4.8,4.8,0,0,1,1.2.9,3.7,3.7,0,0,1,.9,1.3,4.7,4.7,0,0,1,.3,1.8,4.9,4.9,0,0,1-1.6,3.9q-1.6,1.4-5.1,1.4a10.9,10.9,0,0,1-3-.4,17.3,17.3,0,0,1-3.1-1.2l1.2-2.9,1.3,0.6,1.2,0.5,1.2,0.4h1.3A3.1,3.1,0,0,0,188.5,157.6Z" transform="translate(-99.2 -99.2)"/><path class="cls-6" d="M121.6,178.2H110.1v-1.1h5.1v-1.4h-3.5v-4.1H120v1.1H113v1.8h7.2v1.1h-3.6v1.4h5v1.1Zm-1.3,3.2c0,1.5-1.7,2.4-4.4,2.4s-4.4-.8-4.4-2.4,1.9-2.4,4.4-2.4S120.3,180,120.3,181.4Zm-1.4,0c0-1-1.5-1.3-3-1.3s-3,.4-3,1.3,1.5,1.3,3,1.3S118.8,182.4,118.8,181.5Z" transform="translate(-99.2 -99.2)"/><path class="cls-6" d="M129.6,176.9a54.1,54.1,0,0,1-6.9.3v-5.5H124V176c1.1,0,4-.1,5.6-0.3v1.1Zm2.1,6.5H124v-4.8h7.8v4.8Zm-1.3-1.1v-2.5h-5.2v2.5h5.2Zm3-7.1h-1.7v2.9h-1.3v-6.9h1.3v2.9h1.7v1.1Z" transform="translate(-99.2 -99.2)"/><path class="cls-6" d="M142.7,176.6l-4.6.2v2.5h-1.3v-2.5h-2.7v-1.1h5.4c0.1-1.2.1-1.9,0.2-2.6h-4.7v-1.1h6.1c0,0.9-.1,2-0.3,3.7h1.8v1.1Zm1.9,6.7h-8.4v-3.5h1.3v2.4h7.1v1.1Zm-0.3-2.9H143v-1.4h-2.7v-1.1H143v-6.6h1.3v9.2Z" transform="translate(-99.2 -99.2)"/><path class="cls-6" d="M153.1,174.1H146V173h7.2v1.1Zm-0.5,2.5c0,1.2-1.2,2-3.1,2s-3.1-.8-3.1-2,1.3-1.9,3.1-1.9S152.7,175.5,152.7,176.6Zm3.1,4.9c0,1.4-1.5,2.3-4.2,2.3s-4.2-1-4.2-2.3,1.4-2.3,4.2-2.3S155.7,180.1,155.7,181.5Zm-4.4-9.3h-3.6v-1.1h3.6v1.1Zm0,4.4c0-.6-0.7-1-1.8-1s-1.8.3-1.8,1,0.7,1,1.8,1S151.3,177.3,151.3,176.6Zm3,4.9c0-.8-0.9-1.3-2.8-1.3s-2.8.5-2.8,1.3,0.9,1.3,2.8,1.3S154.3,182.3,154.3,181.5Zm2.9-5.9h-1.7v3.4h-1.2v-7.7h1.2v3.2h1.7v1.1Z" transform="translate(-99.2 -99.2)"/><path class="cls-6" d="M168.7,182H157.3v-1.1h5v-2.6h1.3v2.6h5.1V182Zm-1.3-4.2h-8.5v-5.9h1.3v4.7h7.2v1.1Z" transform="translate(-99.2 -99.2)"/><path class="cls-6" d="M177.4,181.5h-8v-1.2h3.4v-1h1.3v1h3.3v1.1Zm-0.7-6.9h-6.7v-1.1h6.7v1.1Zm-0.4,2.5c0,1.2-1.2,2-2.9,2s-2.8-.8-2.8-2,1.2-2,2.8-2S176.2,176,176.2,177.1Zm-1.3-4.5h-3.3v-1.1h3.3v1.1Zm0.1,4.5c0-.6-0.6-1-1.6-1s-1.6.4-1.6,1,0.6,1,1.6,1S175,177.7,175,177.1Zm5.8,0.8H179v5.7h-1.3V171.2H179v5.5h1.8v1.2Z" transform="translate(-99.2 -99.2)"/><path class="cls-6" d="M189.8,180.9l-5.1.2h-3.2v-1.1c5.5,0,6.8-.1,8.4-0.2v1.1Zm-1.3-5.9a3.2,3.2,0,1,1-3.2-3A3,3,0,0,1,188.5,175Zm-1.3,0a1.9,1.9,0,1,0-1.9,1.8A1.7,1.7,0,0,0,187.2,175Zm4.2,8.6h-1.3V171.2h1.3v12.4Z" transform="translate(-99.2 -99.2)"/><path class="cls-6" d="M200.3,174.1h-7.2V173h7.2v1.1Zm-0.5,2.7c0,1.2-1.1,2.1-3.1,2.1s-3-.8-3-2.1,1.2-2,3.1-2S199.8,175.6,199.8,176.8Zm2.9,6.8h-1.3v-2.7h-6.9v-1.1h8.2v3.8Zm-4.2-11.4h-3.6v-1.1h3.6v1.1Zm-0.1,4.6c0-.7-0.5-1-1.7-1s-1.7.4-1.7,1.1,0.6,1.1,1.7,1.1S198.4,177.4,198.4,176.8Zm5.9-.8h-1.7v3.1h-1.2v-7.9h1.2v3.5h1.7v1.2Z" transform="translate(-99.2 -99.2)"/><path class="cls-6" d="M213.1,181.5h-8.3v-1.2h3.6v-1.1h1.3v1.1h3.4v1.1Zm-0.7-6.9h-6.9v-1.1h6.9v1.1Zm-0.5,2.5c0,1.2-1.2,2-2.9,2s-2.9-.8-2.9-2,1.2-2,2.9-2S211.9,176,211.9,177.2Zm-1.3-4.5h-3.5v-1.1h3.5v1.1Zm0,4.5c0-.6-0.7-1-1.7-1s-1.6.4-1.6,1,0.7,1,1.6,1S210.7,177.8,210.7,177.2Zm4.1,6.4h-1.3V171.2h1.3v12.4Z" transform="translate(-99.2 -99.2)"/><path class="cls-2" d="M262.2,127.3a0.9,0.9,0,0,0,.2.7l0.8,0.2h7.9a19,19,0,0,0,3.6-.7l0.5,2.4a17.6,17.6,0,0,1-3.3.7l-3.4.2v2.1h9.3v2.5H256.2v-2.5h9v-2.1h-2.9a4.7,4.7,0,0,1-2.4-.6,2.2,2.2,0,0,1-1-2.1v-5.7h15.5v2.5H262.2v2.5Zm10.9,17a5,5,0,0,1-1.5,1.7,6.3,6.3,0,0,1-2.1,1,9.6,9.6,0,0,1-2.6.3,9.7,9.7,0,0,1-2.6-.3,6.6,6.6,0,0,1-2.1-1,4.9,4.9,0,0,1-1.5-1.7,4.9,4.9,0,0,1,1.5-6.3,6.5,6.5,0,0,1,2.1-1,9.8,9.8,0,0,1,5.2,0,6.2,6.2,0,0,1,2.1,1,4.8,4.8,0,0,1,2,4A4.7,4.7,0,0,1,273.1,144.3Zm-3.7-4.5a4.2,4.2,0,0,0-2.5-.7,4.3,4.3,0,0,0-2.5.7,2.8,2.8,0,0,0,0,4.3,4.4,4.4,0,0,0,2.5.7,4.3,4.3,0,0,0,2.5-.7A2.8,2.8,0,0,0,269.4,139.9Z" transform="translate(-99.2 -99.2)"/><path class="cls-2" d="M284,134a2.9,2.9,0,0,1-2.1-.7,2.9,2.9,0,0,1-.6-2.1v-8.5h3.2v7.8a0.9,0.9,0,0,0,.2.6l0.6,0.2h3.6l3.4-.3a12,12,0,0,0,3.9-1.3v-7.4h3.2v5.2h3.9v2.5h-3.9v3.3a3.9,3.9,0,0,1-.5,2,5.2,5.2,0,0,1-1.1,1.4,1.6,1.6,0,0,1,1.2.7,2.6,2.6,0,0,1,.3,1.6l-0.4,6.7a0.8,0.8,0,0,1-.4.7l-0.9.2H286.5a4.1,4.1,0,0,1-2.3-.5,2.4,2.4,0,0,1-.8-2.1v-7.3H295a2.9,2.9,0,0,0,.9-1.5,7.2,7.2,0,0,0,.3-1.9v-0.9l-1.8.7-1.9.5-1.9.3H284Zm11.9,10.2v-4.8h-9.4v3.8a1.2,1.2,0,0,0,.2.8,1.2,1.2,0,0,0,.9.2h8.3Z" transform="translate(-99.2 -99.2)"/><path class="cls-2" d="M305.4,130.9h10.1a19,19,0,0,0,.5-2.8q0.1-1.3.2-2.1a0.5,0.5,0,0,0-.2-0.5h-9.2v-2.6h10.2a2.4,2.4,0,0,1,1.6.5,2.3,2.3,0,0,1,.5,1.7,20.3,20.3,0,0,1-.2,2.6q-0.2,1.5-.5,2.8l1.1-.2,1.1-.3,0.5,2.4a12.9,12.9,0,0,1-3.8.9l-4.1.2v4h-3.2v-4h-4.9v-2.5Zm7.1,12.2a0.8,0.8,0,0,0,.2.6l0.6,0.2h6.6l3.1-.2a15.7,15.7,0,0,0,3-.7l0.6,2.4-1.7.5-1.5.3h-11a3.6,3.6,0,0,1-2.3-.6,2.4,2.4,0,0,1-.8-2v-5.1h3.2v4.3Zm13.2-3.3h-3.2v-2.7h-4.7v-2.4h4.7V122.4h3.2v17.4Z" transform="translate(-99.2 -99.2)"/><path class="cls-2" d="M343.2,126.8h-2a5.4,5.4,0,0,1,.7,1.3,4.6,4.6,0,0,1,.2,1.5,4.9,4.9,0,0,1-.4,2.1,5.1,5.1,0,0,1-1.2,1.7,5.9,5.9,0,0,1-1.9,1.1,7.3,7.3,0,0,1-2.4.4,7.6,7.6,0,0,1-2.5-.4,5.6,5.6,0,0,1-1.9-1.1,4.6,4.6,0,0,1-1.2-1.7,5.1,5.1,0,0,1-.4-2.1,4.9,4.9,0,0,1,.2-1.5,5,5,0,0,1,.6-1.3h-2v-2.5h5.3a2.4,2.4,0,0,0,.2-0.8,4.3,4.3,0,0,0,0-1v-0.5l-0.2-.5,3.1-.9,0.3,0.9a3.9,3.9,0,0,1,.1.8,4.3,4.3,0,0,1-.1,1l-0.3.9h6.1v2.5Zm-5,.9a2.9,2.9,0,0,0-2.2-.8,2.9,2.9,0,0,0-2.2.8,2.8,2.8,0,0,0,0,3.8,2.9,2.9,0,0,0,2.2.8,2.9,2.9,0,0,0,2.2-.8A2.8,2.8,0,0,0,338.2,127.8Zm9.1,16.3a5.6,5.6,0,0,1-1.4,1.8,6.6,6.6,0,0,1-2.1,1.1,8.5,8.5,0,0,1-2.5.4,8.7,8.7,0,0,1-2.6-.4,6.6,6.6,0,0,1-2.1-1.1,5.4,5.4,0,0,1-1.4-6.5,5.4,5.4,0,0,1,1.4-1.8,6.8,6.8,0,0,1,2.1-1.1,8.4,8.4,0,0,1,2.6-.4l1.7,0.2,1.6,0.4a2.9,2.9,0,0,0,.8-1.2,5.3,5.3,0,0,0,.3-1.8V122.4h3.2v5.8h3.9v2.5h-3.9v3a4.8,4.8,0,0,1-.6,2.5,5.8,5.8,0,0,1-1.7,1.8,5.5,5.5,0,0,1,1.1,1.6,5.1,5.1,0,0,1,.4,2.1A5,5,0,0,1,347.3,144.1Zm-3.7-4.6a3.5,3.5,0,0,0-2.5-.8,3.7,3.7,0,0,0-2.5.8,2.9,2.9,0,0,0-1,2.3,2.8,2.8,0,0,0,1,2.3,3.8,3.8,0,0,0,2.5.8,3.7,3.7,0,0,0,2.5-.8,2.8,2.8,0,0,0,.9-2.3A2.9,2.9,0,0,0,343.6,139.5Z" transform="translate(-99.2 -99.2)"/><path class="cls-2" d="M359.8,123.2v8.3a1,1,0,0,0,.2.7,0.8,0.8,0,0,0,.6.2H366l3.3-.2,3-.6,0.7,2.5a14,14,0,0,1-3,.7l-3.7.2V140h9.3v2.6H353.9V140h9V135H360a5.5,5.5,0,0,1-2.5-.5,2.2,2.2,0,0,1-.9-2.2v-9.2h3.2Z" transform="translate(-99.2 -99.2)"/><path class="cls-2" d="M390,134.3a5.9,5.9,0,0,1-3.3,1.9v3.4h0.4a16.2,16.2,0,0,0,3.9-.4,12.4,12.4,0,0,0,3.5-1.5V122.7h3.2v8.8h3.9v2.7h-3.9V145h-3.2v-4.6a11.2,11.2,0,0,1-3.2,1.3,18.1,18.1,0,0,1-4.2.4h-9.6v-2.6h6v-3.3a6,6,0,0,1-3.4-1.9,5.3,5.3,0,0,1-1-5.1,5.4,5.4,0,0,1,.7-1.4h-2.6v-2.6h6a2.1,2.1,0,0,0,.3-0.8,3.7,3.7,0,0,0,.1-0.8,4.2,4.2,0,0,0-.1-0.7l-0.2-.8,3.2-.9v1.3a4.3,4.3,0,0,1-.1,1.5,3.3,3.3,0,0,1-.5,1.1h6.5v2.6h-2.5a6.4,6.4,0,0,1,.7,1.4,4.8,4.8,0,0,1,.3,1.6A5.1,5.1,0,0,1,390,134.3Zm-2.7-5.5a2.9,2.9,0,0,0-2.2-.9,3,3,0,0,0-2.3.9,3.1,3.1,0,0,0,0,4.2,3.1,3.1,0,0,0,2.3.8,3,3,0,0,0,2.2-.8A3.2,3.2,0,0,0,387.3,128.8Z" transform="translate(-99.2 -99.2)"/><path class="cls-2" d="M412.3,139a19.8,19.8,0,0,0,4.5-.4,12.1,12.1,0,0,0,3.5-1.4V122.7h3.2V145h-3.2v-5.2a13.7,13.7,0,0,1-3.6,1.3,20.2,20.2,0,0,1-4.6.5H403V139h9.3Zm4.8-7.1a5.9,5.9,0,0,1-1.4,2,6.4,6.4,0,0,1-2.2,1.3,8.1,8.1,0,0,1-2.8.4,8.3,8.3,0,0,1-2.8-.4,6.1,6.1,0,0,1-2.2-1.3,5.9,5.9,0,0,1-1.4-2,6.8,6.8,0,0,1-.5-2.7,6.6,6.6,0,0,1,.5-2.6,5.9,5.9,0,0,1,1.4-2,6.8,6.8,0,0,1,2.2-1.3,7.8,7.8,0,0,1,2.8-.5,7.7,7.7,0,0,1,2.7.5,6.4,6.4,0,0,1,2.2,1.3,6.1,6.1,0,0,1,1.4,2,6.5,6.5,0,0,1,.5,2.6A6.8,6.8,0,0,1,417.1,131.9Zm-3.7-5.5a3.5,3.5,0,0,0-2.6-1,3.6,3.6,0,0,0-2.6,1,3.8,3.8,0,0,0-1,2.8,3.4,3.4,0,0,0,3.7,3.8,3.7,3.7,0,0,0,2.6-1,3.8,3.8,0,0,0,1-2.9A3.8,3.8,0,0,0,413.4,126.4Z" transform="translate(-99.2 -99.2)"/><path class="cls-2" d="M440.9,126.8h-2.1a6,6,0,0,1,.7,1.4,4.9,4.9,0,0,1,.3,1.6,5.2,5.2,0,0,1-.4,2.1,5.5,5.5,0,0,1-1.2,1.7,6.1,6.1,0,0,1-1.9,1.1,6.9,6.9,0,0,1-2.5.4,7.3,7.3,0,0,1-2.6-.4,5.7,5.7,0,0,1-1.9-1.1A5.1,5.1,0,0,1,428,132a5.5,5.5,0,0,1-.4-2.1,5.2,5.2,0,0,1,.2-1.6,5.1,5.1,0,0,1,.7-1.4h-2.1v-2.5h5.3a2.4,2.4,0,0,0,.2-0.8,4.3,4.3,0,0,0,0-1v-0.5l-0.2-.5,3.1-.9,0.3,0.9a3.9,3.9,0,0,1,.1.8,4.3,4.3,0,0,1-.1,1l-0.3.9h6.1v2.5Zm5,19.9h-3v-6.2a0.7,0.7,0,0,0-.2-0.5l-0.5-.2H430v-2.6h12a2.9,2.9,0,0,0,.9-1.5,7,7,0,0,0,.3-1.9V122.4h3.2v6h3.9v2.5h-3.9V134a3.9,3.9,0,0,1-.5,2,5.2,5.2,0,0,1-1.1,1.4,1.4,1.4,0,0,1,1.1.6,2,2,0,0,1,.4,1.3Zm-9.9-18.9a2.7,2.7,0,0,0-2.2-.9,2.7,2.7,0,0,0-2.2.9,3,3,0,0,0,0,4,2.7,2.7,0,0,0,2.2.9,2.7,2.7,0,0,0,2.2-.9A3.1,3.1,0,0,0,435.9,127.9Z" transform="translate(-99.2 -99.2)"/><path class="cls-2" d="M464.7,134.3a5.9,5.9,0,0,1-3.3,1.9v3.1h0.4a15.8,15.8,0,0,0,4-.5,12.5,12.5,0,0,0,3.6-1.6V122.7h3.2V145h-3.2v-5a10.5,10.5,0,0,1-3.3,1.4,18.3,18.3,0,0,1-4.3.4h-9.6v-2.6h6v-3.1a6,6,0,0,1-3.4-1.9,5.3,5.3,0,0,1-1-5.1,5.4,5.4,0,0,1,.7-1.4h-2.6v-2.6h6a2.1,2.1,0,0,0,.3-0.8,3.7,3.7,0,0,0,.1-0.8,4.2,4.2,0,0,0-.1-0.7l-0.2-.8,3.2-.9v1.3a4.3,4.3,0,0,1-.1,1.5,3.3,3.3,0,0,1-.5,1.1h6.5v2.6H465a6.4,6.4,0,0,1,.7,1.4,4.8,4.8,0,0,1,.3,1.6A5.1,5.1,0,0,1,464.7,134.3Zm-2.7-5.5a2.9,2.9,0,0,0-2.2-.9,3,3,0,0,0-2.3.9,3.1,3.1,0,0,0,0,4.2,3.1,3.1,0,0,0,2.3.8,3,3,0,0,0,2.2-.8A3.2,3.2,0,0,0,462,128.8Z" transform="translate(-99.2 -99.2)"/><path class="cls-2" d="M262.8,156.8a7.9,7.9,0,0,1,.6,1.8,9.5,9.5,0,0,1,.2,1.8,19.6,19.6,0,0,1-.2,2.5,19.1,19.1,0,0,1-.4,2.3,3.7,3.7,0,0,1,1.6.6,3.9,3.9,0,0,1,1.1,1.3l1.3,2.5,1.4,3-2.4,1.3-1.3-2.8-1-2.1-0.6-.9-1-.6a21.2,21.2,0,0,1-1.9,3.2,27.8,27.8,0,0,1-2.6,3.2l-2.1-2,2.2-2.7a12.9,12.9,0,0,0,1.5-2.5,12.2,12.2,0,0,0,.9-2.8,17.1,17.1,0,0,0,.3-3.4,7.1,7.1,0,0,0-.2-1.7,6.3,6.3,0,0,0-.4-1.2Zm6.9,21.3V165.9h-3.8v-2.7h3.8v-6.8h3V178h-3Zm5.3,0.6V156.3h3v22.3h-3Z" transform="translate(-99.2 -99.2)"/><path class="cls-2" d="M294.1,171.6l-1.4.8-1.7.6-1.8.3H285a3.7,3.7,0,0,1-2.5-.7,2.6,2.6,0,0,1-.8-2V157.2h12.4v14.4ZM291,159.9h-6.1v9.9a0.9,0.9,0,0,0,.3.8,1.5,1.5,0,0,0,.9.2h1.4l1.7-.2a5.5,5.5,0,0,0,1.8-.7V159.9Zm7.3,18.7V156.3h3.2v22.3h-3.2Z" transform="translate(-99.2 -99.2)"/><path class="cls-2" d="M328,166.9h-3.9v11.7h-3.2v-7.5a11.2,11.2,0,0,1-3.4,1.3,17.2,17.2,0,0,1-3.7.4h-4.3a3.4,3.4,0,0,1-2.4-.8,3.2,3.2,0,0,1-.8-2.4V157.2h3.2v11.8a1.7,1.7,0,0,0,.2.9,0.9,0.9,0,0,0,.8.3h3.3a15.6,15.6,0,0,0,3.7-.4,10.5,10.5,0,0,0,3.5-1.6V156.3h3.2v8H328v2.7Z" transform="translate(-99.2 -99.2)"/><path class="cls-7" d="M260.4,203.6h-4.8v-1l1.5-1.7c0.8-.9,2.2-2.2,2.2-3.4a1.2,1.2,0,0,0-1.3-1.1,3.8,3.8,0,0,0-2,.9l-0.2-1a3.8,3.8,0,0,1,2.2-.9,2.2,2.2,0,0,1,2.3,2.2c0,1.3-1.3,2.7-2.1,3.6l-1.4,1.4h3.6v1Z" transform="translate(-99.2 -99.2)"/><path class="cls-7" d="M266.6,199.6c0,2.8-1.2,4.1-2.6,4.1s-2.6-1.4-2.6-4.1,1.2-4.1,2.6-4.1S266.6,196.8,266.6,199.6Zm-1,0c0-2-.5-3.1-1.6-3.1s-1.6,1.2-1.6,3.1,0.5,3.1,1.6,3.1S265.6,201.5,265.6,199.6Z" transform="translate(-99.2 -99.2)"/><path class="cls-7" d="M270.5,203.6h-1v-6.7l-0.9.7-0.5-.8,1.6-1.3h0.9v8.1Z" transform="translate(-99.2 -99.2)"/><path class="cls-7" d="M278,199.3c0,3.2-1.2,4.4-3.2,4.4a4.2,4.2,0,0,1-1.5-.3l0.2-1a4,4,0,0,0,1.4.3c1.7,0,2.1-1.3,2.1-2.8a2.1,2.1,0,0,1-1.6.8,2.3,2.3,0,0,1-2.4-2.6,2.5,2.5,0,0,1,2.5-2.7C277.4,195.4,278,197.1,278,199.3Zm-1.1-1.1a1.5,1.5,0,0,0-1.4-1.8,1.5,1.5,0,0,0-1.5,1.7c0,1,.3,1.7,1.4,1.7A1.4,1.4,0,0,0,277,198.2Z" transform="translate(-99.2 -99.2)"/><path class="cls-7" d="M284.7,200.2a42,42,0,0,1-5.4.2v-5.2h1v4.3l4.4-.2v0.9Zm2.1,4.1h-6.5v-3h1v2.1h5.5v0.9Zm-0.2-2.5h-1v-3.2h-2.5v-0.9h2.5v-0.9h-2.5V196h2.5v-1.2h1v7Z" transform="translate(-99.2 -99.2)"/><path class="cls-2" d="M297.6,200.5a3.1,3.1,0,0,1-3.2,3.4c-2.1,0-3.2-1.8-3.2-5s0.9-5.5,3.9-5.5a6.3,6.3,0,0,1,2.2.4l-0.2,1.3a5,5,0,0,0-2-.4c-2.3,0-2.5,2.2-2.6,3.4a2.6,2.6,0,0,1,2-1C296.3,197.1,297.6,198.2,297.6,200.5Zm-1.3,0c0-1.2-.4-2.2-1.8-2.2a1.8,1.8,0,0,0-1.9,2,2,2,0,0,0,1.9,2.2A1.8,1.8,0,0,0,296.3,200.5Z" transform="translate(-99.2 -99.2)"/><path class="cls-7" d="M305.2,198.8H302v1.5h-1V199h-2.5v-0.8h6.7v0.8Zm-1.1-2.6c0,0.9-.9,1.5-2.4,1.5s-2.4-.6-2.4-1.5,0.9-1.6,2.4-1.6S304.1,195.3,304.1,196.2Zm2.5,8.2h-6.5v-2.2h5.2v-0.6h-5.2v-0.8h6.3V203h-5.2v0.6h5.4v0.8Zm-3.5-8.2c0-.4-0.4-0.7-1.4-0.7s-1.4.4-1.4,0.7,0.5,0.7,1.4.7S303.1,196.6,303.1,196.2Zm3.3,4.2h-1v-0.3h-2v-0.8h2v-4.6h1v5.6Z" transform="translate(-99.2 -99.2)"/><path class="cls-2" d="M316.8,203.8h-6.2v-1.3l1.9-2.1c1-1.1,2.8-2.8,2.8-4.4a1.5,1.5,0,0,0-1.6-1.4,4.8,4.8,0,0,0-2.6,1.1l-0.2-1.3a4.9,4.9,0,0,1,2.8-1.1,2.8,2.8,0,0,1,2.9,2.8c0,1.7-1.6,3.5-2.7,4.5l-1.8,1.8h4.6v1.3Z" transform="translate(-99.2 -99.2)"/><path class="cls-2" d="M324.5,198.3c0,4-1.5,5.6-4.1,5.6a5.3,5.3,0,0,1-1.9-.3l0.2-1.3a5.1,5.1,0,0,0,1.7.3c2.2,0,2.6-1.7,2.7-3.5a2.6,2.6,0,0,1-2,1.1c-1.6,0-3.1-.9-3.1-3.3a3.2,3.2,0,0,1,3.2-3.5C323.6,193.4,324.5,195.5,324.5,198.3Zm-1.4-1.4c0-1.2-.5-2.3-1.8-2.3a1.9,1.9,0,0,0-1.9,2.1c0,1.2.4,2.1,1.8,2.1A1.8,1.8,0,0,0,323.1,196.9Z" transform="translate(-99.2 -99.2)"/><path class="cls-7" d="M330.5,197.3a2.4,2.4,0,0,1-4.8,0A2.4,2.4,0,0,1,330.5,197.3Zm-1,0a1.4,1.4,0,0,0-2.8,0A1.4,1.4,0,0,0,329.4,197.3Zm4.1,7.1H327v-2.5h5.2v-0.8H327v-0.8h6.3v2.4h-5.2v0.8h5.4v0.8Zm-0.2-4.5h-1v-5.1h1v5.1Z" transform="translate(-99.2 -99.2)"/><path class="cls-7" d="M340.1,204.9h-0.7a8.1,8.1,0,0,1,0-10.7h0.7A9.3,9.3,0,0,0,340.1,204.9Z" transform="translate(-99.2 -99.2)"/><path class="cls-7" d="M349.2,203.3h-9v-0.9h4V201h1v1.4h4v0.9Zm-1.1-2.7h-6.6v-5.1H348v0.9h-5.5v1.2h5.4v0.9h-5.4v1.2h5.6v0.9Z" transform="translate(-99.2 -99.2)"/><path class="cls-7" d="M358.5,203.3h-9v-0.9h2.3v-1.9h1v1.9h2.3v-1.9h1v1.9h2.3v0.9Zm-1.1-5.6c0,1.4-1.3,2.5-3.4,2.5s-3.4-1.1-3.4-2.5,1.3-2.5,3.4-2.5S357.4,196.2,357.4,197.7Zm-1,0c0-.9-1-1.6-2.4-1.6s-2.4.6-2.4,1.6,0.9,1.6,2.4,1.6S356.4,198.7,356.4,197.7Z" transform="translate(-99.2 -99.2)"/><path class="cls-7" d="M364.1,197.3a2.4,2.4,0,0,1-4.8,0A2.4,2.4,0,0,1,364.1,197.3Zm-1,0a1.4,1.4,0,0,0-2.8,0A1.4,1.4,0,0,0,363.1,197.3Zm4.1,7.1h-6.5v-2.5h5.2v-0.8h-5.2v-0.8H367v2.4h-5.2v0.8h5.4v0.8Zm-0.2-4.5h-1v-5.1h1v5.1Z" transform="translate(-99.2 -99.2)"/><path class="cls-7" d="M370.6,199.6a7.5,7.5,0,0,1-2,5.3h-0.7a9.3,9.3,0,0,0,0-10.7h0.7A7.6,7.6,0,0,1,370.6,199.6Z" transform="translate(-99.2 -99.2)"/><path class="cls-7" d="M382.9,203.2h-9v-0.9h4v-1.6h1v1.6h4v0.9Zm-1-5.5c0,1.4-1.3,2.5-3.4,2.5s-3.4-1.1-3.4-2.5,1.3-2.5,3.4-2.5S381.8,196.3,381.8,197.7Zm-1,0c0-.9-1-1.6-2.4-1.6s-2.4.6-2.4,1.6,1,1.6,2.4,1.6S380.8,198.7,380.8,197.7Z" transform="translate(-99.2 -99.2)"/><path class="cls-7" d="M389.2,199.5l-0.5.9a5.1,5.1,0,0,1-2.3-2,5.3,5.3,0,0,1-2.5,2.3l-0.5-.9a3.7,3.7,0,0,0,2.5-3.4v-0.2H384v-0.9h4.9v0.9H387v0.2A3.3,3.3,0,0,0,389.2,199.5Zm2.5,4.7h-6.6v-3.1h1v2.2h5.6v0.9Zm-0.2-2.5h-1v-3.6h-1.8v-1h1.8v-2.4h1v7Z" transform="translate(-99.2 -99.2)"/><path class="cls-7" d="M398.9,203.6h-1v-6.7l-0.9.7-0.5-.8,1.6-1.3h0.9v8.1Z" transform="translate(-99.2 -99.2)"/><path class="cls-7" d="M406.6,199.6c0,2.8-1.2,4.1-2.6,4.1s-2.6-1.4-2.6-4.1,1.2-4.1,2.6-4.1S406.6,196.8,406.6,199.6Zm-1,0c0-2-.5-3.1-1.6-3.1s-1.6,1.2-1.6,3.1,0.5,3.1,1.6,3.1S405.5,201.5,405.5,199.6Z" transform="translate(-99.2 -99.2)"/><path class="cls-7" d="M413.2,201.7l-0.5.8a5.5,5.5,0,0,1-2.5-2.9,6.6,6.6,0,0,1-2.6,3.2l-0.6-.8c1.3-.8,2.6-2.2,2.6-5.1v-1.5h1v1.5C410.7,200.1,412.4,201.2,413.2,201.7Zm2,2.8h-1v-9.7h1v9.7Z" transform="translate(-99.2 -99.2)"/><path class="cls-7" d="M422.1,200.2h-5.5v-0.9h5.5v0.9Z" transform="translate(-99.2 -99.2)"/><path class="cls-7" d="M426.3,203.6h-1v-6.7l-0.9.7-0.5-.8,1.6-1.3h0.9v8.1Z" transform="translate(-99.2 -99.2)"/><path class="cls-7" d="M433.6,203.6h-4.8v-1l1.5-1.7c0.8-.9,2.2-2.2,2.2-3.4a1.2,1.2,0,0,0-1.3-1.1,3.8,3.8,0,0,0-2,.9l-0.2-1a3.8,3.8,0,0,1,2.2-.9,2.2,2.2,0,0,1,2.3,2.2c0,1.3-1.3,2.7-2.1,3.6l-1.4,1.4h3.6v1Z" transform="translate(-99.2 -99.2)"/><path class="cls-7" d="M440.6,201.7l-0.5.8a5.5,5.5,0,0,1-2.5-2.9,6.6,6.6,0,0,1-2.6,3.2l-0.6-.8c1.3-.8,2.6-2.2,2.6-5.1v-1.5h1v1.5C438.1,200.1,439.7,201.2,440.6,201.7Zm2,2.8h-1v-9.7h1v9.7Z" transform="translate(-99.2 -99.2)"/><path class="cls-7" d="M260.3,248.1l-0.3.5a4.5,4.5,0,0,1-2.1-2.8,5.2,5.2,0,0,1-2.2,3l-0.4-.5a4.7,4.7,0,0,0,2.2-4.4v-1.2h0.6v1.2A4.4,4.4,0,0,0,260.3,248.1Zm2.6-2h-1.2v4.1h-0.6v-7.9h0.6v3.3h1.2v0.6Z" transform="translate(-99.2 -99.2)"/><path class="cls-7" d="M268.6,248.9h-5.5v-0.5h2.4v-0.9h0.6v0.9h2.5v0.5Zm-0.6-4.6h-4.5v-0.5h4.5v0.5Zm-0.3,1.7c0,0.7-.8,1.3-1.9,1.3s-1.9-.5-1.9-1.3a1.6,1.6,0,0,1,1.9-1.3A1.7,1.7,0,0,1,267.8,246Zm-0.6,0a1.5,1.5,0,1,0-1.3.8C266.6,246.8,267.2,246.5,267.2,246Zm-0.2-2.9h-2.2v-0.5H267v0.5Zm2.6,7.1H269v-7.9h0.6v7.9Z" transform="translate(-99.2 -99.2)"/><path class="cls-7" d="M274.9,244.8h-0.9v-0.9h0.9v0.9Zm0,4h-0.9v-0.9h0.9v0.9Z" transform="translate(-99.2 -99.2)"/><path class="cls-7" d="M283.8,242.1a4.8,4.8,0,0,1-4.2,4.6l-0.2-.7c1.5-.3,3.1-1.2,3.4-3.1h-2.9v-0.8h4Zm2.5,8.1h-5.7V247h5.7v3.3Zm-0.9-.8v-1.6h-3.8v1.6h3.8Zm0.9-2.9h-0.9v-5h0.9v5Z" transform="translate(-99.2 -99.2)"/><path class="cls-7" d="M291.9,248.5h-3.9v-5.9h3.9v5.9Zm-0.9-.8v-4.2h-2.2v4.2H291Zm3.5,2.7h-0.9v-8.8h0.9v8.8Z" transform="translate(-99.2 -99.2)"/><path class="cls-7" d="M300.5,242.1a4.8,4.8,0,0,1-4.2,4.7l-0.3-.7c1.5-.4,3.1-1.2,3.4-3.1h-2.9v-0.8h4Zm2.8,6.6c0,1.1-1,1.8-3,1.8s-3-.7-3-1.8,1.2-1.8,3-1.8S303.3,247.6,303.3,248.7Zm-0.9,0c0-.7-1-1-2.1-1s-2.1.3-2.1,1,1,1,2.1,1S302.3,249.5,302.3,248.7Zm0.8-1.9h-0.9v-1.1h-1.6v-0.8h1.6v-1h-1.4V243h1.4v-1.4h0.9v5.3Z" transform="translate(-99.2 -99.2)"/><path class="cls-7" d="M308.4,250.5h-0.4a6.6,6.6,0,0,1,0-8.6h0.4A7.7,7.7,0,0,0,308.4,250.5Z" transform="translate(-99.2 -99.2)"/><path class="cls-7" d="M313.1,244.5a2,2,0,1,1-2-2A2,2,0,0,1,313.1,244.5Zm-0.6,0a1.4,1.4,0,1,0-1.4,1.4A1.3,1.3,0,0,0,312.5,244.5Zm3.1,5.5h-5.3v-2.5h0.6v2h4.7V250Zm-0.2-2h-0.6v-5.8h0.6V248Z" transform="translate(-99.2 -99.2)"/><path class="cls-7" d="M320.5,248.2l-0.3.5a5.2,5.2,0,0,1-1.7-2.5,5.6,5.6,0,0,1-1.8,2.7l-0.4-.5a4.9,4.9,0,0,0,1.8-3.9v-0.7h-1.4v-0.5h3.4v0.5h-1.4v0.7A4.5,4.5,0,0,0,320.5,248.2Zm1.2,1.7h-0.6v-3.9h-1.3v-0.6h1.3v-2.9h0.6v7.4Zm1.5,0.4h-0.6v-7.9h0.6v7.9Z" transform="translate(-99.2 -99.2)"/><path class="cls-7" d="M329.7,248.4h-5.5V248h5.5v0.6Zm-1-3.7a2.1,2.1,0,1,1-2-1.9A2,2,0,0,1,328.7,244.7Zm-0.6,0a1.4,1.4,0,0,0-2.8,0A1.4,1.4,0,0,0,328.1,244.7Zm2.5,5.5H330v-7.9h0.6v7.9Z" transform="translate(-99.2 -99.2)"/><path class="cls-7" d="M335.4,248.3h-3.3v-5.1h2.7v0.5h-2.1v4h2.7v0.5Zm2.7,1.9h-0.6v-4.2h-1.2v3.8h-0.6v-7.4h0.6v3.1h1.2v-3.2h0.6v7.9Z" transform="translate(-99.2 -99.2)"/><path class="cls-7" d="M345.3,248.1l-2.1.2h-1.1v-5.2h0.6v4.6h2.6v0.6Zm2.8,2.1h-0.6V246h-1.2v3.9h-0.6v-7.4h0.6v2.9h1.2v-3.1h0.6v7.9Z" transform="translate(-99.2 -99.2)"/><path class="cls-7" d="M356.3,247.1H353v1.7h-0.6v-1.7h-3.5v-0.5h7.3v0.5Zm-1-1.4h-5.4v-3.3h0.6v1h4.2v-1h0.6v3.3Zm0.2,4.3h-5.6v-2.2h0.6v1.6h5V250Zm-0.8-4.9v-1.3h-4.2v1.3h4.2Z" transform="translate(-99.2 -99.2)"/><path class="cls-7" d="M360.8,248.5h-3.6V243h0.6v2h2.4v-2h0.6v5.4Zm-0.6-.5v-2.4h-2.4v2.4h2.4Zm2.9,2.3h-0.6v-7.9h0.6v7.9Z" transform="translate(-99.2 -99.2)"/><path class="cls-7" d="M368,248.1l-2.1.2h-1.1v-5.2h0.6v4.6H368v0.6Zm2.8,2.1h-0.6V246h-1.2v3.9h-0.6v-7.4h0.6v2.9h1.2v-3.1h0.6v7.9Z" transform="translate(-99.2 -99.2)"/><path class="cls-7" d="M377.1,248.6h-5.3v-0.5h1.7v-2.6h0.6v2.6h3v0.5Zm-0.8-5.4a38.9,38.9,0,0,1-.3,3.9h-0.6c0.1-1.3.2-2.5,0.2-3.4h-3.4v-0.5h4.1Zm2.9,3.1h-1.2v3.9h-0.6v-7.9h0.6v3.5h1.2v0.5Z" transform="translate(-99.2 -99.2)"/><path class="cls-7" d="M381.2,246.2a6.1,6.1,0,0,1-1.6,4.3h-0.4a7.7,7.7,0,0,0,0-8.6h0.4A6.1,6.1,0,0,1,381.2,246.2Z" transform="translate(-99.2 -99.2)"/><path class="cls-7" d="M389.5,242.2l-2.9,8.2h-0.6l2.8-8.2h0.6Z" transform="translate(-99.2 -99.2)"/><path class="cls-7" d="M398,243.3a7.2,7.2,0,0,1-.8,3,6.2,6.2,0,0,1-2.2,2.4l-0.4-.5a5.7,5.7,0,0,0,2.6-4.5h-2.2v-0.5H398Zm3.2,6.9h-0.6v-4.1h-1.1v3.8h-0.6v-7.4h0.6v3.1h1.1v-3.2h0.6v7.9Z" transform="translate(-99.2 -99.2)"/><path class="cls-7" d="M407.7,248.9h-5.5v-0.5h2.4v-0.9h0.6v0.9h2.5v0.5Zm-0.6-4.6h-4.5v-0.5h4.5v0.5Zm-0.3,1.7c0,0.7-.8,1.3-1.9,1.3s-1.9-.5-1.9-1.3a1.6,1.6,0,0,1,1.9-1.3A1.7,1.7,0,0,1,406.8,246Zm-0.6,0a1.5,1.5,0,1,0-1.3.8C405.7,246.8,406.2,246.5,406.2,246Zm-0.2-2.9h-2.2v-0.5H406v0.5Zm2.6,7.1H408v-7.9h0.6v7.9Z" transform="translate(-99.2 -99.2)"/><path class="cls-7" d="M414.5,248.1l-0.3.5a4.5,4.5,0,0,1-2.1-2.8,5.2,5.2,0,0,1-2.2,3l-0.4-.5a4.7,4.7,0,0,0,2.2-4.4v-1.2h0.6v1.2A4.4,4.4,0,0,0,414.5,248.1Zm2.6-2h-1.2v4.1h-0.6v-7.9h0.6v3.3h1.2v0.6Z" transform="translate(-99.2 -99.2)"/><path class="cls-7" d="M421.6,244.8h-0.9v-0.9h0.9v0.9Zm0,4h-0.9v-0.9h0.9v0.9Z" transform="translate(-99.2 -99.2)"/><path class="cls-7" d="M429.9,246.4h-4v-4.4h0.9v1.5H429v-1.5h0.9v4.4Zm2.5,4h-0.9v-2.3h-4.9v-0.8h5.8v3.1Zm-3.3-4.8v-1.3h-2.2v1.3H429Zm4.6-.9h-1.2v2.2h-0.9v-5.3h0.9v2.2h1.2v0.8Z" transform="translate(-99.2 -99.2)"/><path class="cls-7" d="M439.4,245.6l-0.4.8a3.6,3.6,0,0,1-2.2-1.8,4.5,4.5,0,0,1-2.3,2l-0.5-.7a3.3,3.3,0,0,0,2.3-2.9h-1.7v-0.8H439v0.8h-1.7A2.7,2.7,0,0,0,439.4,245.6Zm2.2,3.2c0,1.1-1.1,1.7-3,1.7s-3-.7-3-1.7,1.1-1.7,3-1.7S441.5,247.8,441.5,248.8Zm-1,0c0-.6-0.7-1-2.1-1s-2.1.4-2.1,1,0.7,1,2.1,1S440.6,249.4,440.6,248.8Zm0.8-1.9h-0.9v-2.3h-1.7v-0.8h1.7v-2.2h0.9v5.3Z" transform="translate(-99.2 -99.2)"/><path class="cls-7" d="M447.5,243.7h-4.9v-0.8h4.9v0.8Zm-0.3,2c0,0.9-.7,1.5-2.1,1.5s-2.1-.7-2.1-1.5,0.8-1.5,2.1-1.5S447.2,244.9,447.2,245.7Zm-1-3.4h-2.3v-0.8h2.3v0.8Zm3.7,7.9H444v-2.5h0.9v1.6h5v0.8Zm-3.7-4.5c0-.5-0.3-0.8-1.1-0.8s-1.1.3-1.1,0.8,0.3,0.8,1.1.8S446.2,246.2,446.2,245.7Zm3.5,2.3h-0.9v-1.6h-1.3v-0.8h1.3v-1h-1.2v-0.8h1.2v-2.2h0.9V248Z" transform="translate(-99.2 -99.2)"/><path class="cls-7" d="M455.1,250.5h-0.4a6.6,6.6,0,0,1,0-8.6h0.4A7.7,7.7,0,0,0,455.1,250.5Z" transform="translate(-99.2 -99.2)"/><path class="cls-7" d="M459.7,244.5a2,2,0,1,1-2-2A2,2,0,0,1,459.7,244.5Zm-0.6,0a1.4,1.4,0,1,0-1.4,1.4A1.3,1.3,0,0,0,459.1,244.5Zm3.1,5.5h-5.3v-2.5h0.6v2h4.7V250Zm-0.2-2h-0.6v-5.8H462V248Z" transform="translate(-99.2 -99.2)"/><path class="cls-7" d="M467.1,248.2l-0.3.5a5.2,5.2,0,0,1-1.7-2.5,5.6,5.6,0,0,1-1.8,2.7l-0.4-.5a4.9,4.9,0,0,0,1.8-3.9v-0.7h-1.4v-0.5h3.4v0.5h-1.4v0.7A4.5,4.5,0,0,0,467.1,248.2Zm1.2,1.7h-0.6v-3.9h-1.3v-0.6h1.3v-2.9h0.6v7.4Zm1.5,0.4h-0.6v-7.9h0.6v7.9Z" transform="translate(-99.2 -99.2)"/><path class="cls-7" d="M476.4,248.4h-5.5V248h5.5v0.6Zm-1-3.7a2.1,2.1,0,1,1-2-1.9A2,2,0,0,1,475.4,244.7Zm-0.6,0a1.4,1.4,0,0,0-2.8,0A1.4,1.4,0,0,0,474.7,244.7Zm2.5,5.5h-0.6v-7.9h0.6v7.9Z" transform="translate(-99.2 -99.2)"/><path class="cls-7" d="M482,248.3h-3.3v-5.1h2.7v0.5h-2.1v4H482v0.5Zm2.7,1.9h-0.6v-4.2H483v3.8h-0.6v-7.4H483v3.1h1.2v-3.2h0.6v7.9Z" transform="translate(-99.2 -99.2)"/><path class="cls-7" d="M491.9,248.1l-2.1.2h-1.1v-5.2h0.6v4.6h2.6v0.6Zm2.8,2.1h-0.6V246H493v3.9h-0.6v-7.4H493v2.9h1.2v-3.1h0.6v7.9Z" transform="translate(-99.2 -99.2)"/><path class="cls-7" d="M502.9,247.1h-3.3v1.7H499v-1.7h-3.5v-0.5h7.3v0.5Zm-1-1.4h-5.4v-3.3h0.6v1h4.2v-1h0.6v3.3Zm0.2,4.3h-5.6v-2.2h0.6v1.6h5V250Zm-0.8-4.9v-1.3h-4.2v1.3h4.2Z" transform="translate(-99.2 -99.2)"/><path class="cls-7" d="M507.4,248.5h-3.6V243h0.6v2h2.4v-2h0.6v5.4Zm-0.6-.5v-2.4h-2.4v2.4h2.4Zm2.9,2.3h-0.6v-7.9h0.6v7.9Z" transform="translate(-99.2 -99.2)"/><path class="cls-7" d="M514.6,248.1l-2.1.2h-1.1v-5.2H512v4.6h2.6v0.6Zm2.8,2.1h-0.6V246h-1.2v3.9h-0.6v-7.4h0.6v2.9h1.2v-3.1h0.6v7.9Z" transform="translate(-99.2 -99.2)"/><path class="cls-7" d="M523.7,248.6h-5.3v-0.5h1.7v-2.6h0.6v2.6h3v0.5Zm-0.8-5.4a38.9,38.9,0,0,1-.3,3.9h-0.6c0.1-1.3.2-2.5,0.2-3.4h-3.4v-0.5h4.1Zm2.9,3.1h-1.2v3.9h-0.6v-7.9h0.6v3.5h1.2v0.5Z" transform="translate(-99.2 -99.2)"/><path class="cls-7" d="M527.8,246.2a6.1,6.1,0,0,1-1.6,4.3h-0.4a7.7,7.7,0,0,0,0-8.6h0.4A6.1,6.1,0,0,1,527.8,246.2Z" transform="translate(-99.2 -99.2)"/><path class="cls-7" d="M256.7,263.1l6,3.8-6,3.8v-7.6Z" transform="translate(-99.2 -99.2)"/><path class="cls-7" d="M274.4,270.2h-6.5v-0.9h2.8v-0.8h1.1v0.8h2.7v0.9Zm-0.6-5.4h-5.4v-0.9h5.4v0.9Zm-0.4,2c0,0.9-1,1.6-2.3,1.6s-2.3-.6-2.3-1.6,1-1.6,2.3-1.6S273.5,265.9,273.5,266.8Zm-1-3.5h-2.7v-0.9h2.7v0.9Zm0,3.5a1.1,1.1,0,0,0-1.3-.8,0.9,0.9,0,1,0,0,1.6C271.9,267.6,272.5,267.2,272.5,266.8Zm3.2,5h-1v-9.7h1v9.7Z" transform="translate(-99.2 -99.2)"/><path class="cls-7" d="M283.9,269.7l-4,.2h-2.5v-0.9h6.6v0.9Zm-1-4.6a2.5,2.5,0,1,1-2.5-2.3A2.3,2.3,0,0,1,282.9,265.1Zm-1,0a1.5,1.5,0,1,0-1.5,1.5A1.4,1.4,0,0,0,281.8,265.1Zm3.3,6.7h-1v-9.7h1v9.7Z" transform="translate(-99.2 -99.2)"/><path class="cls-7" d="M293.6,269.4l-2.4.2h-1.3V263h1v5.5h0.7l2-.2v1Zm3.6,2.4h-1v-4.9h-1.2v4.5h-1v-9.1h1v3.6h1.2v-3.9h1v9.7Z" transform="translate(-99.2 -99.2)"/><path class="cls-7" d="M307.3,267.7h-9v-0.9h2.4v-1.3a1.7,1.7,0,0,1-1.3-1.5c0-1.1,1.2-1.8,3.4-1.8s3.4,0.7,3.4,1.8a1.7,1.7,0,0,1-1.3,1.5v1.3h2.4v0.9Zm-1,2.5c0,1.1-1.3,1.8-3.5,1.8s-3.5-.7-3.5-1.8,1.3-1.8,3.5-1.8S306.3,269.1,306.3,270.2Zm-1.1,0c0-.6-0.8-1-2.4-1s-2.4.4-2.4,1,0.8,1,2.4,1S305.1,270.7,305.1,270.2Zm0-6.2c0-.6-0.8-1.1-2.4-1.1s-2.3.4-2.3,1.1,0.8,1.1,2.3,1.1S305.1,264.5,305.1,263.9Zm-1.3,2.9v-1.1h-2.1v1.1h2.1Z" transform="translate(-99.2 -99.2)"/><path class="cls-7" d="M321.3,270.9h-1v-6.7l-0.9.7-0.5-.8,1.6-1.3h0.9v8.1Z" transform="translate(-99.2 -99.2)"/><path class="cls-7" d="M325.2,271.6h-1.2v-1.3h1.2v1.3Z" transform="translate(-99.2 -99.2)"/><path class="cls-7" d="M334.8,264.4h-5.6v-0.8h5.6v0.8Zm-0.4,2c0,0.9-.9,1.6-2.4,1.6s-2.4-.6-2.4-1.6,1-1.5,2.4-1.5S334.4,265.5,334.4,266.4Zm2.4,3.8c0,1.1-1.1,1.8-3.3,1.8s-3.3-.8-3.3-1.8,1.1-1.8,3.3-1.8S336.8,269.1,336.8,270.2Zm-3.5-7.3h-2.8V262h2.8v0.8Zm0,3.5c0-.5-0.5-0.8-1.4-0.8s-1.4.3-1.4,0.8,0.5,0.8,1.4.8S333.4,266.9,333.4,266.4Zm2.3,3.8c0-.6-0.7-1-2.2-1s-2.2.4-2.2,1,0.7,1,2.2,1S335.7,270.8,335.7,270.2Zm2.3-4.7h-1.3v2.6h-1v-6.1h1v2.5H338v0.9Z" transform="translate(-99.2 -99.2)"/><path class="cls-7" d="M347,270.6h-9v-0.9h4v-2h1v2h4v0.9Zm-1.1-3.3h-6.7v-4.6h1v3.7H346v0.9Z" transform="translate(-99.2 -99.2)"/><path class="cls-7" d="M353.8,270.2h-6.3v-0.9h2.7v-0.8h1.1v0.8h2.6v0.9Zm-0.6-5.4H348v-0.9h5.3v0.9Zm-0.3,2c0,0.9-.9,1.6-2.2,1.6s-2.2-.6-2.2-1.6,0.9-1.6,2.2-1.6S352.9,265.9,352.9,266.8Zm-1-3.5h-2.6v-0.9h2.6v0.9Zm0.1,3.5a1,1,0,0,0-1.3-.8,0.9,0.9,0,1,0,0,1.6C351.4,267.5,352,267.2,352,266.8Zm4.6,0.6h-1.4v4.5h-1v-9.7h1v4.3h1.4v1Z" transform="translate(-99.2 -99.2)"/><path class="cls-7" d="M358.2,271.1a2,2,0,0,1-.8,1.5l-0.5-.3a1.8,1.8,0,0,0,.6-1H357v-1h1.2v0.8Z" transform="translate(-99.2 -99.2)"/><path class="cls-7" d="M370.8,266.9h-9V266h4V265h1V266h4v0.8Zm-0.7-2-0.4.8a5.5,5.5,0,0,1-3.5-1.6,5.4,5.4,0,0,1-3.5,1.6l-0.4-.8c0.8-.1,2.8-0.7,3.3-1.6H363v-0.9h6.7v0.9h-2.8C367.3,264.2,369.2,264.8,370.1,264.9Zm-0.1,4.4h-7.4v-0.8H370v0.8Zm-0.4,1.5c0,0.9-1.5,1.2-3.3,1.2s-3.3-.3-3.3-1.2,1.5-1.2,3.3-1.2S369.6,269.9,369.6,270.7Zm-1.2,0c0-.3-0.9-0.5-2-0.5s-2.1.1-2.1,0.5,0.7,0.4,2.1.4S368.4,271.1,368.4,270.8Zm-0.1-2.7h-4v-0.8h4v0.8Z" transform="translate(-99.2 -99.2)"/><path class="cls-7" d="M380,268h-9v-0.9h9V268Zm-1.2-3.8c0,1.3-1.1,2.1-3.3,2.1s-3.3-.8-3.3-2.1,1.1-2.1,3.3-2.1S378.9,263,378.9,264.2Zm0.3,7.4h-6.8v-2.8h1v1.9h5.8v0.9Zm-1.3-7.3c0-.8-0.9-1.3-2.3-1.3s-2.3.5-2.3,1.3,0.9,1.2,2.3,1.2S377.8,265,377.8,264.2Z" transform="translate(-99.2 -99.2)"/><path class="cls-7" d="M392.2,270.6h-9v-0.9h4v-2h1v2h4v0.9Zm-1.1-3.3h-6.7v-4.6h1v3.7h5.7v0.9Z" transform="translate(-99.2 -99.2)"/><path class="cls-7" d="M399.1,270.2h-6.3v-0.9h2.7v-0.8h1.1v0.8h2.6v0.9Zm-0.6-5.4h-5.3v-0.9h5.3v0.9Zm-0.3,2c0,0.9-.9,1.6-2.2,1.6s-2.2-.6-2.2-1.6,0.9-1.6,2.2-1.6S398.1,265.9,398.1,266.8Zm-1-3.5h-2.6v-0.9h2.6v0.9Zm0.1,3.5a1,1,0,0,0-1.3-.8,0.9,0.9,0,1,0,0,1.6C396.7,267.5,397.2,267.2,397.2,266.8Zm4.6,0.6h-1.4v4.5h-1v-9.7h1v4.3h1.4v1Z" transform="translate(-99.2 -99.2)"/><path class="cls-7" d="M408.8,269.7l-4,.2h-2.5v-0.9h6.6v0.9Zm-1-4.6a2.5,2.5,0,1,1-2.5-2.3A2.3,2.3,0,0,1,407.8,265.1Zm-1,0a1.5,1.5,0,1,0-1.5,1.5A1.4,1.4,0,0,0,406.8,265.1Zm3.3,6.7h-1v-9.7h1v9.7Z" transform="translate(-99.2 -99.2)"/><path class="cls-7" d="M421,269.7l-4,.2h-2.5v-0.9H421v0.9Zm-1-4.6a2.5,2.5,0,1,1-2.5-2.3A2.3,2.3,0,0,1,420,265.1Zm-1,0a1.5,1.5,0,1,0-1.5,1.5A1.4,1.4,0,0,0,419,265.1Zm3.3,6.7h-1v-9.7h1v9.7Z" transform="translate(-99.2 -99.2)"/><path class="cls-7" d="M429.2,264.4h-5.6v-0.8h5.6v0.8Zm-0.4,2.1c0,1-.9,1.6-2.4,1.6s-2.4-.7-2.4-1.6,0.9-1.6,2.4-1.6S428.8,265.6,428.8,266.5Zm2.3,5.3h-1v-2.1h-5.4v-0.8h6.4v3Zm-3.3-8.9H425V262h2.8v0.8Zm0,3.6c0-.5-0.4-0.8-1.3-0.8s-1.3.3-1.3,0.8,0.4,0.8,1.3.8S427.8,267,427.8,266.5Zm4.7-.7h-1.3v2.5h-1v-6.2h1v2.8h1.3v0.9Z" transform="translate(-99.2 -99.2)"/><path class="cls-7" d="M438.5,266.8l-0.4.8a3.8,3.8,0,0,1-2.4-2.1,4.9,4.9,0,0,1-2.4,2.3l-0.5-.8a3.7,3.7,0,0,0,2.4-3.3v-0.2h-1.9v-0.9h4.9v0.9h-1.9v0.2A3.1,3.1,0,0,0,438.5,266.8Zm2.3,5h-1v-2.5h-5.5v-0.9h6.5v3.4Zm0-3.9h-1v-2.4H438v-0.9h1.8v-2.4h1v5.8Z" transform="translate(-99.2 -99.2)"/><path class="cls-7" d="M450.8,266.9h-5.5v-4.3H450v0.9h-3.6v2.5h4.5v0.9Zm1.8,3.1c0,1.1-1,2-3.3,2s-3.3-.8-3.3-2,1.4-2,3.3-2S452.6,268.7,452.6,270Zm-1.1,0c0-.8-1.1-1.2-2.2-1.2s-2.3.3-2.3,1.2,1.1,1.2,2.3,1.2S451.5,270.7,451.5,270Zm2.2-4.6h-1.3v2.4h-1v-5.7h1v2.4h1.3v0.9Z" transform="translate(-99.2 -99.2)"/><path class="cls-7" d="M461,268.2h-3.1v3.3h-1v-3.3h-2.5v-0.9H461v0.9Zm-1.2-3.8a2.4,2.4,0,0,1-4.8,0A2.4,2.4,0,0,1,459.8,264.4Zm-1,0a1.4,1.4,0,1,0-1.4,1.2A1.2,1.2,0,0,0,458.8,264.4Zm3.3,7.4h-1v-9.7h1v9.7Z" transform="translate(-99.2 -99.2)"/><path class="cls-7" d="M469.5,266.6l-0.5.9a5.4,5.4,0,0,1-2.5-2.4,5.8,5.8,0,0,1-2.5,2.6l-0.6-.8a4.2,4.2,0,0,0,2.5-3.7v-0.9h1v0.9A3.8,3.8,0,0,0,469.5,266.6Zm2.2,3.4c0,1.1-1.1,1.9-3.3,1.9s-3.3-.8-3.3-1.9,1.4-2,3.3-2S471.7,268.8,471.7,270Zm-1.1,0c0-.8-1.1-1.1-2.3-1.1s-2.3.3-2.3,1.1,1.1,1.1,2.3,1.1S470.6,270.8,470.6,270.1Zm0.9-2.2h-1v-2.8h-1.9v-0.9h1.9v-2h1v5.8Z" transform="translate(-99.2 -99.2)"/><path class="cls-7" d="M322.8,287h-4.8v-1l1.5-1.7c0.8-.9,2.2-2.2,2.2-3.4a1.2,1.2,0,0,0-1.3-1.1,3.8,3.8,0,0,0-2,.9l-0.2-1a3.8,3.8,0,0,1,2.2-.9,2.2,2.2,0,0,1,2.3,2.2c0,1.3-1.3,2.7-2.1,3.6l-1.4,1.4h3.6v1Z" transform="translate(-99.2 -99.2)"/><path class="cls-7" d="M325.2,287.6h-1.2v-1.3h1.2v1.3Z" transform="translate(-99.2 -99.2)"/><path class="cls-7" d="M334.8,282.9l-0.5.9a5.1,5.1,0,0,1-2.3-2,5.3,5.3,0,0,1-2.5,2.3l-0.5-.9a3.7,3.7,0,0,0,2.5-3.4v-0.2h-1.9v-0.9h4.9v0.9h-1.9v0.2A3.3,3.3,0,0,0,334.8,282.9Zm2.5,4.7h-6.6v-3.1h1v2.2h5.6v0.9Zm-0.2-2.5h-1v-3.6h-1.8v-1h1.8v-2.4h1v7Z" transform="translate(-99.2 -99.2)"/><path class="cls-7" d="M343.1,285.1l-0.5.8a5.5,5.5,0,0,1-1.9-2.6,6.4,6.4,0,0,1-2.1,2.9l-0.6-.7c0.7-.5,2.2-1.8,2.2-4.8v-1.7h1v1.7C341.2,283.3,342.2,284.4,343.1,285.1Zm1.5,2.3h-1v-4.9h-1.4v-1h1.4v-3.2h1v9.1Zm1.9,0.4h-1v-9.7h1v9.7Z" transform="translate(-99.2 -99.2)"/><path class="cls-7" d="M353.8,287.4h-1v-3.3h-1.4v-0.9h1.4v-1.7h-1.2v-0.4a7.8,7.8,0,0,1-3.4,5l-0.5-.7a6.6,6.6,0,0,0,3-5.1h-2.4v-0.9h3.5a9.6,9.6,0,0,1-.1,1.2h1.2v-2.2h1v9Zm1.9,0.4h-1v-9.7h1v9.7Z" transform="translate(-99.2 -99.2)"/><path class="cls-7" d="M365.5,280.4h-5.6v-0.8h5.6v0.8Zm-0.4,2c0,0.9-.9,1.6-2.4,1.6s-2.4-.6-2.4-1.6,1-1.5,2.4-1.5S365.1,281.5,365.1,282.4Zm2.4,3.8c0,1.1-1.1,1.8-3.3,1.8s-3.3-.8-3.3-1.8,1.1-1.8,3.3-1.8S367.5,285.1,367.5,286.2Zm-3.5-7.3h-2.8v-0.8h2.8v0.8Zm0,3.5c0-.5-0.5-0.8-1.4-0.8s-1.4.3-1.4,0.8,0.5,0.8,1.4.8S364.1,282.9,364.1,282.4Zm2.3,3.8c0-.6-0.7-1-2.2-1s-2.2.4-2.2,1,0.7,1,2.2,1S366.4,286.8,366.4,286.2Zm2.3-4.7h-1.3v2.6h-1v-6.1h1v2.5h1.3v0.9Z" transform="translate(-99.2 -99.2)"/><path class="cls-7" d="M377.7,286.6h-9v-0.9h4v-2h1v2h4v0.9Zm-1.1-3.3H370v-4.6h1v3.7h5.7v0.9Z" transform="translate(-99.2 -99.2)"/><path class="cls-7" d="M384.6,286.2h-6.3v-0.9h2.7v-0.8H382v0.8h2.6v0.9Zm-0.6-5.4h-5.3v-0.9H384v0.9Zm-0.3,2c0,0.9-.9,1.6-2.2,1.6s-2.2-.6-2.2-1.6,0.9-1.6,2.2-1.6S383.6,281.9,383.6,282.8Zm-1-3.5H380v-0.9h2.6v0.9Zm0.1,3.5a1,1,0,0,0-1.3-.8,0.9,0.9,0,1,0,0,1.6C382.2,283.6,382.7,283.3,382.7,282.8Zm4.6,0.6h-1.4v4.5h-1v-9.7h1v4.3h1.4v1Z" transform="translate(-99.2 -99.2)"/><path class="cls-7" d="M392.5,283l-0.5.8a4.6,4.6,0,0,1-2-2.2,5.3,5.3,0,0,1-2.1,2.5l-0.7-.8a4.6,4.6,0,0,0,2.2-4.1v-0.9h1v0.9A3.9,3.9,0,0,0,392.5,283Zm3.6,4.6h-6.6v-3h1v2.1H396v0.9Zm-2.1-2.6h-1v-3.7h-1.5v-0.9h1.5v-2.1h1V285Zm1.8,0.2h-1v-7.1h1v7.1Z" transform="translate(-99.2 -99.2)"/><path class="cls-7" d="M402.6,285.7h-5.2v-6.7h4.5V280h-3.5v1.9h3.2v0.9h-3.2v2h4.2v0.9Zm2,2.2h-1v-5.3h-1.5v-0.9h1.5v-3.5h1v9.7Z" transform="translate(-99.2 -99.2)"/><path class="cls-7" d="M412.8,285.7l-4,.2h-2.5V285h6.6v0.9Zm-1-4.6a2.5,2.5,0,1,1-2.5-2.3A2.3,2.3,0,0,1,411.8,281.1Zm-1,0a1.5,1.5,0,1,0-1.5,1.5A1.4,1.4,0,0,0,410.8,281.1Zm3.3,6.7h-1v-9.7h1v9.7Z" transform="translate(-99.2 -99.2)"/><path class="cls-7" d="M423.8,280.5h-5.4v-0.9h5.4v0.9Zm-0.3,2.2c0,0.9-.8,1.7-2.3,1.7s-2.3-.8-2.3-1.7,0.8-1.7,2.3-1.7S423.5,281.8,423.5,282.7Zm-1.1-3.8h-2.5v-0.8h2.5v0.8Zm4.1,8.7h-6.5v-2.7h1v1.8h5.5v0.9Zm-4-4.9c0-.5-0.3-0.9-1.2-0.9s-1.2.3-1.2,0.9,0.3,0.9,1.2.9S422.4,283.3,422.4,282.7Zm3.8,2.6h-1v-1.8h-1.4v-0.9h1.4v-1.1h-1.3v-0.9h1.3v-2.4h1v7.1Z" transform="translate(-99.2 -99.2)"/><path class="cls-7" d="M433.8,284.3h-6.4v-0.9h2.8V283c-1.1-.1-1.9-0.5-1.9-1.2s1-1.3,2.4-1.3,2.4,0.5,2.4,1.3-0.7,1.1-1.8,1.2v0.5h2.6v0.8Zm-0.6-4.2h-5.4v-0.8h5.4v0.8Zm2,6.3c0,1-1.2,1.6-3.3,1.6s-3.4-.6-3.4-1.6,1.2-1.6,3.3-1.6S435.3,285.5,435.3,286.4Zm-3.5-7.6h-2.5V278h2.5v0.8Zm0.2,3c0-.4-0.5-0.6-1.3-0.6s-1.3.1-1.3,0.6,0.5,0.5,1.3.5S432,282.2,432,281.8Zm2.1,4.7c0-.5-0.8-0.8-2.2-0.8s-2.2.3-2.2,0.8,0.7,0.8,2.2.8S434.1,286.9,434.1,286.4Zm2.3-4.1h-1.3v2.4h-1v-6.7h1v3.3h1.3v0.9Z" transform="translate(-99.2 -99.2)"/><path class="cls-7" d="M322.9,300.9a2.4,2.4,0,0,1-2.7,2.2,5.9,5.9,0,0,1-2.3-.5l0.2-1a5,5,0,0,0,1.9.6c0.9,0,1.9-.2,1.9-1.2a1.5,1.5,0,0,0-1.8-1.5h-0.9v-1H320a1.5,1.5,0,0,0,1.6-1.5c0-.8-0.6-1-1.4-1a4.1,4.1,0,0,0-1.9.7l-0.2-1a4.3,4.3,0,0,1,2.2-.7,2.2,2.2,0,0,1,2.3,2,2.1,2.1,0,0,1-1.2,2A2.1,2.1,0,0,1,322.9,300.9Z" transform="translate(-99.2 -99.2)"/><path class="cls-7" d="M325.2,303.6h-1.2v-1.3h1.2v1.3Z" transform="translate(-99.2 -99.2)"/><path class="cls-7" d="M337.8,299.7h-9v-0.9h4v-1.1H330v-3.2h6.5v0.9H331v1.4h5.6v0.9h-2.8v1.1h3.9v0.9Zm-1,2.5c0,1.2-1.4,1.9-3.5,1.9s-3.5-.6-3.5-1.9,1.5-1.8,3.5-1.8S336.8,301,336.8,302.2Zm-1.1,0c0-.7-1.2-1-2.3-1s-2.3.3-2.3,1,1.2,1,2.3,1S335.6,303,335.6,302.2Z" transform="translate(-99.2 -99.2)"/><path class="cls-7" d="M344.1,298.6a42.5,42.5,0,0,1-5.4.2v-4.3h1V298l4.4-.2v0.9Zm1.7,5.1h-6.1V300h6.1v3.8Zm-1-.9v-1.9h-4.1v1.9h4.1Zm2.3-5.5h-1.3v2.2h-1v-5.4h1v2.3h1.3v0.9Z" transform="translate(-99.2 -99.2)"/><path class="cls-7" d="M354.3,298.4h-3.6v2h-1v-2h-2.1v-0.9h4.3c0.1-.9.1-1.5,0.1-2h-3.7v-0.9h4.8c0,0.7-.1,1.6-0.3,2.9h1.4v0.9Zm1.5,5.3h-6.6v-2.8h1v1.9h5.6v0.9Zm-0.2-2.3h-1v-1.1h-2.2v-0.9h2.2v-5.2h1v7.2Z" transform="translate(-99.2 -99.2)"/><path class="cls-7" d="M362.6,296.4H357v-0.8h5.6v0.8Zm-0.4,2c0,0.9-.9,1.6-2.4,1.6s-2.4-.6-2.4-1.6,1-1.5,2.4-1.5S362.2,297.6,362.2,298.4Zm2.4,3.8c0,1.1-1.1,1.8-3.3,1.8s-3.3-.8-3.3-1.8,1.1-1.8,3.3-1.8S364.6,301.2,364.6,302.3Zm-3.5-7.3h-2.8v-0.8h2.8V295Zm0,3.5c0-.5-0.5-0.8-1.4-0.8s-1.4.3-1.4,0.8,0.5,0.8,1.4.8S361.2,299,361.2,298.4Zm2.3,3.8c0-.6-0.7-1-2.2-1s-2.2.4-2.2,1,0.7,1,2.2,1S363.5,302.9,363.5,302.3Zm2.3-4.7h-1.3v2.6h-1v-6.1h1v2.5h1.3v0.9Z" transform="translate(-99.2 -99.2)"/><path class="cls-7" d="M374.8,302.6h-9v-0.9h4v-2h1v2h4v0.9Zm-1.1-3.3h-6.7v-4.6h1v3.7h5.7v0.9Z" transform="translate(-99.2 -99.2)"/><path class="cls-7" d="M381.6,302.3h-6.3v-0.9H378v-0.8H379v0.8h2.6v0.9Zm-0.6-5.4h-5.3v-0.9H381v0.9Zm-0.3,2c0,0.9-.9,1.6-2.2,1.6s-2.2-.6-2.2-1.6,0.9-1.6,2.2-1.6S380.7,297.9,380.7,298.8Zm-1-3.5h-2.6v-0.9h2.6v0.9Zm0.1,3.5a1,1,0,0,0-1.3-.8,0.9,0.9,0,1,0,0,1.6C379.2,299.6,379.7,299.3,379.7,298.8Zm4.6,0.6h-1.4v4.5h-1v-9.7h1v4.3h1.4v1Z" transform="translate(-99.2 -99.2)"/><path class="cls-7" d="M391.4,301.8l-4,.2h-2.5V301h6.6v0.9Zm-1-4.6a2.5,2.5,0,1,1-2.5-2.3A2.3,2.3,0,0,1,390.4,297.1Zm-1,0a1.5,1.5,0,1,0-1.5,1.5A1.4,1.4,0,0,0,389.3,297.1Zm3.3,6.7h-1v-9.7h1v9.7Z" transform="translate(-99.2 -99.2)"/><path class="cls-7" d="M399.6,296.4H394v-0.8h5.6v0.8Zm-0.4,2.1c0,1-.9,1.6-2.4,1.6s-2.4-.7-2.4-1.6,0.9-1.6,2.4-1.6S399.2,297.6,399.2,298.5Zm2.3,5.3h-1v-2.1H395v-0.8h6.4v3Zm-3.3-8.9h-2.8v-0.8h2.8v0.8Zm0,3.6c0-.5-0.4-0.8-1.3-0.8s-1.3.3-1.3,0.8,0.4,0.8,1.3.8S398.1,299.1,398.1,298.5Zm4.7-.7h-1.3v2.5h-1v-6.2h1v2.8h1.3v0.9Z" transform="translate(-99.2 -99.2)"/><path class="cls-7" d="M409.7,302.3h-6.5v-0.9H406v-0.8H407v0.8h2.7v0.9Zm-0.6-5.4h-5.4V296h5.4v0.9Zm-0.4,2c0,0.9-1,1.6-2.3,1.6s-2.3-.6-2.3-1.6,1-1.6,2.3-1.6S408.8,298,408.8,298.8Zm-1-3.5h-2.7v-0.9h2.7v0.9Zm0,3.5a1.1,1.1,0,0,0-1.3-.8,0.9,0.9,0,1,0,0,1.6C407.2,299.6,407.8,299.3,407.8,298.8Zm3.2,5h-1v-9.7h1v9.7Z" transform="translate(-99.2 -99.2)"/><path class="cls-7" d="M421.2,298.8l-0.4.9a4.4,4.4,0,0,1-2.4-1.7,4.4,4.4,0,0,1-2.6,1.9l-0.5-.8c1-.3,2.5-1.2,2.5-2.4h-2v-0.9h5v0.9h-2C419,297.8,420.4,298.6,421.2,298.8Zm2,3.4c0,1.1-1.2,1.9-3.3,1.9s-3.3-.8-3.3-1.9,1.2-1.9,3.3-1.9S423.3,301.1,423.3,302.2Zm-3.6-7.2H417v-0.9h2.7V295Zm2.5,7.2c0-.6-0.8-1.1-2.2-1.1s-2.2.4-2.2,1.1,0.7,1,2.2,1S422.2,302.8,422.2,302.2Zm2.2-4.4H423v2.3h-1v-5.9h1v2.7h1.3v1Z" transform="translate(-99.2 -99.2)"/><path class="cls-7" d="M430.8,299.1a26,26,0,0,1-4,.2h-1.7v-2.8h3.6v-1.1H425v-0.9h4.6v2.8h-3.6v1.1h0.8a26.9,26.9,0,0,0,4-.2v0.8Zm1.6,4.6h-6.3V300h1v1h4.3v-1h1v3.8Zm-1-.9v-1h-4.3v1h4.3Zm1-3.4h-1v-5.4h1v5.4Z" transform="translate(-99.2 -99.2)"/><path class="cls-7" d="M442.7,298.6l-0.5.9a5.1,5.1,0,0,1-2.5-2.3,5.5,5.5,0,0,1-2.5,2.5l-0.6-.8a4,4,0,0,0,2.5-3.6v-0.8h1v0.8A3.6,3.6,0,0,0,442.7,298.6Zm2.1,5.2h-6.2v-3.6h6.2v3.6Zm-1-.9v-1.8h-4.2v1.8h4.2Zm1-3.2h-1v-5.5h1v5.5Z" transform="translate(-99.2 -99.2)"/><path class="cls-7" d="M454.7,302.7h-9v-0.9h4v-1.7h1v1.7h4v0.9Zm-0.8-2.9h-7.3v-0.9h1.5l-0.3-2.6h1l0.3,2.6h2.4l0.3-2.6h1l-0.3,2.6h1.5v0.9Zm-0.2-3.9h-6.9V295h6.9v0.9Z" transform="translate(-99.2 -99.2)"/><path class="cls-7" d="M461.2,301.1l-0.6.9a5.7,5.7,0,0,1-2.2-2.8,6.8,6.8,0,0,1-2.5,3l-0.7-.8a5.2,5.2,0,0,0,2.6-4.5v-0.8h-2.1v-0.9H461v0.9h-2v0.8A4.7,4.7,0,0,0,461.2,301.1Zm2.2,2.8h-1v-9.7h1v9.7Z" transform="translate(-99.2 -99.2)"/><path class="cls-7" d="M469.6,296.8a2.4,2.4,0,1,1-2.4-2.3A2.3,2.3,0,0,1,469.6,296.8Zm-1,0a1.4,1.4,0,1,0-1.4,1.4A1.3,1.3,0,0,0,468.6,296.8Zm3.9,7h-6.3v-3.6h6.3v3.6Zm-1-.9v-1.8h-4.3v1.8h4.3Zm1-3.3h-1v-2.3H470v-1h1.5v-2.2h1v5.4Z" transform="translate(-99.2 -99.2)"/><path class="cls-7" d="M485.5,299.7h-4.2v4.2h-1v-4.2h-3.8v-0.9H483a27.5,27.5,0,0,0,.3-3.2h-5.8v-0.9h6.9a30,30,0,0,1-.4,4.1h1.5v0.9Z" transform="translate(-99.2 -99.2)"/><path class="cls-7" d="M492,298.7l-0.5.9a5.4,5.4,0,0,1-2.5-2.4,5.8,5.8,0,0,1-2.5,2.6L486,299a4.2,4.2,0,0,0,2.5-3.7v-0.9h1v0.9A3.8,3.8,0,0,0,492,298.7Zm2.2,3.4c0,1.1-1.1,1.9-3.3,1.9s-3.3-.8-3.3-1.9,1.4-2,3.3-2S494.2,300.9,494.2,302.1Zm-1.1,0c0-.8-1.1-1.1-2.3-1.1s-2.3.3-2.3,1.1,1.1,1.1,2.3,1.1S493.1,302.9,493.1,302.1Zm0.9-2.2h-1v-2.8h-1.9v-0.9H493v-2h1v5.8Z" transform="translate(-99.2 -99.2)"/><path class="cls-7" d="M501.4,303.4h-1v-4.2h-1c-0.1,1.9-.9,3-2,3s-2.1-1.3-2.1-3.5,0.9-3.5,2.1-3.5,1.9,1.1,2,3h1v-3.8h1v9.1Zm-2.9-4.8c0-1.5-.4-2.6-1.1-2.6s-1.1,1-1.1,2.6,0.4,2.6,1.1,2.6S498.6,300.2,498.6,298.6Zm4.7,5.2h-1v-9.7h1v9.7Z" transform="translate(-99.2 -99.2)"/><path class="cls-7" d="M511.9,301.6h-3.9v-6.4h3.3v0.9H509v4.5h2.9v0.9Zm3.5,2.3h-1v-5h-1.2v4.6h-1v-9.1h1v3.5h1.2v-3.7h1v9.7Z" transform="translate(-99.2 -99.2)"/><path class="cls-7" d="M522.5,296.5h-5.6v-0.9h5.6v0.9Zm-0.4,2.2c0,0.9-.9,1.7-2.4,1.7s-2.4-.8-2.4-1.7,0.9-1.7,2.4-1.7S522.1,297.8,522.1,298.8Zm2.5,4.9h-6.4v-2.7h1.1v1.8h5.3v0.9ZM521,295h-2.8v-0.8H521V295Zm0,3.8c0-.5-0.4-0.9-1.3-0.9s-1.3.3-1.3,0.9,0.4,0.9,1.3.9S521,299.3,521,298.7Zm4.6-.7h-1.3v3.3h-1v-7.2h1v3h1.3v0.9Z" transform="translate(-99.2 -99.2)"/><path class="cls-7" d="M537.6,302.7h-9v-0.9h4v-1.4h1v1.4h4v0.9Zm-1.1-2.7h-6.6V295h6.5v0.9h-5.5V297h5.4V298h-5.4v1.2h5.6V300Z" transform="translate(-99.2 -99.2)"/><path class="cls-7" d="M545,301.8l-4,.2h-2.5V301H545v0.9Zm-1-4.6a2.5,2.5,0,1,1-2.5-2.3A2.3,2.3,0,0,1,543.9,297.1Zm-1,0a1.5,1.5,0,1,0-1.5,1.5A1.4,1.4,0,0,0,542.9,297.1Zm3.3,6.7h-1v-9.7h1v9.7Z" transform="translate(-99.2 -99.2)"/><path class="cls-7" d="M323.2,317.4h-1V319h-1v-1.7h-3.3v-1.1l2.9-5.3h1.4v5.4h1v1Zm-2-1V312l-2.4,4.3h2.4Z" transform="translate(-99.2 -99.2)"/><path class="cls-7" d="M325.2,319.7h-1.2v-1.3h1.2v1.3Z" transform="translate(-99.2 -99.2)"/><path class="cls-7" d="M335.1,319.5h-1V315h-1v2.8h-3.6v-6.3h3.6V314h1v-3.6h1v9.1Zm-3-2.7v-4.5h-1.6v4.5h1.6Zm4.9,3.1h-1v-9.7h1v9.7Z" transform="translate(-99.2 -99.2)"/><path class="cls-7" d="M344.3,317.6H339v-6.4h4.5v0.9H340v4.6h4.3v0.9Zm1.8,2.3h-1v-9.7h1v9.7Z" transform="translate(-99.2 -99.2)"/><path class="cls-7" d="M356.3,316.7h-4v3.2h-1v-3.2h-4v-0.9h9v0.9Zm-1.2-2h-6.5v-4.3h1v1.2h4.6v-1.2h1v4.3Zm-1-.9v-1.3h-4.6v1.3h4.6Z" transform="translate(-99.2 -99.2)"/><path class="cls-7" d="M362.6,315.1l-0.5.8a5.6,5.6,0,0,1-2.5-2.5,5.9,5.9,0,0,1-2.5,2.6l-0.6-.7a4.5,4.5,0,0,0,2.5-4.1v-0.8h1v0.8A3.9,3.9,0,0,0,362.6,315.1Zm2.2,4.6h-6.3v-3h1v2.1h5.3v0.9Zm1-5.7h-1.3v3.2h-1v-7h1v2.9h1.3V314Z" transform="translate(-99.2 -99.2)"/><path class="cls-7" d="M371.5,320.3h-0.7a8.1,8.1,0,0,1,0-10.7h0.7A9.3,9.3,0,0,0,371.5,320.3Z" transform="translate(-99.2 -99.2)"/><path class="cls-7" d="M377.7,312.5h-5.6v-0.8h5.6v0.8Zm-0.4,2c0,0.9-.9,1.6-2.4,1.6s-2.4-.6-2.4-1.6,1-1.5,2.4-1.5S377.3,313.6,377.3,314.5Zm2.4,3.8c0,1.1-1.1,1.8-3.3,1.8s-3.3-.8-3.3-1.8,1.1-1.8,3.3-1.8S379.7,317.2,379.7,318.3Zm-3.5-7.3h-2.8v-0.8h2.8V311Zm0,3.5c0-.5-0.5-0.8-1.4-0.8s-1.4.3-1.4,0.8,0.5,0.8,1.4.8S376.3,315,376.3,314.5Zm2.3,3.8c0-.6-0.7-1-2.2-1s-2.2.4-2.2,1,0.7,1,2.2,1S378.6,318.9,378.6,318.3Zm2.3-4.7h-1.3v2.6h-1v-6.1h1v2.5h1.3v0.9Z" transform="translate(-99.2 -99.2)"/><path class="cls-7" d="M389.9,318.7h-9v-0.9h4v-2h1v2h4v0.9Zm-1.1-3.3h-6.7v-4.6h1v3.7h5.7v0.9Z" transform="translate(-99.2 -99.2)"/><path class="cls-7" d="M396.8,318.3h-6.3v-0.9h2.7v-0.8h1.1v0.8h2.6v0.9Zm-0.6-5.4h-5.3V312h5.3v0.9Zm-0.3,2c0,0.9-.9,1.6-2.2,1.6s-2.2-.6-2.2-1.6,0.9-1.6,2.2-1.6S395.9,314,395.9,314.9Zm-1-3.5h-2.6v-0.9h2.6v0.9Zm0.1,3.5a1,1,0,0,0-1.3-.8,0.9,0.9,0,1,0,0,1.6C394.4,315.6,394.9,315.3,394.9,314.9Zm4.6,0.6H398v4.5h-1v-9.7h1v4.3h1.4v1Z" transform="translate(-99.2 -99.2)"/><path class="cls-7" d="M402.1,315a7.5,7.5,0,0,1-2,5.3h-0.7a9.3,9.3,0,0,0,0-10.7H400A7.6,7.6,0,0,1,402.1,315Z" transform="translate(-99.2 -99.2)"/><path class="cls-7" d="M410.3,315.5H406v-4.9h1v1.6h2.4v-1.6h1v4.9Zm2.7,4.4h-1v-2.5h-5.3v-0.9H413v3.4Zm-3.7-5.3v-1.4H407v1.4h2.4Zm5-1H413V316h-1v-5.8h1v2.5h1.3v0.9Z" transform="translate(-99.2 -99.2)"/><path class="cls-7" d="M420.8,315.4a25.9,25.9,0,0,1-4,.2h-1.5v-2.9h3.4v-1.1h-3.4v-0.9h4.4v2.8h-3.4v1.1h0.6a26.9,26.9,0,0,0,4-.2v0.9Zm1.5,4.4h-6.1v-3.4h6.1v3.4Zm-1-.9v-1.6h-4.1v1.6h4.1Zm2.3-5.1h-1.3v2.2h-1v-5.7h1v2.6h1.3v0.9Z" transform="translate(-99.2 -99.2)"/><path class="cls-7" d="M430.7,318.3h-6.5v-0.9H427v-0.8h1.1v0.8h2.7v0.9Zm-0.6-5.4h-5.4V312h5.4v0.9Zm-0.4,2c0,0.9-1,1.6-2.3,1.6s-2.3-.6-2.3-1.6,1-1.6,2.3-1.6S429.8,314,429.8,314.9Zm-1-3.5h-2.7v-0.9h2.7v0.9Zm0,3.5a1.1,1.1,0,0,0-1.3-.8,0.9,0.9,0,1,0,0,1.6C428.3,315.7,428.8,315.4,428.8,314.9Zm3.2,5h-1v-9.7h1v9.7Z" transform="translate(-99.2 -99.2)"/><path class="cls-7" d="M442.6,315.9l-3.5.2h-3v-0.9h1.9v-2.2h1v2.2l3.5-.2v0.9Zm-0.9-5.2a32.6,32.6,0,0,1-.2,3.6h-1c0.1-1.1.2-2.1,0.2-2.7h-3.9v-0.9h4.9Zm2.5,8.9h-6.4v-2.9h1v2h5.5v0.9Zm1-5.3h-1.3v3h-1v-7.2h1v3.2h1.3v0.9Z" transform="translate(-99.2 -99.2)"/><path class="cls-7" d="M451.5,315.4a25.9,25.9,0,0,1-4,.2h-1.5v-2.9h3.4v-1.1h-3.4v-0.9h4.4v2.8h-3.4v1.1h0.6a26.9,26.9,0,0,0,4-.2v0.9Zm1.5,4.4h-6.1v-3.4H453v3.4Zm-1-.9v-1.6h-4.1v1.6H452Zm2.3-5.1H453v2.2h-1v-5.7h1v2.6h1.3v0.9Z" transform="translate(-99.2 -99.2)"/></svg>